<svg width="16" height="28" viewBox="0 0 16 28" xmlns="http://www.w3.org/2000/svg" xmlns:xlink="http://www.w3.org/1999/xlink"><g id="Page-1" stroke="none" stroke-width="1" fill="none" fill-rule="evenodd"><g id="cellphone" transform="translate(-1 -1)" fill="#FFF" fill-rule="nonzero"><path d="M14.54 28.12A2.41 2.41 0 0 0 17 25.65V3.47A2.41 2.41 0 0 0 14.54 1H3.46A2.41 2.41 0 0 0 1 3.47v22.18a2.41 2.41 0 0 0 2.46 2.47h11.08zM9 27.09a1.23 1.23 0 1 1 0-2.46 1.23 1.23 0 0 1 0 2.46zM5.92 2.5a.27.27 0 0 1 .28-.27h5.6c.15 0 .275.12.28.27v.08a.27.27 0 0 1-.28.27H6.2a.28.28 0 0 1-.28-.27V2.5zM2.23 4.08h13.54v19.69H2.23V4.08z" id="Shape"/></g></g></svg>