<svg width="23" height="22" viewBox="0 0 23 22" xmlns="http://www.w3.org/2000/svg" xmlns:xlink="http://www.w3.org/1999/xlink"><g id="Page-1" stroke="none" stroke-width="1" fill="none" fill-rule="evenodd"><g id="line-menu" transform="translate(-1)" fill="#283593" fill-rule="nonzero"><path d="M2.9 3.85A1.85 1.85 0 0 1 1 2a1.9 1.9 0 0 1 1.9-2h19.15A2 2 0 0 1 24 2a1.9 1.9 0 0 1-1.95 1.9L2.9 3.85zm19.15 4.72A2 2 0 0 1 24 10.52a1.9 1.9 0 0 1-1.95 1.9H2.9a1.85 1.85 0 0 1-1.9-1.9 1.9 1.9 0 0 1 1.9-1.95h19.15zm0 8.63A1.9 1.9 0 0 1 24 19.09a2 2 0 0 1-1.95 2H2.9a1.9 1.9 0 0 1-1.9-2 1.85 1.85 0 0 1 1.9-1.89h19.15z" id="Shape"/></g></g></svg>