<svg xmlns="http://www.w3.org/2000/svg" xmlns:xlink="http://www.w3.org/1999/xlink" width="137" height="24" viewBox="0 0 137 24"><defs><path id="5bcpa" d="M117.51 51.06c0 .43-.2.84-.54 1.1l-14.39 10.59a1.27 1.27 0 0 1-1.36.1c-.44-.23-.7-.7-.7-1.2l-.01-6.6h-4.77c-.43 0-.78-.4-.78-.87 0-.48.35-.87.78-.87h4.77v-1.44h-7.73c-.43 0-.78-.39-.78-.87s.35-.87.78-.87h7.73v-1.39h-4.77c-.43 0-.78-.39-.78-.87s.35-.87.78-.87h4.77v-6.57c0-.5.27-.97.7-1.2.44-.23.97-.19 1.37.1l14.38 10.62c.34.25.54.66.55 1.11zm-3.56-.02l-10.83-8 .03 3.96h2.64c.43 0 .77.4.77.87 0 .48-.34.87-.77.87h-2.63v1.4h5.17c.42 0 .77.38.77.86s-.35.87-.77.87h-5.15v1.44h2.6c.44 0 .78.39.78.87s-.34.87-.77.87h-2.6v4.08zm18.99 1.61c.15.47.22 1.01.2 1.6a5.5 5.5 0 0 1-1.46 3.86c-.94.97-2.38 1.5-4.28 1.56h-.28c-.6 0-1.17-.08-1.7-.25-.6-.2-1.14-.42-1.58-.66a3.5 3.5 0 0 1-1-.73 2.81 2.81 0 0 1-.55-.84c-.11-.29-.17-.58-.16-.85 0-.3.09-.55.23-.75.24-.39.55-.61.9-.66.35-.05.67.03.97.23l.72.5a4.7 4.7 0 0 0 1.61.82c.52.16 1.17.2 1.77-.02a2 2 0 0 0 1.2-1.1c.12-.28.18-.6.18-.95 0-.33-.07-.62-.21-.86a2.91 2.91 0 0 0-1.28-1.17 6.2 6.2 0 0 0-.74-.31c-.64-.24-1.24-.5-1.8-.77a6.35 6.35 0 0 1-1.48-1 4.43 4.43 0 0 1-1.02-1.39 4.45 4.45 0 0 1-.38-1.9 4.43 4.43 0 0 1 1.69-3.55c.5-.38 1.07-.68 1.7-.87a6.1 6.1 0 0 1 1.78-.26h.15c.73.01 1.41.14 2.03.36.63.22 1.15.5 1.57.85.42.34.72.73.88 1.14a1.43 1.43 0 0 1-.56 1.75c-.18.12-.37.2-.57.24-.2.05-.4.05-.59.01-.2-.03-.37-.11-.5-.23l-.5-.34a5.31 5.31 0 0 0-1.27-.62c-.47-.14-1-.14-1.37.05a1.77 1.77 0 0 0-.97 1.51c0 .3.09.57.27.8.2.24.44.46.73.64.3.2.61.36.94.5a16.06 16.06 0 0 1 2.71 1.34c.5.32.94.66 1.27 1.03.35.38.6.81.75 1.3zm15-9.74c.26.29.4.62.4.98v10.04c0 .96-.2 1.8-.56 2.52a5.51 5.51 0 0 1-1.46 1.8c-.6.48-1.3.84-2.06 1.08a8.18 8.18 0 0 1-4.69 0 6.33 6.33 0 0 1-2.06-1.06 5.35 5.35 0 0 1-2.07-4.34V43.89c0-.33.12-.65.38-.95.27-.32.7-.47 1.3-.47.58 0 1.01.15 1.28.44.26.29.4.62.4.98v8.6c0 .63.05 1.2.15 1.72.1.5.26.92.5 1.27.22.33.53.6.93.78.4.19.92.28 1.55.28.61 0 1.12-.09 1.52-.27.38-.18.69-.43.92-.76.22-.34.38-.76.47-1.25.09-.51.13-1.1.13-1.77v-8.6c0-.33.12-.65.37-.95.25-.31.7-.47 1.31-.47.59 0 1.02.15 1.29.44zm14.66 13.63c.34.34.52.75.54 1.21.02.46-.15.88-.5 1.23a1.85 1.85 0 0 1-1.36.58 1.4 1.4 0 0 1-1.03-.42l-5.63-6.09v5.08c0 .37-.15.7-.43.99-.28.29-.72.44-1.3.44-.6 0-1.02-.16-1.27-.48a1.5 1.5 0 0 1-.36-.95V44.45c0-.35.02-.63.08-.85.07-.24.19-.44.36-.58.16-.13.38-.21.67-.26.26-.04.6-.06 1-.06h3.4c.9 0 1.72.08 2.41.23.72.15 1.32.42 1.8.79.5.38.87.89 1.12 1.52.24.62.36 1.4.36 2.3 0 1.4-.32 2.48-.94 3.23a4.5 4.5 0 0 1-2.52 1.49l-.46.1h-.06zm-5.82-7.08a3.4 3.4 0 0 0 1.78-.38c.36-.22.54-.74.54-1.52 0-.36-.06-.66-.18-.9-.12-.22-.27-.4-.48-.53a2.05 2.05 0 0 0-.74-.27c-.3-.05-.6-.08-.92-.08h-2.16v3.68zm18.81-6.42c.27.24.4.63.43 1.17.01.55-.13.95-.42 1.19a1.8 1.8 0 0 1-1.15.34h-5.26v3.49h4.58c.49 0 .88.12 1.17.37.27.27.4.66.4 1.17 0 .52-.13.91-.39 1.15-.25.23-.64.34-1.18.34h-4.58v6.13c0 .28-.14.55-.42.8-.28.25-.7.37-1.28.37-.6 0-1-.13-1.27-.38-.26-.25-.4-.52-.4-.8V44.2c0-.55.16-.94.45-1.17.29-.21.68-.32 1.22-.32h6.98c.49 0 .86.12 1.12.34zm13.43 14.53c.21.68.14 1.19-.2 1.52-.32.3-.74.47-1.26.47h-.09c-.48 0-.85-.13-1.1-.38a2.5 2.5 0 0 1-.57-.88l-1.03-2.65h-4.3l-.94 2.53c-.15.4-.36.74-.62.98-.28.26-.69.4-1.2.4-.53 0-.95-.16-1.27-.46-.34-.32-.4-.85-.16-1.57l4.66-13.96c.08-.29.27-.55.56-.77a1.8 1.8 0 0 1 1.13-.33c.47 0 .85.11 1.13.33.29.22.48.48.56.77zm-4.94-4.98l-1.45-4.8-1.45 4.8zm20.26 3.33c.14.29.2.58.16.89a2.1 2.1 0 0 1-.45.86c-.26.34-.62.66-1.07.98a6.86 6.86 0 0 1-3.83 1.14 8.7 8.7 0 0 1-3.23-.6c-.99-.4-1.86-.98-2.59-1.74a8.02 8.02 0 0 1-1.7-2.78 10.3 10.3 0 0 1-.58-3.7c.02-1.36.23-2.6.62-3.67.39-1.07.93-2 1.6-2.74a6.89 6.89 0 0 1 2.4-1.73 7.5 7.5 0 0 1 6.74.45c.47.3.84.62 1.11.95.29.35.44.66.48.93.03.24.02.45-.05.62-.05.15-.1.26-.13.32a1.55 1.55 0 0 1-.8.64c-.3.14-.65.14-.96-.03-.26-.14-.55-.32-.87-.53-.3-.2-.67-.4-1.1-.59-.4-.18-.9-.27-1.5-.27-.67 0-1.27.16-1.78.47-.52.31-.96.73-1.31 1.25a5.89 5.89 0 0 0-.8 1.8 8.28 8.28 0 0 0 .02 4.3c.2.68.51 1.3.9 1.84.4.53.9.96 1.49 1.27.55.3 1.2.46 1.94.46h.1a4.81 4.81 0 0 0 1.85-.45c.23-.12.45-.25.63-.38l.58-.45c.45-.33.9-.4 1.33-.2.38.16.66.4.8.69zm12.66.69c.3.23.45.63.45 1.2 0 .56-.15.96-.45 1.2-.28.2-.72.31-1.34.31h-6.97c-.49 0-.89-.1-1.18-.3-.31-.22-.47-.62-.47-1.2V44.2c0-.55.15-.94.44-1.17.28-.21.68-.32 1.21-.32h6.99c.48 0 .86.12 1.12.34.26.24.4.63.42 1.17.02.55-.12.95-.42 1.19a1.8 1.8 0 0 1-1.14.34h-5.26v3.49h5.03c.54 0 .93.12 1.19.37.25.25.38.64.38 1.17 0 .52-.13.91-.39 1.15-.25.23-.64.34-1.18.34h-5.03v4.03h5.26c.62 0 1.06.1 1.34.32zm12-12.44v14.26c0 .51-.28 1.13-1.64 1.13-1.35 0-1.63-.62-1.63-1.13V46.11h-.9c-.45 0-.67-.21-.77-.39a2.82 2.82 0 0 1-.18-1.27c0-.6.08-1.03.25-1.28a.95.95 0 0 1 .84-.42h2.26c1.46 0 1.77.77 1.77 1.42z"/></defs><g><g transform="translate(-92 -39)"><use fill="#fff" xlink:href="#5bcpa"/></g></g></svg>