<svg xmlns="http://www.w3.org/2000/svg" xmlns:xlink="http://www.w3.org/1999/xlink" width="17" height="17" viewBox="0 0 17 17"><defs><path id="bqf1a" d="M220.02 3938.07v-1.02c0-.6-.48-1.07-1.07-1.07h-1.02c-.59 0-1.07.48-1.07 1.07v1.02c0 .59.48 1.07 1.07 1.07h1.02c.6 0 1.07-.48 1.07-1.07zm0 9.88v-5.36c0-.6-.55-1.08-1.14-1.08h-.6l-.12.01a.45.45 0 0 0-.39.53v.07a4.29 4.29 0 0 1-4.25 4.75h-.04.02a4.24 4.24 0 0 1-4.15-4.28c0-.16-.05-.31-.03-.47 0-.02-.05-.05-.05-.07a.45.45 0 0 0-.38-.52.66.66 0 0 0-.12-.02h-.6c-.6 0-1.2.49-1.2 1.08v5.36c0 .6.6 1.07 1.2 1.07h10.71c.6 0 1.14-.48 1.14-1.07zm-.16-13.95c1.18 0 2.14.96 2.14 2.14v12.72c0 1.18-.96 2.14-2.14 2.14h-12.72a2.14 2.14 0 0 1-2.14-2.14v-12.72c0-1.18.96-2.14 2.14-2.14zm-8.93 8.57c0 1.4 1.16 2.52 2.59 2.52a2.55 2.55 0 0 0 2.58-2.52c0-1.4-1.16-2.53-2.58-2.53a2.55 2.55 0 0 0-2.59 2.53z"/></defs><g><g transform="translate(-205 -3934)"><use fill="#fff" xlink:href="#bqf1a"/></g></g></svg>