<svg xmlns="http://www.w3.org/2000/svg" xmlns:xlink="http://www.w3.org/1999/xlink" width="10" height="18" viewBox="0 0 10 18"><defs><path id="1pnia" d="M107.62 3934h-2.4c-2.69 0-4.43 1.74-4.43 4.43v2.04h-2.41c-.21 0-.38.17-.38.37v2.96c0 .2.17.37.38.37h2.4v7.46c0 .2.18.37.39.37h3.14c.21 0 .38-.16.38-.37v-7.46h2.82c.2 0 .38-.17.38-.37v-2.96c0-.1-.04-.2-.11-.26a.38.38 0 0 0-.27-.1h-2.82v-1.74c0-.83.2-1.25 1.32-1.25h1.61c.21 0 .38-.17.38-.37v-2.75c0-.2-.17-.37-.38-.37z"/></defs><g><g transform="translate(-98 -3934)"><use fill="#fff" xlink:href="#1pnia"/></g></g></svg>