<svg xmlns="http://www.w3.org/2000/svg" xmlns:xlink="http://www.w3.org/1999/xlink" width="18" height="15" viewBox="0 0 18 15"><defs><path id="wpvxa" d="M166.5 3935.28c-.71.43-1.5.75-2.34.92a3.64 3.64 0 0 0-2.7-1.2 3.74 3.74 0 0 0-3.6 4.65 10.4 10.4 0 0 1-7.6-3.96 3.84 3.84 0 0 0 1.14 5.06c-.6-.02-1.18-.2-1.68-.48v.05a3.77 3.77 0 0 0 2.97 3.71 3.64 3.64 0 0 1-1.67.07 3.71 3.71 0 0 0 3.45 2.63 7.3 7.3 0 0 1-5.47 1.57 10.27 10.27 0 0 0 5.66 1.7c6.8 0 10.5-5.77 10.5-10.78v-.49a7.54 7.54 0 0 0 1.84-1.96c-.66.3-1.37.51-2.12.6a3.8 3.8 0 0 0 1.62-2.1z"/></defs><g><g transform="translate(-149 -3935)"><use fill="#fff" xlink:href="#wpvxa"/></g></g></svg>