<svg version="1" xmlns="http://www.w3.org/2000/svg" width="398.667" height="398.667" viewBox="0 0 299 299"><path d="M144.2 1.6c-9.8 4.9-17.3 15.9-17.7 26.1l-.2 5.7-4.2.3c-3.8.3-7.8 2.1-10.7 4.8-4.6 4.3-6.4 13.1-4 18.9 1.3 3.2 1.7 3.5 3.9 2.7 14-5.4 19.7 2.8 19.9 28.9 0 4.7 0 9.7-.1 11.2l-.1 2.8-13.2-.3C91.4 102 83.6 96.6 89 82.6c.9-2.4.7-2.8-1.8-3.7-2.6-1-6.1-1.4-10.8-1-1.1 0-4.1 1.4-6.6 3.1-3.6 2.4-4.8 4-6.1 8-.9 2.7-1.4 5.8-1.2 6.8.3 1.7-.3 1.9-4.4 1.9-11.3 0-22.8 7.7-27.7 18.5-2.2 4.8-1.5 7.1 4.3 14.3 6.2 7.6 13.4 11.5 21.9 11.9l5.8.2.3 4.3c.5 11.1 13.6 19 24.1 14.6 3.2-1.4 3.2-1.5 1.9-4.8-1.6-3.8-1.4-10.2.4-12.4 3.7-4.3 12.7-6.4 29.1-6.8 12.2-.2 12.6-.1 13 1.9.1 1.2.3 20.5.3 43.1-.1 36-.3 41.7-1.8 46.7-3.1 10.3-8 13.1-17.5 10-3.6-1.2-4.6-.2-5.5 5.5-1.7 10.7 5.8 20 16.7 20.6 2.9.2 3.6.6 3.3 1.8-.7 2.5 1 11.8 2.8 15.6 2.9 6.1 14.8 16.3 19 16.3 3.1 0 10.1-4.4 14.7-9.3 5.3-5.4 8.8-14.2 8.3-20.8-.2-3.5-.2-3.6 3.5-3.7 6.8-.3 11.4-3.2 14.5-9.3 2.3-4.4 2.4-13.3.2-16.3-1.1-1.5-1.6-1.6-4.7-.3-4 1.7-9.3 1.5-11.6-.4-1.8-1.5-4.3-6.1-5-9.2-1.6-6.9-1.8-12.4-1.7-44.7.1-19.5.2-38.2.2-41.6l.1-6.1 12.8.2c15.7.3 25.5 2.6 29 6.7 1.9 2.4 2.2 7.4.7 11.7-1.3 3.8-1.3 4.2.4 5.1 5 2.6 14 1.6 19.2-2.1 3.2-2.3 5.8-7.5 6.3-12.6.3-3.7.3-3.7 4.7-3.9 5-.1 12.4-2 14.7-3.7 6.7-5.1 14.2-14.8 14.2-18.4 0-2.4-3.6-8.7-7.2-12.4-6.5-7-13.4-10.2-21.8-10.2-4.4 0-4.7-.1-4.5-2.6.3-6.2-3.3-12.4-9.1-15.4-4.2-2.2-11.2-2.7-15.1-1.1l-3.2 1.4 1.4 4.1c2 5.5 1.9 7.6-.5 10.9-3.7 5.2-10.4 7-28.6 7.5-15.3.5-14 1.7-13.8-12.5.2-16.7 2.3-26.2 6.6-29.8 2.4-1.9 6.9-2.2 11.3-.6 4.4 1.5 5.3 1 6.2-3.2 1.5-7.1-.5-13.9-5.4-18.6-2.8-2.7-10.4-5.1-12.9-4.1-.9.3-1.3-.6-1.2-3.5 0-5.1-1-9.9-3.2-14.2-2.2-4.1-8.3-11-9.9-11-.6 0-1.1-.4-1.1-.8 0-1-6.5-4.2-8.3-4.2-.7 0-2.7.8-4.5 1.6z"/></svg>