<svg xmlns="http://www.w3.org/2000/svg" xmlns:xlink="http://www.w3.org/1999/xlink" width="59" height="61"><defs><path id="a" d="M167 126.01c0 .55-.44.99-.99.99h-57.02a.99.99 0 1 1 0-1.98h1.12V75.35h-.06a.99.99 0 1 1 0-1.97h12.94a3.07 3.07 0 0 1-.2-1.12V69.1c0-1.71 1.38-3.1 3.1-3.1h23.23a3.1 3.1 0 0 1 3.1 3.1v3.16c0 .4-.08.77-.21 1.12h12.94a.99.99 0 1 1 0 1.97h-.06v49.67H166c.55 0 .99.45.99 1zm-42.24-53.75c0 .61.5 1.12 1.12 1.12h23.24c.61 0 1.12-.5 1.12-1.12V69.1c0-.62-.5-1.12-1.12-1.12h-23.24c-.61 0-1.12.5-1.12 1.12zm1.2 52.76v-8.56h-8.59v8.56zm0-10.54v-.06a4.3 4.3 0 0 0-8.59 0v.06zm10.55 1.98h-3.3v8.56h3.3zm5.28 0h-3.3v8.56h3.3zm0-1.98v-.06a4.3 4.3 0 0 0-8.58 0v.06zm15.84 1.98h-8.58v8.56h8.58zm0-1.98v-.06a4.3 4.3 0 0 0-8.58 0v.06zm5.28-14.75V75.35h-50.82v24.38h2.18a.99.99 0 1 1 0 1.97h-2.18v2.24h32.8a.99.99 0 1 1 0 1.98h-32.8v19.1h3.3v-10.6a6.27 6.27 0 0 1 12.54 0v10.6h3.3v-10.6a6.27 6.27 0 0 1 12.54 0v10.6h3.3v-10.6a6.27 6.27 0 0 1 12.54 0v10.6h3.3v-19.1h-7.46a.99.99 0 1 1 0-1.98h7.46v-2.24h-44.42a.99.99 0 0 1-.99-.98V82.8a4.16 4.16 0 0 1 8.32 0v16.93h2.24V82.8a4.16 4.16 0 0 1 8.32 0v16.93h2.24V82.8a4.16 4.16 0 0 1 8.32 0v16.93h2.24V82.8a4.16 4.16 0 0 1 8.32 0v16.93zm-7.4-8.44v-4.34h-4.35v4.34zm0 1.98h-4.35v6.46h4.36zm0-8.3V82.8a2.18 2.18 0 0 0-4.35 0v2.17zm-10.55 6.32v-4.34h-4.36v4.34zm0 1.98h-4.36v6.46h4.36zm0-8.3V82.8a2.18 2.18 0 0 0-4.36 0v2.17zM134.4 91.3v-4.34h-4.36v4.34zm0 1.98h-4.36v6.46h4.36zm0-8.3V82.8a2.18 2.18 0 0 0-4.36 0v2.17zm-10.56 6.32v-4.34h-4.36v4.34zm0 1.98h-4.36v6.46h4.36zm0-8.3V82.8a2.18 2.18 0 0 0-4.36 0v2.17zm28.38 19.96c0 .55-.45.99-1 .99h-2.1a.99.99 0 1 1 0-1.98h2.1c.55 0 1 .45 1 1z"/></defs><use fill="#237cc8" xlink:href="#a" transform="translate(-108 -66)"/></svg>