<svg xmlns="http://www.w3.org/2000/svg" xmlns:xlink="http://www.w3.org/1999/xlink" width="33" height="27" viewBox="0 0 33 27"><defs><path id="v43ya" d="M325.43 4117.09c-1.18.53-2.46.88-3.8 1.04a6.65 6.65 0 0 0 2.91-3.66c-1.3.77-2.72 1.31-4.2 1.6a6.62 6.62 0 0 0-11.3 6.05 18.82 18.82 0 0 1-13.66-6.92 6.62 6.62 0 0 0 2.05 8.85 6.6 6.6 0 0 1-3-.84v.09a6.63 6.63 0 0 0 5.32 6.5 6.6 6.6 0 0 1-3 .11 6.63 6.63 0 0 0 6.2 4.6 13.3 13.3 0 0 1-9.82 2.75 18.75 18.75 0 0 0 10.16 2.97c12.19 0 18.85-10.1 18.85-18.85 0-.29 0-.57-.02-.86a13.5 13.5 0 0 0 3.31-3.43z"/></defs><g><g transform="translate(-293 -4114)"><use fill="#fff" xlink:href="#v43ya"/></g></g></svg>