<svg xmlns="http://www.w3.org/2000/svg" xmlns:xlink="http://www.w3.org/1999/xlink" width="30" height="34" viewBox="0 0 30 34"><defs><path id="tyu0a" d="M318.95 4238.79a4.9 4.9 0 0 1-2.45.32c-.81-.1-1.62-.35-2.46-.84a15.1 15.1 0 0 1-3.68-3.13c2.13-2.62 3.42-5.02 3.9-7.15.23-1 .27-1.9.17-2.75a5.24 5.24 0 0 0-.87-2.2 5.45 5.45 0 0 0-4.56-2.3c-1.88 0-3.56.88-4.56 2.3-.45.65-.74 1.4-.87 2.2-.13.84-.1 1.78.16 2.75.49 2.13 1.81 4.56 3.91 7.18a14.52 14.52 0 0 1-3.68 3.14c-.84.48-1.65.74-2.46.84a4.8 4.8 0 0 1-5.4-4.1c-.1-.82-.03-1.63.3-2.53.1-.33.25-.65.41-1.04l.75-1.61.03-.07c2.23-4.82 4.62-9.73 7.11-14.52l.1-.19c.26-.48.51-1 .77-1.49.26-.51.55-1 .9-1.42a3.38 3.38 0 0 1 5.18 0c.36.42.65.9.9 1.42l.78 1.49.1.2a428.2 428.2 0 0 1 7.08 14.54v.04c.25.51.48 1.1.74 1.61.16.4.32.71.42 1.04.26.84.35 1.65.22 2.49a4.8 4.8 0 0 1-2.94 3.78zm-9.95-5.31c-1.74-2.2-2.88-4.27-3.26-6.01a5.2 5.2 0 0 1-.1-1.97c.06-.52.26-.97.52-1.36a3.44 3.44 0 0 1 2.84-1.42c1.2 0 2.27.51 2.85 1.42.26.39.46.84.52 1.36.1.58.07 1.26-.1 1.97-.39 1.71-1.52 3.78-3.27 6zm14.1-2.85c-.27-.58-.53-1.13-.75-1.64l-.03-.04a336.95 336.95 0 0 0-7.15-14.6l-.1-.2c-.26-.5-.52-1-.77-1.52-.32-.58-.65-1.2-1.16-1.78a5.22 5.22 0 0 0-4.1-2c-1.62 0-3.08.71-4.15 1.94-.48.58-.84 1.2-1.16 1.78-.25.5-.5 1.01-.77 1.52l-.1.2a379.16 379.16 0 0 0-7.14 14.6l-.04.06c-.22.52-.48 1.07-.74 1.65-.16.36-.32.75-.48 1.17a6.87 6.87 0 0 0 7.27 9.3 8.54 8.54 0 0 0 3.23-1.1 16.37 16.37 0 0 0 4-3.36 16.98 16.98 0 0 0 4.02 3.37 8.54 8.54 0 0 0 4.07 1.16 6.86 6.86 0 0 0 6.82-5.88 6.12 6.12 0 0 0-.3-3.46l-.48-1.17z"/></defs><g><g transform="translate(-294 -4208)"><use fill="#fff" xlink:href="#tyu0a"/></g></g></svg>