<svg xmlns="http://www.w3.org/2000/svg" xmlns:xlink="http://www.w3.org/1999/xlink" width="661" height="550" viewBox="0 0 661 550"><defs><path id="2lbza" d="M181.18 2087a5 5 0 0 1 5-5h134.16a5 5 0 0 1 0 10H186.18a5 5 0 0 1-5-5z"/><path id="2lbzb" d="M121.18 1990a38 38 0 0 1 38-38h584a38 38 0 0 1 38 38v474a38 38 0 0 1-38 38h-584a38 38 0 0 1-38-38z"/><path id="2lbzd" d="M181.18 2047a5 5 0 0 1 5-5h224.74a5 5 0 0 1 0 10H186.18a5 5 0 0 1-5-5z"/><path id="2lbzi" d="M504.18 2149v85"/><path id="2lbzk" d="M600.18 2071v36"/><path id="2lbzm" d="M600.18 2180v119"/><path id="2lbzo" d="M504.18 2306v57"/><path id="2lbzq" d="M694.18 2149v85"/><path id="2lbzs" d="M694.18 2306v57"/><path id="2lbzu" d="M472.18 2271c0-17.12 14.1-31 31.5-31s31.5 13.88 31.5 31c0 17.12-14.1 31-31.5 31s-31.5-13.88-31.5-31z"/><path id="2lbzw" d="M569.18 2144c0-17.12 14.1-31 31.5-31s31.5 13.88 31.5 31c0 17.12-14.1 31-31.5 31s-31.5-13.88-31.5-31z"/><path id="2lbzy" d="M661.18 2271c0-17.12 14.1-31 31.5-31s31.5 13.88 31.5 31c0 17.12-14.1 31-31.5 31s-31.5-13.88-31.5-31z"/><path id="2lbzz" d="M492.18 2147v85"/><path id="2lbzA" d="M588.18 2069v36"/><path id="2lbzB" d="M588.18 2178v119"/><path id="2lbzC" d="M492.18 2304v57"/><path id="2lbzD" d="M682.18 2147v85"/><path id="2lbzE" d="M682.18 2304v57"/><path id="2lbzF" d="M460.18 2269c0-17.12 14.1-31 31.5-31s31.5 13.88 31.5 31c0 17.12-14.1 31-31.5 31s-31.5-13.88-31.5-31z"/><path id="2lbzG" d="M557.18 2142c0-17.12 14.1-31 31.5-31s31.5 13.88 31.5 31c0 17.12-14.1 31-31.5 31s-31.5-13.88-31.5-31z"/><path id="2lbzH" d="M649.18 2269c0-17.12 14.1-31 31.5-31s31.5 13.88 31.5 31c0 17.12-14.1 31-31.5 31s-31.5-13.88-31.5-31z"/><path id="2lbzI" d="M249.05 2251.4a17.48 17.48 0 0 1-3.86-24.39 17.49 17.49 0 0 1 24.4-3.87 17.49 17.49 0 0 1 3.86 24.4 17.48 17.48 0 0 1-24.4 3.87zm55.78 11.62c.73-1.3 0-3.2-1.2-4.07a11.63 11.63 0 0 1-4.56-12.17 11.66 11.66 0 0 1 9.98-8.76 2.9 2.9 0 0 0 2.57-3 51.81 51.81 0 0 0-1.78-11.66 2.91 2.91 0 0 0-3.41-2.08c-4.56.97-9.85-1.29-12.29-5.3a11.63 11.63 0 0 1 .96-13.35 2.9 2.9 0 0 0-.28-3.99c-2.9-2.66-6.08-5-9.51-6.95-1.33-.75-3-.36-3.86.9a11.65 11.65 0 0 1-12.37 4.83 12.1 12.1 0 0 1-8.75-10 2.92 2.92 0 0 0-3-2.6 52 52 0 0 0-11.78 1.8c-1.48.4-2.4 1.9-2.08 3.4a11.6 11.6 0 0 1-5.31 12.29c-4 2.42-9.24 2.04-13.38-.97a2.85 2.85 0 0 0-3.96.3 52.45 52.45 0 0 0-7.01 9.62c-.74 1.3.05 3.22 1.26 4.1a11.48 11.48 0 0 1 4.5 12.14 11.64 11.64 0 0 1-9.98 8.75 2.91 2.91 0 0 0-2.58 3 52 52 0 0 0 1.78 11.65c.4 1.5 1.9 2.4 3.4 2.1 4.58-.97 9.87 1.29 12.3 5.29a11.61 11.61 0 0 1-.95 13.36 2.9 2.9 0 0 0 .28 3.98 52.05 52.05 0 0 0 9.5 6.95c1.34.76 3.01.36 3.87-.9a11.64 11.64 0 0 1 12.36-4.82c4.52 1.1 8.24 5.4 8.75 10a2.93 2.93 0 0 0 3 2.6c3.98-.15 7.94-.76 11.78-1.8a2.9 2.9 0 0 0 2.09-3.4 11.6 11.6 0 0 1 5.3-12.3 11.72 11.72 0 0 1 12.84.56l.51.4c1.15.97 2.94.85 4-.28a52.4 52.4 0 0 0 7-9.62z"/><path id="2lbzJ" d="M321.83 2320.42a12.97 12.97 0 0 1-14.82-10.77 12.97 12.97 0 0 1 10.77-14.82 12.97 12.97 0 0 1 14.82 10.77 12.97 12.97 0 0 1-10.77 14.82zm35.42-23.78c-.3-1.08-1.7-1.7-2.8-1.52a8.75 8.75 0 0 1-8.9-4.06 8.78 8.78 0 0 1 .65-9.97c.71-.9.61-2.2-.23-2.97a39 39 0 0 0-7.15-5.25 2.2 2.2 0 0 0-2.92.7 9.08 9.08 0 0 1-9.36 3.72 8.75 8.75 0 0 1-6.6-7.61 2.19 2.19 0 0 0-2.27-1.97c-2.96.12-5.9.58-8.76 1.36a2.2 2.2 0 0 0-1.57 2.53 8.77 8.77 0 0 1-4.02 9.15 9.1 9.1 0 0 1-9.98-.67 2.2 2.2 0 0 0-2.98.22 39.14 39.14 0 0 0-5.3 7.22 2.2 2.2 0 0 0 .7 2.92 8.73 8.73 0 0 1 3.7 9.37c-.83 3.41-3.82 6-7.63 6.6a2.14 2.14 0 0 0-1.94 2.27c.12 2.98.59 5.96 1.38 8.85.3 1.08 1.74 1.69 2.86 1.51a8.64 8.64 0 0 1 8.85 4.07 8.76 8.76 0 0 1-.65 9.96c-.71.9-.62 2.2.23 2.97a39.13 39.13 0 0 0 7.14 5.26c1 .58 2.29.27 2.93-.7a9.07 9.07 0 0 1 9.35-3.72 8.74 8.74 0 0 1 6.6 7.6 2.19 2.19 0 0 0 2.28 1.98 39.17 39.17 0 0 0 8.76-1.36 2.2 2.2 0 0 0 1.57-2.54 8.76 8.76 0 0 1 4.01-9.14 9.1 9.1 0 0 1 9.99.67c.9.71 2.19.61 2.97-.22a39.23 39.23 0 0 0 5.31-7.23c.58-1 .27-2.28-.7-2.92a8.73 8.73 0 0 1-3.72-9.36c.83-3.37 3.69-6 7.13-6.54l.48-.06a2.2 2.2 0 0 0 1.98-2.27 39.44 39.44 0 0 0-1.39-8.85z"/><path id="2lbzK" d="M244.05 2246.4a17.48 17.48 0 0 1-3.86-24.39 17.49 17.49 0 0 1 24.4-3.87 17.49 17.49 0 0 1 3.86 24.4 17.48 17.48 0 0 1-24.4 3.87zm55.78 11.62c.73-1.3 0-3.2-1.2-4.07a11.63 11.63 0 0 1-4.56-12.17 11.66 11.66 0 0 1 9.98-8.76 2.9 2.9 0 0 0 2.57-3 51.81 51.81 0 0 0-1.78-11.66 2.91 2.91 0 0 0-3.41-2.08c-4.56.97-9.85-1.29-12.29-5.3a11.63 11.63 0 0 1 .96-13.35 2.9 2.9 0 0 0-.28-3.99c-2.9-2.66-6.08-5-9.51-6.95-1.33-.75-3-.36-3.86.9a11.65 11.65 0 0 1-12.37 4.83 12.1 12.1 0 0 1-8.75-10 2.92 2.92 0 0 0-3-2.6 52 52 0 0 0-11.78 1.8c-1.48.4-2.4 1.9-2.08 3.4a11.6 11.6 0 0 1-5.31 12.29c-4 2.42-9.24 2.04-13.38-.97a2.85 2.85 0 0 0-3.96.3 52.45 52.45 0 0 0-7.01 9.62c-.74 1.3.05 3.22 1.26 4.1a11.48 11.48 0 0 1 4.5 12.14 11.64 11.64 0 0 1-9.98 8.75 2.91 2.91 0 0 0-2.58 3 52 52 0 0 0 1.78 11.65c.4 1.5 1.9 2.4 3.4 2.1 4.58-.97 9.87 1.29 12.3 5.29a11.61 11.61 0 0 1-.95 13.36 2.9 2.9 0 0 0 .28 3.98 52.05 52.05 0 0 0 9.5 6.95c1.34.76 3.01.36 3.87-.9a11.64 11.64 0 0 1 12.36-4.82c4.52 1.1 8.24 5.4 8.75 10a2.93 2.93 0 0 0 3 2.6c3.98-.15 7.94-.76 11.78-1.8a2.9 2.9 0 0 0 2.09-3.4 11.6 11.6 0 0 1 5.3-12.3 11.72 11.72 0 0 1 12.84.56l.51.4c1.15.97 2.94.85 4-.28a52.4 52.4 0 0 0 7-9.62z"/><path id="2lbzL" d="M316.83 2315.42a12.97 12.97 0 0 1-14.82-10.77 12.97 12.97 0 0 1 10.77-14.82 12.97 12.97 0 0 1 14.82 10.77 12.97 12.97 0 0 1-10.77 14.82zm35.42-23.78c-.3-1.08-1.7-1.7-2.8-1.52a8.75 8.75 0 0 1-8.9-4.06 8.78 8.78 0 0 1 .65-9.97c.71-.9.61-2.2-.23-2.97a39 39 0 0 0-7.15-5.25 2.2 2.2 0 0 0-2.92.7 9.08 9.08 0 0 1-9.36 3.72 8.75 8.75 0 0 1-6.6-7.61 2.19 2.19 0 0 0-2.27-1.97c-2.96.12-5.9.58-8.76 1.36a2.2 2.2 0 0 0-1.57 2.53 8.77 8.77 0 0 1-4.02 9.15 9.1 9.1 0 0 1-9.98-.67 2.2 2.2 0 0 0-2.98.22 39.14 39.14 0 0 0-5.3 7.22 2.2 2.2 0 0 0 .7 2.92 8.73 8.73 0 0 1 3.7 9.37c-.83 3.41-3.82 6-7.63 6.6a2.14 2.14 0 0 0-1.94 2.27c.12 2.98.59 5.96 1.38 8.85.3 1.08 1.74 1.69 2.86 1.51a8.64 8.64 0 0 1 8.85 4.07 8.76 8.76 0 0 1-.65 9.96c-.71.9-.62 2.2.23 2.97a39.13 39.13 0 0 0 7.14 5.26c1 .58 2.29.27 2.93-.7a9.07 9.07 0 0 1 9.35-3.72 8.74 8.74 0 0 1 6.6 7.6 2.19 2.19 0 0 0 2.28 1.98 39.17 39.17 0 0 0 8.76-1.36 2.2 2.2 0 0 0 1.57-2.54 8.76 8.76 0 0 1 4.01-9.14 9.1 9.1 0 0 1 9.99.67c.9.71 2.19.61 2.97-.22a39.23 39.23 0 0 0 5.31-7.23c.58-1 .27-2.28-.7-2.92a8.73 8.73 0 0 1-3.72-9.36c.83-3.37 3.69-6 7.13-6.54l.48-.06a2.2 2.2 0 0 0 1.98-2.27 39.44 39.44 0 0 0-1.39-8.85z"/><linearGradient id="2lbzc" x1="155.54" x2="845.2" y1="1983.4" y2="2561.12" gradientUnits="userSpaceOnUse"><stop offset="0" stop-color="#4d52cd"/><stop offset="1" stop-color="#9960d9"/></linearGradient><mask id="2lbzf" width="2" height="2" x="-1" y="-1"><path fill="#fff" d="M181 2082h145v10H181z"/><use xlink:href="#2lbza"/></mask><filter id="2lbze" width="237" height="106" x="131" y="2040" filterUnits="userSpaceOnUse"><feOffset dx="-8" dy="12" in="SourceGraphic" result="FeOffset1641Out"/><feGaussianBlur in="FeOffset1641Out" result="FeGaussianBlur1642Out" stdDeviation="12.8 12.8"/></filter><linearGradient id="2lbzg" x1="312.15" x2="191.6" y1="2092" y2="2084.15" gradientUnits="userSpaceOnUse"><stop offset="0" stop-color="#ff8e7e"/><stop offset="1" stop-color="#ff6b79"/></linearGradient><filter id="2lbzh" width="540%" height="144%" x="-210%" y="-12%" filterUnits="objectBoundingBox"><feGaussianBlur in="SourceGraphic" result="FeGaussianBlur1655Out" stdDeviation="1 1"/></filter><filter id="2lbzj" width="540%" height="152%" x="-210%" y="-16%" filterUnits="objectBoundingBox"><feGaussianBlur in="SourceGraphic" result="FeGaussianBlur1662Out" stdDeviation="1 1"/></filter><filter id="2lbzl" width="540%" height="144%" x="-210%" y="-12%" filterUnits="objectBoundingBox"><feGaussianBlur in="SourceGraphic" result="FeGaussianBlur1669Out" stdDeviation="1 1"/></filter><filter id="2lbzn" width="540%" height="148%" x="-210%" y="-14%" filterUnits="objectBoundingBox"><feGaussianBlur in="SourceGraphic" result="FeGaussianBlur1676Out" stdDeviation="1 1"/></filter><filter id="2lbzp" width="540%" height="144%" x="-210%" y="-12%" filterUnits="objectBoundingBox"><feGaussianBlur in="SourceGraphic" result="FeGaussianBlur1683Out" stdDeviation="1 1"/></filter><filter id="2lbzr" width="540%" height="148%" x="-210%" y="-14%" filterUnits="objectBoundingBox"><feGaussianBlur in="SourceGraphic" result="FeGaussianBlur1690Out" stdDeviation="1 1"/></filter><filter id="2lbzt" width="148%" height="148%" x="-14%" y="-14%" filterUnits="objectBoundingBox"><feGaussianBlur in="SourceGraphic" result="FeGaussianBlur1697Out" stdDeviation="1 1"/></filter><filter id="2lbzv" width="148%" height="148%" x="-14%" y="-14%" filterUnits="objectBoundingBox"><feGaussianBlur in="SourceGraphic" result="FeGaussianBlur1704Out" stdDeviation="1 1"/></filter><filter id="2lbzx" width="148%" height="148%" x="-14%" y="-14%" filterUnits="objectBoundingBox"><feGaussianBlur in="SourceGraphic" result="FeGaussianBlur1711Out" stdDeviation="1 1"/></filter></defs><g><g transform="translate(-121 -1952)"><g><use fill="url(#2lbzc)" xlink:href="#2lbzb"/></g><g opacity=".7"><use fill="#fff" xlink:href="#2lbzd"/></g><g><g filter="url(#2lbze)"><use fill="none" stroke-opacity=".13" stroke-width="0" mask="url(&quot;#2lbzf&quot;)" xlink:href="#2lbza"/><use fill="#151948" fill-opacity=".13" xlink:href="#2lbza"/></g><use fill="url(#2lbzg)" xlink:href="#2lbza"/></g><g><g filter="url(#2lbzh)" opacity=".15"><use fill="#fff" fill-opacity="0" stroke="#000" stroke-linecap="round" stroke-miterlimit="50" stroke-width="10" xlink:href="#2lbzi"/></g><g filter="url(#2lbzj)" opacity=".15"><use fill="#fff" fill-opacity="0" stroke="#000" stroke-linecap="round" stroke-miterlimit="50" stroke-width="10" xlink:href="#2lbzk"/></g><g filter="url(#2lbzl)" opacity=".15"><use fill="#fff" fill-opacity="0" stroke="#000" stroke-linecap="round" stroke-miterlimit="50" stroke-width="10" xlink:href="#2lbzm"/></g><g filter="url(#2lbzn)" opacity=".15"><use fill="#fff" fill-opacity="0" stroke="#000" stroke-linecap="round" stroke-miterlimit="50" stroke-width="10" xlink:href="#2lbzo"/></g><g filter="url(#2lbzp)" opacity=".15"><use fill="#fff" fill-opacity="0" stroke="#000" stroke-linecap="round" stroke-miterlimit="50" stroke-width="10" xlink:href="#2lbzq"/></g><g filter="url(#2lbzr)" opacity=".15"><use fill="#fff" fill-opacity="0" stroke="#000" stroke-linecap="round" stroke-miterlimit="50" stroke-width="10" xlink:href="#2lbzs"/></g><g filter="url(#2lbzt)" opacity=".15"><use fill="#fff" fill-opacity="0" stroke="#000" stroke-miterlimit="50" stroke-width="10" xlink:href="#2lbzu"/></g><g filter="url(#2lbzv)" opacity=".15"><use fill="#fff" fill-opacity="0" stroke="#000" stroke-miterlimit="50" stroke-width="10" xlink:href="#2lbzw"/></g><g filter="url(#2lbzx)" opacity=".15"><use fill="#fff" fill-opacity="0" stroke="#000" stroke-miterlimit="50" stroke-width="10" xlink:href="#2lbzy"/></g></g><g><g><use fill="#fff" fill-opacity="0" stroke="#fff" stroke-linecap="round" stroke-miterlimit="50" stroke-width="10" xlink:href="#2lbzz"/></g><g><use fill="#fff" fill-opacity="0" stroke="#fff" stroke-linecap="round" stroke-miterlimit="50" stroke-width="10" xlink:href="#2lbzA"/></g><g><use fill="#fff" fill-opacity="0" stroke="#fff" stroke-linecap="round" stroke-miterlimit="50" stroke-width="10" xlink:href="#2lbzB"/></g><g><use fill="#fff" fill-opacity="0" stroke="#fff" stroke-linecap="round" stroke-miterlimit="50" stroke-width="10" xlink:href="#2lbzC"/></g><g><use fill="#fff" fill-opacity="0" stroke="#fff" stroke-linecap="round" stroke-miterlimit="50" stroke-width="10" xlink:href="#2lbzD"/></g><g><use fill="#fff" fill-opacity="0" stroke="#fff" stroke-linecap="round" stroke-miterlimit="50" stroke-width="10" xlink:href="#2lbzE"/></g><g><use fill="#fff" fill-opacity="0" stroke="#000" stroke-miterlimit="50" stroke-width="10" xlink:href="#2lbzF"/></g><g><use fill="#fff" fill-opacity="0" stroke="#000" stroke-miterlimit="50" stroke-width="10" xlink:href="#2lbzG"/></g><g><use fill="#fff" fill-opacity="0" stroke="#000" stroke-miterlimit="50" stroke-width="10" xlink:href="#2lbzH"/></g></g><g opacity=".05"><use xlink:href="#2lbzI"/></g><g opacity=".05"><use xlink:href="#2lbzJ"/></g><g><use fill="#fff" xlink:href="#2lbzK"/></g><g><use fill="#fff" xlink:href="#2lbzL"/></g></g></g></svg>