<svg xmlns="http://www.w3.org/2000/svg" xmlns:xlink="http://www.w3.org/1999/xlink" width="7" height="7" viewBox="0 0 7 7"><defs><path id="qkgma" d="M1759.42 797c-.3.31-.76.31-1.07 0l-1.6-1.6a.74.74 0 0 1 0-1.07c.3-.3.76-.3 1.06 0l1.61 1.6c.3.31.3.77 0 1.08zm-2.98 2.99c-.3.3-.77.3-1.07 0l-1.61-1.6a.74.74 0 0 1 0-1.08c.3-.3.76-.3 1.07 0l1.6 1.61c.31.3.31.76 0 1.07zm2.06-.84c-.3.3-.76.3-1.07 0l-2.22-2.22a.74.74 0 0 1 0-1.07c.3-.3.77-.3 1.07 0l2.22 2.22c.3.3.3.76 0 1.07z"/><linearGradient id="qkgmb" x1="1744.35" x2="1759.65" y1="784.92" y2="800.22" gradientUnits="userSpaceOnUse"><stop offset="0" stop-color="#38b8f2"/><stop offset="1" stop-color="#843cf6"/></linearGradient></defs><g><g transform="matrix(-1 0 0 1 1751 -794)"><g><use fill="url(#qkgmb)" xlink:href="#qkgma"/></g></g></g></svg>