<svg xmlns="http://www.w3.org/2000/svg" xmlns:xlink="http://www.w3.org/1999/xlink" width="16" height="16" viewBox="0 0 16 16"><defs><path id="x84za" d="M1493.6 791.87a.83.83 0 0 1-.84-.83.83.83 0 1 1 1.67 0c0 .46-.38.83-.84.83zm-3.9 0a.83.83 0 0 1-.83-.83.83.83 0 1 1 1.67 0c0 .46-.38.83-.84.83zm-3.33 0a.83.83 0 0 1-.84-.83c0-.45.38-.82.84-.82.46 0 .83.37.83.82 0 .46-.37.83-.83.83zm9.04-6.1H1484c-.99 0-1.79.81-1.79 1.82v7.05c0 1 .8 1.82 1.8 1.82h1.53v3.07c0 .38.3.69.68.69.19 0 .36-.08.48-.2l3.5-3.56h5.22c1 0 1.8-.82 1.8-1.82v-7.05c0-1-.8-1.82-1.8-1.82z"/><linearGradient id="x84zb" x1="1482.42" x2="1497.21" y1="785.77" y2="800.22" gradientUnits="userSpaceOnUse"><stop offset="0" stop-color="#17ead9"/><stop offset="1" stop-color="#6078ea"/></linearGradient></defs><g><g transform="translate(-1482 -785)"><use fill="url(#x84zb)" xlink:href="#x84za"/></g></g></svg>