<svg xmlns="http://www.w3.org/2000/svg" xmlns:xlink="http://www.w3.org/1999/xlink" width="12" height="14" viewBox="0 0 12 14"><defs><path id="ywbta" d="M1494.31 911.26v-2.34h-11.21v11.76c0 1.01.83 1.84 1.84 1.84h7.53c1.01 0 1.84-.83 1.84-1.84V920a4.66 4.66 0 0 1-6.15-2.9h-2.49v-.91h2.29a4.71 4.71 0 0 1 .02-1.29h-2.3v-.92h2.55c.18-.47.43-.9.74-1.28h-3.3v-.92h4.29a4.66 4.66 0 0 1 4.35-.5z"/><linearGradient id="ywbtb" x1="1483.1" x2="1498.07" y1="908.92" y2="922.52" gradientUnits="userSpaceOnUse"><stop offset="0" stop-color="#ffdea7"/><stop offset="1" stop-color="#ea6362"/></linearGradient></defs><g><g transform="translate(-1483 -909)"><use fill="url(#ywbtb)" xlink:href="#ywbta"/></g></g></svg>