<svg xmlns="http://www.w3.org/2000/svg" xmlns:xlink="http://www.w3.org/1999/xlink" width="19" height="16" viewBox="0 0 19 16"><defs><path id="zr3pa" d="M1753.95 725.68a.4.4 0 0 1 .09-.43l2.83-2.8a.41.41 0 0 1 .58 0l2.84 2.8a.4.4 0 0 1-.3.67h-1.22V737a.4.4 0 0 1-.4.4h-2.41a.4.4 0 0 1-.4-.4v-11.07h-1.24a.4.4 0 0 1-.37-.24zm-5.59 3.55a.39.39 0 0 1 .08-.43l2.84-2.79a.41.41 0 0 1 .57 0l2.84 2.8c.11.1.15.28.09.42a.4.4 0 0 1-.38.25h-1.23v7.5a.4.4 0 0 1-.4.4h-2.41a.4.4 0 0 1-.4-.4v-7.5h-1.23c-.17 0-.31-.1-.37-.25zm-5.6 4.74a.39.39 0 0 1 .08-.43l2.84-2.79a.42.42 0 0 1 .29-.11c.1 0 .21.04.29.11l2.84 2.8a.4.4 0 0 1 .08.42.4.4 0 0 1-.37.24h-1.23v2.77a.4.4 0 0 1-.4.4h-2.41a.4.4 0 0 1-.4-.4v-2.76h-1.24a.4.4 0 0 1-.37-.25z"/><linearGradient id="zr3pb" x1="1742.73" x2="1760.4" y1="722.34" y2="737.38" gradientUnits="userSpaceOnUse"><stop offset="0" stop-color="#45e0a7"/><stop offset="1" stop-color="#d5e969"/></linearGradient></defs><g><g transform="translate(-1742 -722)"><use fill="url(#zr3pb)" xlink:href="#zr3pa"/></g></g></svg>