<svg xmlns="http://www.w3.org/2000/svg" xmlns:xlink="http://www.w3.org/1999/xlink" width="70" height="23" viewBox="0 0 70 23"><defs><path id="e9ina" d="M1058.72 4994h.63c2.15.05 4.27.91 5.8 2.45-.56.58-1.14 1.13-1.69 1.7a6.3 6.3 0 0 0-7.87-.67 6.53 6.53 0 0 0-1.36 9.53 6.28 6.28 0 0 0 4.58 2.26c1.64.09 3.35-.41 4.55-1.56a4.97 4.97 0 0 0 1.5-3.24h-5.83v-2.41h8.2c.42 2.59-.2 5.5-2.16 7.36a8.01 8.01 0 0 1-4.99 2.24 9.02 9.02 0 0 1-9.43-5.8 8.65 8.65 0 0 1 3.17-10.14 9.2 9.2 0 0 1 4.9-1.72z"/><path id="e9inb" d="M1105.74 4994.61h2.51v16.74c-.83 0-1.68.02-2.5 0v-16.74z"/><path id="e9inc" d="M1073.16 5002.64c-.63.17-1.22.53-1.64 1.05a3.72 3.72 0 0 0 .19 4.84 3.12 3.12 0 0 0 4.97-.74 3.7 3.7 0 0 0-.64-4.4c-.76-.71-1.87-1-2.88-.75zm-.35-2.23a5.9 5.9 0 0 1 4.5.97 5.78 5.78 0 0 1 1.08 8.22 5.73 5.73 0 0 1-4.82 2.1 5.7 5.7 0 0 1-4.27-2.3 5.86 5.86 0 0 1-.77-5.32 5.56 5.56 0 0 1 4.28-3.67z"/><path id="e9ind" d="M1085.59 5002.64a3.2 3.2 0 0 0-1.65 1.03 3.71 3.71 0 0 0 .13 4.8 3.14 3.14 0 0 0 5.05-.69c.76-1.4.54-3.32-.66-4.41a3.15 3.15 0 0 0-2.87-.73zm-.36-2.23c1.78-.34 3.71.16 5.03 1.4a5.82 5.82 0 0 1 .56 7.79 5.72 5.72 0 0 1-4.7 2.1 5.66 5.66 0 0 1-4.4-2.3 5.92 5.92 0 0 1-.73-5.43 5.57 5.57 0 0 1 4.24-3.56z"/><path id="e9ine" d="M1098.2 5002.6c-.71.11-1.38.51-1.84 1.06a3.74 3.74 0 0 0 .02 4.7 3.07 3.07 0 0 0 2.63 1.08c.93-.09 1.79-.68 2.24-1.49a3.96 3.96 0 0 0-.4-4.43 2.89 2.89 0 0 0-2.64-.92zm-2.42-1.5a4.8 4.8 0 0 1 4.6-.36c.45.2.83.54 1.2.88v-.97l2.37.01V5011c-.01 1.56-.41 3.22-1.54 4.35a5.59 5.59 0 0 1-4.81 1.39 5.45 5.45 0 0 1-4.1-3.27c.7-.34 1.43-.61 2.16-.93a3.22 3.22 0 0 0 2.29 1.97c1.04.19 2.25-.07 2.93-.94.73-.89.73-2.11.7-3.2-.55.53-1.17 1-1.92 1.17a5.15 5.15 0 0 1-4.68-1.2 5.74 5.74 0 0 1 .8-9.24z"/><path id="e9inf" d="M1112.52 5003.86c-.4.57-.56 1.28-.55 1.97 1.7-.7 3.4-1.4 5.1-2.12-.28-.66-.96-1.06-1.65-1.16a3 3 0 0 0-2.9 1.31zm-1.25-2.17a5.3 5.3 0 0 1 5.38-1.07c1.71.65 2.8 2.28 3.35 3.96l-7.62 3.15c.35.67.9 1.28 1.62 1.52 1.02.37 2.24.24 3.1-.44a5 5 0 0 0 .86-.93l1.94 1.3a5.65 5.65 0 0 1-4.1 2.48 5.64 5.64 0 0 1-4.97-1.91 6.01 6.01 0 0 1 .44-8.06z"/></defs><g><g transform="translate(-1050 -4994)"><g><use fill="#3780ff" xlink:href="#e9ina"/></g><g><use fill="#38b137" xlink:href="#e9inb"/></g><g><use fill="#fa3913" xlink:href="#e9inc"/></g><g><use fill="#fcbd06" xlink:href="#e9ind"/></g><g><use fill="#3780ff" xlink:href="#e9ine"/></g><g><use fill="#fa3913" xlink:href="#e9inf"/></g></g></g></svg>