<svg xmlns="http://www.w3.org/2000/svg" xmlns:xlink="http://www.w3.org/1999/xlink" width="123" height="32" viewBox="0 0 123 32"><defs><path id="aa7ua" d="M508.25 5010.68h.02-.02m25.88 1.64l-.02-.15v-.09a1.22 1.22 0 0 0-.6-.87 1.7 1.7 0 0 0-.36-.12l-.09-.02c.14-.6-.03-1.07-.15-1.28l.03-.03c.15-.15.27-.29.39-.43l.02-.02c.09-.13.14-.25.18-.37.02-.1.05-.19.05-.27v-.24a1.83 1.83 0 0 0-.17-.7 1.78 1.78 0 0 0-.26-.39 1.53 1.53 0 0 0-.41-.33c-.01 0-.03 0-.04-.02a6.13 6.13 0 0 0-1.52-1.55l-.31-.23a2.16 2.16 0 0 0-.32-.2 3.06 3.06 0 0 1-.26-.18l-.07-.06-.02-.04v-.17-.57l.12-1.69v-.67a4.96 4.96 0 0 0-.12-.92c0-.06-.03-.12-.05-.19a.43.43 0 0 0-.03-.1l-.05-.12-.04-.08c-.03-.06-.05-.13-.09-.19l-.01-.01-.01-.04-.02-.02a1.85 1.85 0 0 0-.2-.3 4.64 4.64 0 0 0-.63-1.53c-.07-.1-.14-.2-.22-.28l.03-.02c.04-.04.91-.97 1.61-2.18 1.29-2.26.86-3.64.28-4.4l-.02-.02v-.02a3.6 3.6 0 0 0-2.28-1.14c-1.96-.25-4.19.73-4.78 1.01l-1.07-1.18c-.1-.1-.2-.2-.31-.28a3.43 3.43 0 0 0-.36-.21 2.84 2.84 0 0 0-.83-.23c-.59-.08-1.26 0-1.99.19-1.08.28-2.3.83-3.57 1.6-1.27.77-2.6 1.76-3.88 2.95a23.33 23.33 0 0 0-3.83 4.42 13.1 13.1 0 0 0-1.15 2.1 7.22 7.22 0 0 0-.55 1.9c-.05.43-.05.83.04 1.2.04.16.09.31.16.46.1.2.2.37.34.52l1.11 1.17.13.13h-.01l-.04.09c-.03.03-.04.07-.06.1l-.04.07-.05.12-.04.07-.05.11-.02.08-.04.11-.03.08a1.6 1.6 0 0 0-.03.12l-.02.04v.04l-.05.13v.07l-.02.05-.01.08-.02.07c0 .05 0 .1-.02.17l-.01.05v.01l-.02.1V5008.45c0 .03 0 .06.02.1v.13l.02.09.01.03.02.05v.03l.02.1.01.03c.02.02.02.05.02.06v.02c0 .02 0 .02.02.03l.01.02v.04l.02.03v.02l.02.07.03.1v-.02.04l.03.08c.02.02.03.05.04.1l.01.01.03.06.01.03.01.04.03.05.01.02c.01.02.01.04.03.05v.04l.05.09v.01l.03.04c.02.01.02.04.03.05a.2.2 0 0 1 .04.08l.03.05c.02.02.03.03.03.05l.04.06v.01c0 .01 0 .03.02.04l.04.05.05.08.02.03.04.05.04.07.04.05a.1.1 0 0 0 .05.05l.03.04h.02c.02.03.03.06.06.08l.02.03.04.04.08.07.02.03.04.04h.01l.09.1h.01l.04.05.11.1.02.01.02.01.02.02.1.07.01.01.03.02.02.02.08.06.02.02.03.02.01.01.09.06c.01 0 .02.02.05.02l.02.01.02.02h.01l.12.07.03.01.15.08h.01l.03.01.07.04.04.01c.01.02.02.02.05.03h.01l.08.02a.6.6 0 0 0 .1.04l.03.01.04.02h.01l.13.03h.01c.06.03.13.04.19.05h.01l.16.04h.05l.15.03h.05l.1.01.02.04c.08.24.17.48.27.7 1.48 4.13 5.56 7.33 10.22 7.92 4.66.58 9.65-2.55 11.67-6.77l.24-.48c.2-.21.36-.43.46-.65.16-.14.2-.42.19-.66"/><path id="aa7ub" d="M530.17 4991.54a2.45 2.45 0 0 0-.77-.58.61.61 0 0 0-.17-.05l-.07-.06c-.25-.1-.51-.16-.79-.2a8.1 8.1 0 0 0-3.76.69l-.15.06-.23.1-.38.18-.06.02-.24-.27-.11-.13-.1-.12-.04-.05-.91-1.06-.08-.09-.1-.11-.27.06-.3.06a2.31 2.31 0 0 0-.59-.16c-.44-.06-1.02 0-1.67.16-.64.17-1.38.46-2.15.85a24.92 24.92 0 0 0-7.9 6.77 14.92 14.92 0 0 0-1.82 3.05c-.26.62-.42 1.2-.48 1.69-.05.35-.04.67.02.92l.08.23c.06.15.13.28.23.4l1.01 1.07.12.11a.38.38 0 0 1 .1-.1l.02-.02.04-.04c.02-.04.06-.06.09-.1a.22.22 0 0 1 .06-.05l.06-.05.03-.03c.02-.01.03-.04.06-.05l.08-.07.05-.04h.02l.1-.08a.22.22 0 0 0 .06-.05l.1-.08.06-.03a.5.5 0 0 1 .11-.07l.07-.04c.03-.02.07-.03.1-.06l.07-.04h.03c.03-.02.06-.05.1-.06l.05-.03a.6.6 0 0 1 .08-.03l.08-.04.02-.01.19-.08.06-.03c.03 0 .04 0 .06-.02l.03-.01.04-.02c.02 0 .05 0 .08-.02h.03l.1-.03c.02 0 .06 0 .09-.02.03-.01.07-.01.1-.03l.06-.01.05-.01c.03-.02.07-.02.11-.02h.1l.07-.02h.1l.43.01h.02c.15.01.33.04.5.08l.13.02s0-.03.02-.05l.29-.5c.56-.95 1.16-1.8 1.77-2.53a16.6 16.6 0 0 1 3.2-2.93l.53-.35c.23-.15.46-.28.67-.4a8.6 8.6 0 0 1 1.2-.6l.2-.09.25-.1-.2-.01h-.25l-.2.01-.4.04-.14.02a6.22 6.22 0 0 1 2.38-.65c.17-.02.31-.02.45-.02l.39.02c.41.02.66.08.66.08-.06-.08-.14-.15-.21-.21a2.09 2.09 0 0 0-.46-.25l-.17-.07-.1-.02.2-.03.22-.02c.58-.05 1.1 0 1.5.06.45.09.74.2.74.2a1.18 1.18 0 0 0-.27-.34 2.88 2.88 0 0 0-.24-.18l.45.13c.37.11.68.25.93.37l.23.11c.02.01.03.03.05.03.22.12.35.21.35.21a.96.96 0 0 0-.22-.38l-.07-.09h.01l.05.02a4.51 4.51 0 0 1 .49.22h.02l.08.04.19.12.18.11.1.06c.06.05.14.1.2.17.08.06.14.12.2.19l.04.04.14.15c.08.1.16.21.23.33.09.14.15.3.21.47 0 0 0 .02.02.02l.2-.21c.72-.87 2.89-3.65 1.58-5.35"/><path id="aa7uc" d="M513.29 5009.56c0-.02 0-.03-.02-.05a5.61 5.61 0 0 1-.08-.67v-.05c-.04.02-.08.07-.13.13-.01.02-.04.05-.05.09-.11.2-.21.5-.21.5l.02-.3v-.03l.04-.31v-.04a2.9 2.9 0 0 1 .07-.4v-.01c0-.01 0-.03.02-.04l.01-.06.05-.26.04-.22v-.02l.01-.03v-.02l.01-.05c0-.01 0-.03.02-.04v-.06l.02-.05.01-.06c0-.02 0-.03.02-.04v-.02c0-.03.02-.04.02-.05v-.04l-.02.02-.07.05-.02.03a.33.33 0 0 0-.07.07v.01l-.08.12-.02.01v.02l-.05.08v.02c0 .04-.03.08-.05.12l-.1.28c0 .03 0 .07-.02.08l-.03.11v.01c0-.05 0-.07.02-.1v-.2c0-.06.02-.12.03-.17 0-.01 0-.04.02-.05v-.08l.02-.07v-.04l.01-.09v-.08c0-.02 0-.03.02-.04a.44.44 0 0 0 .02-.12v-.02c.01-.02.01-.06.03-.08v-.02c0-.06.03-.12.05-.18v-.03l.01-.04c.02-.1.06-.2.09-.28v-.02l.09-.23v-.02l.03-.1.07-.15s0-.03.03-.08l.03-.05.04-.1v-.02l.22-.38c.01-.02.01-.04.03-.05v-.04l.08-.13.1-.17.16-.26a.13.13 0 0 1 .03-.07l-.17-.1c-.13-.08-.3-.18-.52-.28l-.21-.1-.29-.11c-.02-.02-.05-.02-.07-.03l-.25-.07a4.1 4.1 0 0 1-.18-.04l-.15-.03h-.08c-.02 0-.05 0-.07-.02l-.2-.01h-.1c-.15 0-.29 0-.43.03h-.02c-.25.04-.5.1-.73.2l-.24.09-.06.03-.08.03c-.22.12-.44.27-.64.43-.18.13-.33.3-.47.46l-.12.15c-.05.06-.08.12-.12.19-.08.1-.15.23-.21.36l-.07.14v.02c-.13.3-.23.61-.27.95l-.03.2v.03l-.01.16v.22l.01.15v.06l.02.12v.07l.02.1.01.08c.02.03.02.06.03.1l.02.07v.01l.02.03v.05c.02.02.02.05.03.07.02.03.02.07.03.1l.02.08.02.02c0 .03 0 .04.02.07l.04.08.04.08.02.04.03.03.03.08.05.09.04.06.05.09.04.06.06.09.04.05.06.08.04.05.08.09.03.05.08.09.04.04.08.08.04.04.09.09.04.02.1.09.03.02.1.08.03.02.11.08.03.01.11.08h.03l.12.08.03.02.12.06.03.01.13.06.02.02c.05.02.1.03.13.06h.02l.15.05h.01l.08.02c.02.02.05.02.08.03h.02l.16.04.16.02c.18.03.35.04.53.05h.12l.18-.01.25-.03c.08 0 .15-.02.21-.03.12-.03.23-.05.33-.1.33-.08.6-.2.78-.34 0 0-.12-.5-.2-1-.03-.02-.04-.07-.05-.12m20.17 2.43s.02-.19-.08-.36v-.03l-.02-.01-.04-.04a.54.54 0 0 0-.09-.07c0-.02-.03-.03-.06-.04-.06-.03-.12-.05-.21-.06-.06-.02-.13-.02-.2-.02h-.1v.03l.01.05.01.02.04.15-.01.04v.01c-.04.1-.14.3-.37.54l-.12.14c-.63.65-1.98 1.56-4.84 2.08-.97.13-1.87.15-2.62.05-1.13-.14-1.97-.5-2.37-1-.04-.03-.06-.08-.1-.12l-.06-.1-.03-.04c-.16-.3-.24-.62-.24-.93 0-.4.13-.75.33-1.03a1.2 1.2 0 0 1 1.04-.52h.11l.39.06.05.01c.54.06 1.4.15 2.42.09a10.6 10.6 0 0 0 6.6-2.73v-.01a.97.97 0 0 0-.23-.71l-.13-.12c-.02-.02-.06-.03-.08-.06l-.1-.05-.1-.07v-.02l-.05-.07c-.58-.88-1.38-1.39-1.7-1.63l-.26-.16c-.69-.42-.79-.56-.73-1.7l.12-1.69v-.64-.17c0-.03 0-.05-.02-.08 0-.06 0-.12-.02-.18l-.01-.1-.03-.1-.02-.08a.36.36 0 0 1-.03-.11l-.01-.04-.01-.04-.02-.05a.18.18 0 0 1-.02-.07v-.01l-.01-.03-.02-.02-.06-.14-.01-.04-.08-.12-.01-.02h-.01l-.07-.08-.02-.04-.08-.09v-.1l-.03-.17-.02-.05v-.02-.06l-.06-.15-.01-.05-.04-.11-.02-.06a.44.44 0 0 0-.05-.12l-.04-.07-.05-.11-.04-.08-.06-.11-.04-.08a1.1 1.1 0 0 1-.08-.12c0-.03-.02-.04-.03-.06l-.04-.05-.1-.12-.03-.01-.13-.14-.02-.01a.27.27 0 0 1-.06-.05h-.01l-.06-.04-.02-.01-.11-.06-.06-.03-.43-.13-.04-.02-.47-.1-.18-.02-.09-.01h-.03l-.4-.03h-.02c-.17 0-.35.01-.51.05a.87.87 0 0 1 .25-.2l.26-.12c-.07 0-.15 0-.22.02l-.08.01c-.01 0-.04 0-.05.02h-.05c-.39.1-.76.23-.98.32l-.07.04h-.01l-.07.01c.15-.29.38-.44.55-.51l.1-.04.02-.01c.02-.01.05-.01.06-.03l.06-.01h-.2a3 3 0 0 0-1.14.38c-.22.12-.42.26-.6.4l-.14.02a17.26 17.26 0 0 0-2.22.61l-.5.2-.36.14c-.87.39-1.73.9-2.45 1.59l-.07.07-.2.2-.07.07-.08.1a5.1 5.1 0 0 0-.64.88l-.02.02a5.22 5.22 0 0 0-.59 1.44c0 .05-.02.08-.03.13l-.02.03c-.05.19-.08.39-.1.59l-.02.12c-.01.1-.03.2-.03.31v1.02l.03.36.01.15v.04l.01.08.05.4.02.12.06.35s-.03-.15-.01-.38l.01-.16c.01-.13.04-.28.09-.41l.04-.12.02-.05.1-.2c.01.05.01.1.03.14v.66c0 .43.05.94.13 1.38 0 0 .02-.79.15-.89 0 0 .24 1.48.46 2.03.02.07.06.12.08.16v-.15l-.02-.81v-.09c.16.34.35.68.56 1.04l.18.3c-.4.35-.78.86-1.06 1.46l-.12.3-.06.18-.02.05-.03.12-.02.06-.03.13-.02.06-.03.19a.96.96 0 0 0-.03.19l-.01.06-.01.14c0 .02 0 .05-.02.07V5012.88l.03.2.01.06c0 .05.01.09.03.14v.07c.02.04.02.09.03.13l.02.07.02.13.03.09.03.12.03.08.04.12c0 .03 0 .05.02.08l.05.13.03.07.18.4.04.07.08.15.05.08.07.12.05.08c.03.03.05.08.1.12l.05.09.1.12.05.1c.04.03.07.08.1.12l.07.07.12.14.07.06.18.2-.08-.15a.1.1 0 0 1-.03-.06l-.04-.08a2.1 2.1 0 0 1-.21-.99l.11.16.17.32.06.13.32.56c.15.24.3.46.47.67 0 0-.19-.4-.25-.66-.02-.07-.03-.14-.02-.17.02 0 .03.03.06.05l.05.05.1.15.03.02.07.09.08.11c.27.34.63.79.88 1.03l.21.16-.36-.65c.83.67 4.26 1.54 7.64.57a8.84 8.84 0 0 0 1.93-.78l.04-.03.48-.29.37-.23.6-.45a7 7 0 0 0 1.18-1.25l.01-.02.13-.17v-.01l.05-.07.17-.25.04-.06a.84.84 0 0 1 .09-.14l.06-.1c.02-.03.05-.07.06-.11l.12-.2.03-.08.08-.15.04-.07v-.03l.1-.18v-.02l.26-.28.02-.04c.08-.24.13-.43.13-.6"/><path id="aa7ud" d="M521.62 4991.08l-.04-.5.25-.56.1-.03a2.4 2.4 0 0 0-.6-.16 4.7 4.7 0 0 0-1.7.16c-.66.17-1.4.46-2.2.85a25.17 25.17 0 0 0-8.05 6.77 14.86 14.86 0 0 0-1.86 3.05c-.26.62-.43 1.2-.5 1.69-.04.35-.03.67.03.92l.08.23c.06.15.14.28.24.4l1.03 1.07.12.11a.39.39 0 0 1 .11-.1l.01-.02.04-.04.09-.1a.22.22 0 0 1 .06-.05l.07-.05.02-.03.07-.05.09-.07c0-.02.03-.03.05-.04l.11-.08a.22.22 0 0 0 .06-.05l.1-.08c.03 0 .04-.02.07-.03a.52.52 0 0 1 .11-.07l.07-.04.11-.06.07-.04h.02c.24-.68.61-1.43 1.1-2.19a24.95 24.95 0 0 1 6.65-6.83c.58-.4 1.15-.77 1.71-1.09.06-.02.1-.06.17-.09l.45-.24c.31-.16.63-.31.94-.44l-.16-.18-.02-.02-.2-.22-1.05-1.27.01-.9v-.02l.74-.23 1.43.72"/><path id="aa7ue" d="M513.36 5009.43c-.04.02-.08.07-.13.13-.01.03-.04.05-.05.09-.11.22-.21.52-.21.52l.02-.3v-.04l.04-.32v-.04c.01-.12.04-.24.06-.35 0-.02 0-.03.02-.05v-.02-.03l.02-.07.05-.26.04-.22v-.02l.01-.03v-.03l.01-.05s0-.02.02-.03v-.07l.02-.05.01-.06c0-.01 0-.03.02-.04v-.03l.02-.05v-.03l-.02.02-.07.05-.02.03-.06.07-.02.02-.07.11-.01.01c0 .02-.02.02-.02.03l-.03.07v.03l-.05.11c-.04.1-.08.2-.1.3-.01.02-.01.06-.03.07l-.02.12.01-.1.01-.2c0-.06.02-.12.03-.17l.01-.05.01-.08.02-.08v-.03-.18c0-.01 0-.03.02-.04a.46.46 0 0 0 .02-.13v-.01c.02-.02.02-.06.03-.09v-.01l.05-.2v-.02l.01-.03.09-.3c.02-.09.06-.17.09-.25v-.01c0-.04.02-.07.03-.1l.07-.16.03-.09c.02 0 .02-.03.03-.05a.62.62 0 0 0 .03-.08l.02-.03c-.02-.01-.04-.01-.05-.03h-.04c-.11-.06-.24-.11-.36-.15h-.03a1.73 1.73 0 0 0-.24-.05l-.15-.01h-.13l-.18.01-.07.01-.08.02-.04.01-.06.01-.13.04-.05.01-.16.07-.06.02-.08.04-.02.01-.07.05-.08.05-.07.05-.05.04-.13.12-.06.06-.1.11-.01.02-.05.06-.04.04-.17.29-.03.04-.06.15-.03.06c0 .05-.03.1-.04.17v.05l-.03.11-.01.07-.01.06v.05c0 .06-.02.13 0 .2v.17l.02.08c.01.1.04.19.06.29l.08.2a2 2 0 0 0 1.64 1.24l.1.02h.16l.15-.02.09-.01.2-.04h.02l.09-.02.25-.1v-.02a.2.2 0 0 1 .07-.02 5.83 5.83 0 0 1-.09-.67c.07-.03.07-.04.07-.06m20.1 3.25s.02-.2-.08-.37l-.02-.03-.04-.05a.54.54 0 0 0-.15-.11l-.22-.07H532.65v.02c0 .01.02.02.02.05l.01.02.04.16-.01.03v.02c-.04.09-.14.29-.36.54l-.13.14c-.62.66-1.96 1.6-4.8 2.11-.95.14-1.85.16-2.6.05-1.11-.14-1.94-.5-2.34-1l-.1-.13-.06-.1-.03-.04c-.16-.3-.23-.63-.23-.95 0-.4.12-.76.32-1.04.16-.23.37-.4.63-.49a1.04 1.04 0 0 1 .51-.03c.09 0 .23.02.39.05l.05.01c.53.06 1.38.15 2.4.09 1.86-.12 4.3-.71 6.53-2.77v-.01a1 1 0 0 0-.22-.73 1.13 1.13 0 0 0-.13-.11l-.08-.07c-.04 0-.06-.03-.09-.05l-.11-.07v-.02l-.05-.07c-.57-.9-1.37-1.41-1.7-1.65-.14-.12-.24-.17-.24-.17-.68-.43-.78-.57-.72-1.73l.11-1.71.01-.28v-.37-.18c0-.02 0-.05-.02-.08l-.03-.19v-.08c0-.04-.02-.07-.03-.1-.02-.03-.02-.07-.03-.1l-.02-.11-.01-.04-.02-.04-.01-.05-.02-.07v-.02l-.02-.02v-.03l-.07-.14-.01-.03-.08-.13-.01-.01-.01-.02-.07-.07-.02-.04-.07-.09-.1-.1a.5.5 0 0 0-.12-.07h-.03l-.08-.05h-.04l-.06-.03c-.01 0-.02-.02-.05-.02l-.06-.01h-.27l-.04.01-.04.02c-.02 0-.05 0-.08.02h-.03l-.21.08-.02.01a.6.6 0 0 1-.1.04l-.03.01-.07.04-.04.02-.08.04-.03.03-.08.05-.02.01-.09.06-.01.02c-.04.02-.06.05-.1.06l-.19.13-.16.11-.02.02-.17.1-.02.01-.16.1-.03.01-.17.1h-.03c-.06.03-.1.06-.17.08l-.02.01-.2.07-.2.04a3.2 3.2 0 0 1-.92-.02l-.19-.03-.06-.02-.5-.11-.2-.05-.36-.08-.06-.01-.05-.01-.07-.02-.08-.01h-.02l-.06-.01a.62.62 0 0 0-.17-.03l-.05-.01-.1-.01c-.03 0-.04 0-.07-.02h-.89l-.12.02-.07.01-.11.02-.06.02a.36.36 0 0 1-.12.02l-.06.03-.12.04c-.03 0-.04 0-.05.02a3.98 3.98 0 0 0-1.67 1.63c-.1.16-.17.34-.25.52l-.06.15c-.02.1-.06.18-.09.27v.02l-.08.32c-.03.12-.04.22-.05.33l-.01.18c-.02.17-.02.32 0 .48v.17c.02.11.03.23.06.34l.02.13.03.11c.07.3.18.56.32.8.51.9 1.36 1.44 1.98 1.73l.74.3-.02.02-.16.04c-.1.02-.2.06-.31.1l-.43.16c-.4.17-.84.41-1.24.74l-.15.13c-.09.07-.16.15-.24.24l-.02.03-.04.03-.08.1-.04.04c-.04.05-.08.1-.1.16l-.1.15c-.24.42-.37.93-.34 1.54v-.03l.02-.04v-.01V5011.69l.02-.07.03-.06v-.01c0-.03 0-.05.02-.08v-.01l.03-.08v-.01a.63.63 0 0 0 .03-.09l.02-.01c0-.03.02-.07.05-.1l.07-.13.04-.05.01-.02.07-.11.08-.09.02-.02c.03-.03.04-.06.07-.07l.02-.02c.03-.03.06-.05.09-.1 0 0-.54 1.25-.3 2.23v-.19l.01-.08.01-.07v-.01l.02-.1v-.02c0-.04 0-.06.02-.1v-.01l.03-.1v-.04l.02-.03.04-.09a.52.52 0 0 1 .06-.11l.01-.03.08-.11s-.03.3-.03.67c0 .07 0 .12.02.18v.11a5.12 5.12 0 0 1 .36 2.2s-.18-.57.07-1.14l.07.15.1.68a4.8 4.8 0 0 0 1.15 2.7s-.34-.44-.29-1.01l.1.2c.15.3.45.82.78 1.2 0 0-.26-.52-.2-.63 0 0 .87 1.1 1.15 1.2l-.36-.6-.01-.01c1.25.94 2.99 1.28 5.13.67.37-.1.74-.24 1.14-.4.24-.11.47-.24.7-.36l.05-.03.48-.3.36-.23a9.34 9.34 0 0 0 1.17-1c.22-.25.42-.49.6-.73v-.01c.06-.07.1-.12.13-.18l.01-.01.04-.07.18-.25c0-.03.02-.04.03-.07a.86.86 0 0 1 .09-.14l.06-.1c.03-.04.05-.07.06-.11l.12-.2.03-.08.08-.15.04-.08v-.03l.1-.19.26-.3.02-.04a.96.96 0 0 0 .16-.53"/><path id="aa7uf" d="M521.61 4991.13l.08.05z"/><path id="aa7ug" d="M532.9 5011.95c0-.01 0-.03-.02-.03l-.01-.05c-.07-.2-.14-.36-.22-.47l-.16-.22.03-.15a1.85 1.85 0 0 0-.14-1.21c0-.04-.02-.07-.03-.1l-.22.16a11.07 11.07 0 0 1-4.58 1.79c-1.15.18-2.36.19-3.62.04h.03s-.76.11-.97.84l.01.01-.06.49c.03.66.32 1.07.66 1.29.36.14.8.24 1.28.3.82.1 1.79.08 2.76-.07 1.3-.18 3.13-.87 4.44-1.76.3-.2.57-.43.8-.64l.01-.02h.02l-.02-.2"/><path id="aa7uh" d="M521.4 5008.34a4.92 4.92 0 0 0-1.66.9c-.06.04-.1.09-.16.12l-.23.24-.03.03-.04.04-.08.1-.04.04-.1.15-.1.15a2.7 2.7 0 0 0-.33 1.52v-.02-.05l.02-.05v-.01l.01-.07.03-.06v-.01l.02-.08v-.01l.03-.08v-.01a.62.62 0 0 0 .04-.09v-.01l.06-.09.07-.14.04-.05.01-.01.08-.11.07-.1.02-.02c.03-.02.04-.05.07-.06l.02-.03.09-.08s-.53 1.23-.3 2.2v-.19l.01-.07c0-.03 0-.05.02-.08v-.01-.11l.03-.1v-.02l.03-.1.01-.04.01-.02.04-.09c.01-.04.04-.08.06-.11l.01-.03.08-.11s-.03.3-.03.67c0 .06 0 .11.02.17v.12c.03-.4.1-.76.2-1.1l.1-.28v-.04l.1-.25c.02-.01.02-.02.03-.05l.11-.24.01-.04.27-.45a1.85 1.85 0 0 0 .14-.2c0-.01 0-.03.02-.04l.02-.04.14-.19.02-.02.15-.18.19-.21.13-.14.05-.05a6.38 6.38 0 0 1 .87-.76l-.16.04a1.9 1.9 0 0 1-.3.11m11.31 5.08a7.67 7.67 0 0 1-2.08 1.34c-.5.23-.99.38-1.42.5-.96.23-1.61.23-1.61.23.52.3 1.17.3 1.62.25.3-.02.52-.08.52-.08-.01.19-.04.36-.06.54-.04.19-.09.35-.15.5v.02c-.07.18-.17.35-.27.5l-.04.05.04-.03c.16-.08.32-.18.48-.29l.36-.23c.2-.14.4-.3.6-.46l.03-.02a6.99 6.99 0 0 0 1.13-1.24l.01-.01.12-.18.02-.01c0-.03.02-.04.03-.06l.18-.26.03-.06a.85.85 0 0 1 .1-.14l.05-.1.07-.11.1-.2.04-.08.08-.15.04-.08v-.02l.1-.2c-.06.02-.08.05-.12.08m-2.58-7.76c-.68-.43-.78-.57-.72-1.72l.11-1.7.01-.28v-.36-.18c0-.02 0-.05-.02-.07l-.03-.2v-.08c0-.04-.02-.06-.03-.1-.02-.03-.02-.07-.03-.1-.1-.14-.21-.27-.35-.38l-.02-.03-.03-.01-.07-.04a1.78 1.78 0 0 0-.73-.28c-.14-.02-.28-.02-.41-.02l-.2.01a4.5 4.5 0 0 0-.53.12c-.07.03-.13.08-.2.12l-.15.12h-.03c-.05.05-.1.08-.16.1l-.02.02-.16.1-.03.02-.17.08-.03.02-.17.07-.03.01-.18.07h-.01l-.2.04a3.22 3.22 0 0 1-.92-.02l-.19-.04h-.06c-.16-.05-.34-.08-.5-.12l-.2-.05-.35-.08-.07-.01a2 2 0 0 0-.28.03h-.03c-.28.03-.56.1-.84.2l-.05.01-.14.05-.17.08a4.68 4.68 0 0 0-1.59 1.14c-.2.22-.37.44-.53.68l-.03.04c-.09.13-.16.27-.22.4l-.08.13v.01l-.18.48-.01.03c-.02.02-.02.05-.03.07l-.06.23c-.03.08-.04.15-.05.24l-.01.05-.03.14-.05.53v.13c.08.29.19.55.32.78a4.4 4.4 0 0 0 1.98 1.72l.74.3h.02l.1-.08.04-.03.12-.07c0-.02.02-.02.03-.03l.11-.07.04-.03.13-.07c0-.02.02-.02.03-.03l.13-.08c.01 0 .02 0 .03-.02l.13-.08c.01 0 .04 0 .05-.02l.12-.08a.1.1 0 0 1 .05-.02l.14-.08.06-.02.14-.07.06-.02.14-.06.07-.04.14-.07a.6.6 0 0 1 .08-.03l.14-.05c.02-.02.06-.03.09-.04l.13-.05.1-.04.14-.05.11-.04c.04-.01.09-.02.13-.05l.12-.04.12-.03.14-.04.12-.04.17-.05.07-.02c.2-.52.8-1.8 1.84-1.95l.3-.02h.08a1.42 1.42 0 0 1-.02-.24c-.04-.56.13-1.02.37-1.04.19 0 .33.27.36.36.07.16.12.38.14.62 0 .21-.02.41-.05.59.02.02.03.05.06.06.23.3.27.7.26 1.01l.28-.03h.13a17.36 17.36 0 0 1 1.2-.08 10.7 10.7 0 0 0-.27-.14"/><path id="aa7ui" d="M528.23 5013l-.29.08c-.1.04-.2.06-.32.09l-.75.14c-.13.01-.27.02-.42.05l-.44.04a7.9 7.9 0 0 1-3.17-.45c.01.65.31 1.07.65 1.29a2.08 2.08 0 0 1-.86-.56 1.43 1.43 0 0 1-.32-1.03c.01-.2.06-.36.12-.5l.04-.08c.07-.17.32-.55.77-.52h.09c.03.02.08.02.14.03l.29.04h.04l.02.01s-.74.1-.94.83l.01.01c.34.2.82.36 1.17.42.67.13 1.33.15 1.92.14.15-.01.3-.01.44-.03l.4-.03c.28-.03.53-.05.75-.1.11 0 .22-.03.32-.04l.29-.05c.18-.05.33-.08.46-.1.25-.07.38-.08.4-.06 0 .03-.13.1-.37.2-.12.06-.27.1-.44.17m-15.04-5.27l-.07.05-.02.03.01-.03.01-.05v-.04l.07.04m-.1.08v.04l-.02.06v.05l-.02.06-.01.04-.02.05v.08l-.05.21c0 .09-.03.18-.05.27v.06c-.02.01-.02.02-.02.04v.01l-.01.05c-.03.11-.05.23-.06.35v.04l-.04.32v.04l-.01-.02c-.02 0-.03-.02-.05-.05l-.03-.04c-.01-.02-.04-.03-.05-.06l-.01-.01-.05-.08-.06-.1-.05-.09c-.04-.05-.06-.11-.1-.19a.78.78 0 0 1-.09-.17l-.04-.1v-.02l-.05-.1-.03-.12-.01.2V5009.06l.04.25.02.08v.02h-.02l-.02-.03-.02-.04-.05-.08-.02-.01a3.7 3.7 0 0 1-.4-.8c-.04-.11-.08-.22-.1-.34-.02.07-.02.13-.02.2v.17c0 .16.03.33.06.5l-.02-.02-.03-.04a2.45 2.45 0 0 1-.24-.36 2.63 2.63 0 0 1-.25-.54v-.02l-.05-.15-.04-.12-.01.3v.02c0 .16.01.32.05.48l.01.06-.02-.02-.02-.01-.02-.03-.15-.2a1.25 1.25 0 0 1-.11-.2h-.01v-.02l-.03-.03c-.06-.1-.11-.22-.16-.35l-.05-.12v-.03l-.04-.14-.01-.03.02-.07.07-.15.02-.04c.05-.1.11-.2.18-.29l.03-.04c.02-.02.04-.03.05-.06l.01-.01.1-.11.07-.07.12-.11.05-.04.07-.05a.26.26 0 0 1 .08-.05.26.26 0 0 1 .07-.05l.03-.01.07-.04c.03 0 .04-.01.06-.03.05-.02.12-.03.17-.06l.05-.01.12-.04.06-.01c.01-.02.03-.02.04-.02h.09c.02-.02.03-.02.06-.02l.18-.01h.28l.25.06h.02l.36.14.02.01h.02l.05.03-.02.02c0 .04-.02.06-.03.09-.02.01-.02.04-.03.05l-.03.09-.07.15c0 .04-.02.06-.03.1v.01l-.1.24v.02l-.08.29-.01.04v.02l-.05.19v.01l-.02.1-.03.13-.01.04v.09l-.01.08v.04l-.02.08v.07c-.02.02-.02.04-.02.05a.75.75 0 0 0-.03.17v.2c-.02.04-.02.06-.02.1l.02-.11c.02-.01.02-.05.03-.08.02-.09.06-.19.1-.29l.05-.11v-.03l.03-.07c0-.02.02-.02.02-.03v-.01l.08-.11.02-.02a.33.33 0 0 1 .06-.07zm11.86 3.21c1.2-.25 2.8-.67 4.2-1.3a8.45 8.45 0 0 0 2.27-1.41l.2-.2c.17-.17.33-.36.47-.56v.01l.1.08.17.1.03.01.12.12a1 1 0 0 1 .22.72 10.38 10.38 0 0 1-6.53 2.76c-1.01.06-1.86-.02-2.4-.09l-.04-.01 1.2-.23m3.58-5.4c-.09-.03-.2.06-.24.21l-.02.16c0 .12.02.2.08.23 0 .03-.02.04-.03.07-.3.39-.86.28-1.06.21a.4.4 0 0 1-.07-.02l.03-.04c.04-.08.03-.18-.03-.28a.73.73 0 0 0-.18-.17c-.16-.1-.33-.1-.42-.03l-.02-.02v-.06c.07-.2.32-.8 1.04-.87.68-.07.86.36.9.54l.02.08"/><path id="aa7uj" d="M532.67 5012.07v-.02.05c-.04.08-.14.28-.37.54l-.12.13c-.62.63-1.97 1.55-4.8 2.05-.97.14-1.85.15-2.61.05-1.12-.14-1.97-.5-2.36-.97a.87.87 0 0 1-.1-.13l-.06-.1-.02-.03c-.17-.3-.24-.62-.24-.93 0-.37.12-.74.32-1.01.17-.23.39-.4.64-.47.12-.04.26-.07.4-.05h.11l.39.06.05.01c.53.07 1.38.15 2.4.09 1.87-.11 4.32-.7 6.55-2.71l-.73 1.09-.21.14c-1.35.9-2.86 1.49-4.49 1.74-1.12.17-2.3.18-3.54.03h-.03a8.66 8.66 0 0 1-.44-.06l-.09-.01c-.45-.04-.68.35-.77.5l-.04.08a1.44 1.44 0 0 0 .2 1.5c.18.2.48.4.86.54.36.14.77.24 1.25.3.8.1 1.74.07 2.7-.08 1.27-.16 3.07-.84 4.35-1.7.3-.2.56-.41.8-.63M526.67 5006.38c-.04-.1-.05-.2-.02-.26.01-.03.03-.04.04-.05.08-.08.25-.06.41.03.07.04.13.1.17.17.06.1.07.2.04.27l-.04.03c-.1.1-.27.08-.42-.02a.57.57 0 0 1-.17-.17m1.7-.28v-.14c.05-.16.16-.26.25-.21.08.03.12.18.08.33v.04c-.06.16-.17.26-.25.2-.05-.03-.09-.12-.09-.22m-.62-1.4l-.02-.22c-.04-.54.13-1 .37-1.01.18-.01.33.25.35.35.08.16.13.37.14.6.01.23-.01.42-.05.58a1.1 1.1 0 0 0-.79-.3"/><path id="aa7uk" d="M528.66 5001.48v-.03a.86.86 0 0 0-.19-.2c-.16-.11-.4-.18-.7-.11 0 0-.38.1-.6.38 0 0 .66-.32 1.35.24.06.05.13.1.2.18.05.06.12.13.18.23 0 0-.02-.34-.2-.64a.19.19 0 0 0-.04-.05m-5.21.69c-.09-.06-.18-.1-.28-.13l-.2-.04-.06-.01c-.33-.03-.6.03-.6.03a1.91 1.91 0 0 0-1.12.76c-.17.24-.29.5-.35.75l-.01.07-.05.19a3.6 3.6 0 0 0-.05.92c.07-.19.16-.35.24-.51.2-.4.42-.72.65-.98.43-.5.88-.77 1.21-.9.36-.14.62-.15.62-.15"/><path id="aa7ul" d="M523.53 5006.4c.22-.07.44-.15.7-.22.04-.24.05-.53.02-.84-.07-.72-.34-1.29-.6-1.25-.28.04-.43.66-.36 1.39.04.37.13.7.24.92"/><path id="aa7um" d="M522.03 4989.8l-.68.16.14 1.29-1.8-.96-.73.24 2.19 2.6h.02l.03-.02.2-.13a3.7 3.7 0 0 1 .38-.24l-.93-1.11 1.49.76.14-.08-.14-1.12.68.83.18-.1h.03l.02-.02.03-.01.07-.04.02-.01.24-.12-1.58-1.92"/><path id="aa7un" d="M521.83 4990.08l.1-.03a2.36 2.36 0 0 0-.6-.17c-.45-.06-1.04 0-1.7.17-.66.17-1.4.46-2.2.86a25.28 25.28 0 0 0-6.69 5.23l2.07 2.56a27.32 27.32 0 0 1 4.45-3.97c.85-.6 1.7-1.12 2.5-1.53l-.36-1.64.02-.92-.02-.01.75-.23 1.46.75-.04-.51.26-.56m0 .03v-.03.03"/><path id="aa7uo" d="M522.88 4992.28l-.49.3-.12-1.15zm-1.93-.4l1.33.8-.5.34zm.6-.38l-.33-.2-.04-.55.23-.6z"/><path id="aa7up" d="M528.15 4990.98h.28a3.3 3.3 0 0 1 .76.1h.06l-.07-.04c-.26-.1-.52-.16-.8-.2a8.33 8.33 0 0 0-3.81.68l-.15.06-.23.1-.4.18-.05.02-.24.12h-.02l-.07.05h-.08l-.01.02-.18.09h-.01l-.04.02h-.01l-.03.02-.26.14-.19.1h-.01l-.14.07-.44.25-.05.03-.04.02-.04.03-.01.01-.3.18c-.03.01-.06.02-.08.05l-.2.12-.03.02-.02.01-.57.38c-.32.21-.62.43-.92.65l-.12.1c-.8.58-1.55 1.23-2.28 1.88-.77.7-1.52 1.42-2.21 2.15a30.2 30.2 0 0 0-1.77 1.93l.14-.13-.2.24a50.5 50.5 0 0 1 3.81-3.67 37.2 37.2 0 0 1 3.8-2.87c.13-.1.27-.17.4-.26l.2-.11c.03-.03.07-.05.1-.06l.22-.13c.07-.04.14-.07.2-.13l.12-.06.26-.15.15-.09.5-.26.05-.03.07-.03.1-.06c.02 0 .03 0 .04-.02l.08-.04.01-.01h.01c.08-.04.15-.08.22-.1l.04-.03.07-.03.25-.12.07-.04h.03c.03-.02.05-.03.08-.03.1-.04.19-.1.3-.13l.24-.11a9.66 9.66 0 0 1 3.42-.88"/><path id="aa7uq" d="M606.1 5000.98c0 .47-.4.86-.88.86v.07-.07a.88.88 0 0 1-.88-.87c0-.48.4-.86.89-.86.48 0 .88.4.87.87zm-30.77 0c0 .47-.4.86-.9.86v.07-.07a.88.88 0 0 1-.88-.87c0-.48.4-.86.9-.86.48 0 .88.4.88.87zm-7.05 4.79v-.05c-.19-.42-.58-.87-1.14-.88-.45 0-.93.26-1.35.72a3.7 3.7 0 0 0-.97 2.65c.05.71.36 1.07.91 1.07h.1c1.33-.1 2.06-1.97 2.45-3.51zm12.17-8.64c-.97.05-2.09 3.73-1.9 7.43.03.52.07 1.14.14 1.73l.03.2.1-.18c.67-1.1 1.24-2.41 1.67-3.81.75-2.45.74-4.6.3-5.18-.08-.13-.2-.19-.32-.19zm-10.1 12.81c-1.18.1-1.73-.73-1.98-1.4l-.07-.19-.06.18c-.35.92-1.27 1.9-2.36 1.98a2 2 0 0 1-1.79-.79l-.05-.06-.05.05c-.63.57-1.24.85-1.83.85h-.02c-.62 0-1.15-.24-1.53-.68a2.61 2.61 0 0 1-.56-1.71c0-1.9.94-5.64.94-7.57 0-.84-.41-1.27-.94-1.27-1.76 0-3.08 4.25-4.85 9.16l-.15.42c-.26.75-.42 1.2-.94 1.2a.46.46 0 0 1-.34-.12c-.27-.29-.23-1.03-.19-1.97l.02-.46.16-3.09c.22-4.34.13-6.4-1.07-6.4-1.03 0-1.84 1.34-2.91 5.01-1.12 3.82-1.7 5.91-1.95 6.68-.18.51-.52.73-1.04.64-.4-.06-.34-.9-.28-1.95l.05-.75c.07-1.52.15-2.86.23-4.04.23-3.66.35-5.67-.34-6.42a1.1 1.1 0 0 0-.85-.33c-.9 0-1.59.86-2.13 2.63-.03.12-.11.31-.25.31-.22 0-.52-.42-.53-.9-.02-.78.36-1.69.96-2.3a2.68 2.68 0 0 1 1.94-.85h.02c1.74.01 2.52 1.07 2.55 3.43.03 1.93-.29 5.29-.46 7.18.28-1.12.6-2.36.8-3 .8-2.76 1.91-6.67 4.23-6.67h.02c.62 0 1.1.19 1.45.56.67.7.96 2.07.89 4.21a86.17 86.17 0 0 1-.27 4.46l-.06.7.2-.67c.12-.43.26-.86.39-1.28 1.41-4.43 2.9-6.58 4.79-6.58h.02c1.3 0 2.05.92 2.05 2.6 0 1.58-.98 5.94-.98 7.38 0 .86.4 1.38 1.09 1.38.45 0 .9-.25 1.35-.73l.02-.03v-.03c-.02-.06-.02-.12-.03-.19-.1-1.2.26-2.38 1-3.3.64-.8 1.5-1.33 2.27-1.4h.2c.72 0 1.1.35 1.3.64l.1.13.03-.18c.14-.87.43-1.06.89-1.1.29-.02.5.04.62.18.1.14.13.36.06.67l-.16.68c-.3 1.31-.7 2.95-.19 3.6.16.2.38.3.68.3 1.05 0 2.1-2.6 2.64-4.14.26-.74.36-.84.86-.84h.03c.21 0 .36.05.45.16.13.16.1.42.07.85-.11 1.95-.16 4.31 1.25 4.31.58 0 1.31-.47 2.05-1.34l.03-.03-.02-.04a8.82 8.82 0 0 1-.42-2.26c-.23-3.93.42-7.37 1.67-8.77a2 2 0 0 1 1.4-.73h.1c1.34 0 1.7 1.46 1.76 2.7.14 2.66-1.25 6.64-3.25 9.24l-.02.03.01.04c.35.9.89 1.33 1.61 1.3.6-.04 1.13-.56 1.43-.84l.05-.05c.12-.12.29-.1.4.02.09.1.13.25.11.4-.06.62-.82 1.5-2.08 1.57-.85.05-1.64-.48-2.24-1.48l-.05-.08-.06.07c-.89.9-1.76 1.36-2.53 1.36h-.02c-1.78-.01-2.35-1.77-2.53-2.82l-.04-.21-.1.2c-.37.74-1.39 2.48-2.67 2.58zm55.25-.76c.45 0 .9-.16 1.23-.44.3-.25.65-.7.66-1.5 0-1.2-.64-2.05-1.58-2.05-.84 0-1.8.98-2.62 2.69l-.02.02.03.09.01.02c.44.53 1.2 1.16 2.3 1.17zm-2.94.6l-.07-.22-.07.22-.24.78c-.63 2.19-.73 3.39-.35 3.9.14.18.34.28.6.28.24 0 .42-.1.56-.27.44-.59.3-2.16-.43-4.69zm-26.34-6.91l-.02.25.15-.21c1.8-2.66 2.73-4.76 2.74-6.22 0-.6-.2-.9-.6-.9-.84 0-1.72 2.26-2.14 5.5-.06.5-.11 1.03-.13 1.58zm29.37 7.36c-.61-.01-1.22-.2-1.77-.56l-.16-.1.05.18c.43 1.59.64 2.85.63 3.74-.03 2.17-1.4 2.4-1.98 2.4h-.02c-1.07 0-1.76-.99-1.75-2.5.01-1.16.63-3.32 1.5-5.26l.01-.02v-.03c-.2-.66-.42-1.22-.58-1.63l-.07-.18-.06.18c-.9 2.63-1.93 3.96-3.07 3.96-.88 0-1.38-.52-1.42-1.44-.02-.39.02-.81.07-1.22.04-.44.08-.9.06-1.33-.01-.2-.04-.82-.64-.82-.7 0-1.27.95-1.94 3.3l-.13.46c-.2.73-.29 1.02-.66 1.02-.5 0-.52-.35-.54-1.15v-.16c-.06-2.27-.13-3.56-.83-3.57-.72 0-1.45 1.37-2.29 4.3-.1.36-.32.55-.63.55h-.08c-.33 0-.4-.27-.4-.98 0-.92.06-2.11.08-3.09v-.37l-.14.34c-1.11 2.57-2.13 3.82-3.32 3.82-1.3 0-1.73-1.62-1.82-2.1l-.04-.2-.1.17c-.5.92-1.46 1.91-2.38 1.91-.9 0-1.39-.56-1.5-1.7a8.54 8.54 0 0 1 0-1.27c.04-.67.06-1.25-.2-1.53a.6.6 0 0 0-.46-.17c-1.2 0-2 2.93-2.22 3.82l-.05.22c-.17.74-.26 1.04-.7 1.04-.27 0-.44-.07-.55-.2-.1-.14-.16-.36-.16-.68l-.05-.76c-.05-.57-.13-1.34-.17-2.32v-.2l-.13.16c-1.96 2.68-4.17 4.28-6.41 4.28-3.15 0-5.48-2.57-5.48-6.28 0-5.25 3.97-8.5 6.92-8.5 1.95 0 3.04 1.35 3.03 2.64-.01 1.24-.87 2.06-1.44 2.06-.2 0-.35-.07-.42-.17-.06-.1-.01-.23.03-.31l.15-.24c.2-.31.4-.63.4-1.25 0-.46-.17-.85-.5-1.13a2 2 0 0 0-1.3-.42h-.01c-2.4 0-5.56 2.75-5.56 7.23 0 3.34 1.87 5.23 4.2 5.23 2.6 0 5.24-3.08 6.48-4.88l.01-.02v-.02c.01-1.12.08-2.24.2-3.35.63-5.93 2.46-6.57 3.23-6.57 1.05 0 1.67.82 1.66 2.16-.02 2.11-1.23 4.57-3.94 7.98l-.02.02v.03c.03.72.09 1.43.18 2.14l.03.27.1-.25c.46-1.1 1.44-2.96 2.88-2.96.73 0 1.26.57 1.4 1.48.08.5.07 1.07.06 1.56-.01.92-.02 1.64.47 1.72l.1.01c.92 0 1.7-1.83 2.31-3.57.35-.98.52-1.33.89-1.33l.14.01c.46.09.64.27.53 1.11l-.01.14c-.23 1.8-.4 3.09.02 3.56.11.14.27.2.46.2 1 0 2.25-3.02 2.74-4.32.3-.79.5-1.02.88-1.05.23-.01.38.02.46.12.09.1.1.27.07.53-.05.26-.1 1.2-.17 2.8l-.01.35.15-.32c.56-1.2 1.48-2.62 2.7-2.62 1.03.01 1.36 1.18 1.46 2.16l.02.26.11-.23c.37-.8 1.18-2.12 2.43-2.12.98 0 1.6.67 1.63 1.79.02.58-.03 1.13-.07 1.6-.07.67-.1 1.14.07 1.34.06.07.14.1.24.1.69 0 1.5-1.5 2.49-4.58v-.02c.03-.13.1-.22.23-.3a.73.73 0 0 1 .38-.13c.21 0 .37.12.41.3l.15.4.6 1.7.05.14.08-.13c.99-1.7 2-2.52 3.08-2.52h.01c.8 0 1.49.33 1.98.94.46.57.7 1.36.7 2.23a2.88 2.88 0 0 1-3.02 2.97z"/></defs><g><g transform="translate(-506 -4989)"><g><g><g><use fill="#664f44" xlink:href="#aa7ua"/></g></g><g><use fill="#132134" xlink:href="#aa7ub"/></g><g><g><use fill="#90694c" xlink:href="#aa7uc"/></g></g><g><use fill="#2f83c1" xlink:href="#aa7ud"/></g><g><g><use fill="#fce9cd" xlink:href="#aa7ue"/></g></g><g><use fill="#4d9ed7" xlink:href="#aa7uf"/></g><g><use fill="#fff" xlink:href="#aa7ug"/></g><g><g><use fill="#f2d2ac" xlink:href="#aa7uh"/></g><g><use fill="#f2d2ac" xlink:href="#aa7ui"/></g></g><g><g><use fill="#664f44" xlink:href="#aa7uj"/></g></g><g><g><use fill="#e9b784" xlink:href="#aa7uk"/></g></g><g><use fill="#664f44" xlink:href="#aa7ul"/></g><g><use fill="#ffd250" xlink:href="#aa7um"/></g><g><g><use fill="#4d9ed7" xlink:href="#aa7un"/></g></g><g><g><use fill="#132134" xlink:href="#aa7uo"/></g></g><g><use fill="#fff" xlink:href="#aa7up"/></g></g><g><g><use fill="#010101" xlink:href="#aa7uq"/></g></g></g></g></svg>