<svg xmlns="http://www.w3.org/2000/svg" xmlns:xlink="http://www.w3.org/1999/xlink" width="20" height="20" viewBox="0 0 20 20"><defs><path id="x2qza" d="M359.66 358.1c-.9-1.57-2.1-2.8-3.64-3.73A9.6 9.6 0 0 0 351 353a9.6 9.6 0 0 0-5.02 1.37 10.22 10.22 0 0 0-4.98 8.88c0 2.23.64 4.24 1.9 6.03a9.81 9.81 0 0 0 4.94 3.7c.23.04.4.01.52-.1.1-.1.17-.23.17-.4a318.87 318.87 0 0 0-.02-1.9l-.3.05a5.38 5.38 0 0 1-1.63-.05 2 2 0 0 1-.87-.4 1.7 1.7 0 0 1-.57-.82l-.13-.3c-.09-.2-.22-.43-.41-.68a1.58 1.58 0 0 0-.57-.51l-.09-.07a.97.97 0 0 1-.28-.35c-.03-.06 0-.1.06-.15.07-.04.2-.06.38-.06l.26.04c.17.04.39.14.64.32.26.18.47.41.64.7.2.36.44.64.72.83.28.2.56.29.85.29.29 0 .53-.03.74-.07.21-.04.4-.11.59-.2.08-.6.29-1.05.64-1.37-.5-.06-.94-.14-1.34-.25-.4-.1-.8-.28-1.22-.52a3.53 3.53 0 0 1-1.73-2.3 6.82 6.82 0 0 1-.27-2c0-1.07.34-1.99 1.03-2.74-.32-.81-.3-1.72.09-2.73.25-.08.62-.02 1.12.18a7.74 7.74 0 0 1 1.64.88 9.03 9.03 0 0 1 5 0l.5-.32c.33-.22.73-.41 1.2-.59.45-.18.8-.23 1.05-.15.39 1.01.42 1.92.1 2.73a3.95 3.95 0 0 1 1.03 2.75 6.9 6.9 0 0 1-.27 2 3.66 3.66 0 0 1-1.74 2.29c-.42.24-.83.42-1.23.52-.39.11-.84.2-1.33.25.45.4.68 1.03.68 1.89v2.82c0 .16.05.29.16.4.1.1.28.13.51.09a9.81 9.81 0 0 0 4.93-3.7c1.27-1.79 1.91-3.8 1.91-6.03 0-1.86-.45-3.57-1.34-5.14z"/></defs><g><g transform="translate(-341 -353)"><use fill="#24292e" xlink:href="#x2qza"/></g></g></svg>