<svg xmlns="http://www.w3.org/2000/svg" xmlns:xlink="http://www.w3.org/1999/xlink" width="66" height="53" viewBox="0 0 66 53"><defs><path id="betva" d="M967.64 2928.4a26.68 26.68 0 0 1-7.67 2.1 13.4 13.4 0 0 0 5.87-7.38 26.7 26.7 0 0 1-8.48 3.24 13.36 13.36 0 0 0-22.77 12.2 37.94 37.94 0 0 1-27.55-13.97 13.36 13.36 0 0 0 4.14 17.84 13.3 13.3 0 0 1-6.06-1.67v.17c0 6.47 4.6 11.87 10.72 13.1a13.3 13.3 0 0 1-6.04.23c1.7 5.3 6.64 9.17 12.49 9.28a26.8 26.8 0 0 1-19.79 5.53c5.91 3.8 12.94 6.01 20.48 6.01 24.58 0 38.03-20.36 38.03-38.02 0-.58-.02-1.16-.04-1.73a27.23 27.23 0 0 0 6.67-6.93z"/></defs><g><g transform="translate(-902 -2922)"><use fill="#2daae1" xlink:href="#betva"/></g></g></svg>