<svg xmlns="http://www.w3.org/2000/svg" xmlns:xlink="http://www.w3.org/1999/xlink" width="100" height="113" viewBox="0 0 100 113"><defs><path id="rtx6a" d="M780.9 3196.3h.04-.04m91.58 5.8c0-.18-.04-.36-.04-.54 0-.13-.04-.22-.04-.31a4.33 4.33 0 0 0-2.12-3.08 6 6 0 0 0-1.24-.45c-.14 0-.23-.04-.31-.04a6.66 6.66 0 0 0-.53-4.55l.08-.09c.53-.54.98-1.03 1.37-1.52l.1-.09c.3-.44.48-.89.61-1.29.1-.36.18-.67.18-.98V3188.3a6.48 6.48 0 0 0-.58-2.45 6.31 6.31 0 0 0-.92-1.39c-.4-.44-.89-.84-1.46-1.16-.05-.04-.1-.04-.14-.09a21.7 21.7 0 0 0-5.4-5.48l-1.1-.8c-.53-.4-.93-.63-1.1-.72-.45-.27-.75-.5-.93-.62-.13-.14-.22-.18-.27-.23 0 0 0-.04-.04-.13-.05-.14-.05-.31-.05-.63 0-.44 0-1.11.05-2l.4-5.98c.04-.85.04-1.65.04-2.37-.04-1.2-.22-2.27-.44-3.25-.05-.23-.13-.45-.18-.67-.04-.18-.09-.27-.13-.36a3.1 3.1 0 0 0-.18-.45c-.04-.09-.04-.17-.13-.26-.09-.23-.18-.45-.31-.67l-.04-.05-.05-.13-.04-.1c-.22-.4-.49-.75-.75-1.06a16.42 16.42 0 0 0-2.22-5.4c-.22-.36-.48-.67-.75-.98l.1-.1c.12-.12 3.22-3.43 5.7-7.71 4.55-7.99 3.05-12.85.97-15.53l-.05-.09-.04-.08c-1.99-2.24-4.73-3.57-8.05-4.02-6.94-.9-14.81 2.59-16.9 3.57l-3.8-4.2a7.6 7.6 0 0 0-2.38-1.73c-.89-.4-1.86-.67-2.92-.8-2.08-.28-4.47 0-7.03.66-3.85.98-8.14 2.95-12.65 5.67a86.8 86.8 0 0 0-13.75 10.44 82.59 82.59 0 0 0-13.54 15.66 46.4 46.4 0 0 0-4.06 7.45 25.55 25.55 0 0 0-1.95 6.7c-.18 1.5-.18 2.94.13 4.23.13.58.31 1.12.58 1.65.3.67.7 1.3 1.2 1.83l3.93 4.15.44.45-.05.04-.13.27c-.09.13-.13.27-.22.35l-.13.27c-.05.14-.13.27-.18.4l-.13.27c-.05.14-.13.27-.18.4-.04.1-.09.18-.09.27l-.13.4c-.04.1-.04.18-.09.27-.04.13-.09.27-.13.45 0 .04-.04.09-.04.13 0 .04-.05.09-.05.13l-.13.45c0 .09-.05.18-.05.27 0 .04-.04.13-.04.18 0 .09-.04.17-.04.26 0 .1-.05.18-.05.27-.04.18-.04.36-.09.58 0 .05 0 .1-.04.18v.04c0 .14-.05.27-.05.36 0 .18-.04.4-.04.58v2.23c0 .1 0 .18.04.27 0 .09 0 .22.05.36v.13c0 .09.04.22.04.31 0 .1.05.18.05.32 0 .04 0 .08.04.13 0 .04.05.13.05.18v.09c0 .09.04.18.08.35 0 .05 0 .05.05.1.04.08.04.17.04.22l.05.09c0 .04 0 .04.04.08l.05.1v.13c0 .04 0 .04.04.09l.04.09c0 .09.05.13.05.22.04.09.04.18.09.36v-.05.05c0 .04 0 .04.04.09.05.13.09.22.09.26.04.1.09.18.13.36l.05.04c.04.1.04.18.08.23l.05.09c0 .04.04.09.04.13 0 .05.05.13.1.18l.04.09c.04.04.04.13.08.18.05.04.05.09.05.13.04.09.09.18.13.31l.05.05c.04.04.04.09.08.13.05.05.05.14.1.18.04.04.08.13.12.27l.05.04c.04.05.04.1.09.14.04.09.09.13.09.17.04.05.08.14.13.23v.04c.04.05.04.1.09.14.04.09.09.13.13.17l.18.27c.04.05.09.1.09.14.04.09.08.13.13.17.04.05.09.14.13.23l.13.18c.05.09.1.13.18.17l.13.14.05.04c.09.1.13.18.22.27l.09.09.13.13.26.27.1.1.13.12.04.05c.09.09.22.18.3.31l.05.05c.05.04.1.04.14.13.13.13.26.22.4.36l.08.04.05.05.09.04.35.27.04.04c.05.05.1.05.1.05l.08.09c.09.09.18.13.27.22l.08.04.1.1.04.04c.09.04.22.13.3.18.05.04.1.09.18.09l.1.04.04.05h.04c.18.08.31.17.44.26l.1.05.52.27h.05l.08.04.27.13c.04 0 .09.05.13.05.05.04.1.04.18.09h.04c.1.04.18.09.27.09h.04c.1.04.18.09.31.13h.05l.09.05c.04 0 .08.04.13.04h.04l.44.13h.05c.22.1.44.14.66.18h.05l.57.14h.18c.17.04.35.09.53.09h.18c.13 0 .22.04.35.04 0 .04.04.09.04.13.31.85.62 1.7.98 2.5 5.21 14.6 19.68 25.92 36.17 28.02 16.5 2.05 34.14-9.01 41.3-23.96.31-.58.58-1.11.85-1.7a8.58 8.58 0 0 0 1.63-2.31c.58-.5.7-1.48.66-2.32"/><path id="rtx6b" d="M858.48 3128.54a8.68 8.68 0 0 0-2.73-2.06 2.16 2.16 0 0 0-.58-.18c-.09-.05-.17-.13-.26-.18-.88-.36-1.81-.58-2.78-.72-4.77-.63-10.24 1.17-13.33 2.42-.18.1-.35.14-.53.23-.27.13-.53.22-.8.36-.44.18-.88.4-1.36.63-.1.04-.14.04-.22.09l-.84-1-.4-.44-.35-.4-.14-.18-3.22-3.77-.26-.31-.36-.4h-.04l-.93.22-1.06.22a8.18 8.18 0 0 0-2.07-.58c-1.59-.23-3.62 0-5.91.58-2.3.58-4.9 1.61-7.64 3-5.52 2.79-11.6 7.05-17.52 12.52a88.21 88.21 0 0 0-10.42 11.44 52.8 52.8 0 0 0-6.44 10.8c-.93 2.2-1.5 4.22-1.72 5.97a8.81 8.81 0 0 0 .08 3.28l.27.8c.22.54.48.99.84 1.4l3.57 3.8.4.4.04-.04c.1-.13.23-.26.36-.35l.04-.05.13-.13c.1-.14.22-.23.31-.36.1-.1.14-.14.22-.18.1-.05.14-.14.22-.18l.1-.1c.08-.04.13-.13.21-.17l.31-.27.18-.13h.04c.14-.1.22-.18.36-.27a.78.78 0 0 0 .22-.18l.35-.27c.09-.05.13-.1.22-.14.13-.09.27-.18.4-.22.09-.05.13-.1.22-.14.13-.09.26-.13.4-.22.08-.04.13-.09.22-.13l.08-.05c.14-.04.23-.13.36-.18.04-.04.13-.04.17-.09.1-.04.18-.09.31-.13l.27-.14.09-.04.66-.27.22-.1.22-.08.09-.05c.04 0 .09-.04.13-.04.09-.05.18-.05.3-.09h.1c.13-.05.22-.05.35-.09.09-.04.22-.04.31-.09.13-.04.26-.04.4-.09.04 0 .09-.04.17-.04.05 0 .14 0 .18-.05.13-.04.26-.04.4-.04.13 0 .22-.05.35-.05.09 0 .18-.04.27-.04h.35c.44 0 .97 0 1.5.04h.09c.53.05 1.14.14 1.76.27.14.05.31.05.44.09.05-.04.05-.13.1-.18.35-.58.65-1.21 1-1.8a68.07 68.07 0 0 1 6.27-8.92 58.76 58.76 0 0 1 11.34-10.36c.63-.45 1.29-.85 1.86-1.26.84-.53 1.63-.98 2.38-1.43.62-.36 1.2-.67 1.77-.94.93-.5 1.77-.9 2.52-1.21l.66-.27c.3-.14.62-.27.88-.36-.22-.05-.48-.05-.7-.05h-.89c-.22 0-.48 0-.7.05l-1.42.13c-.17.05-.3.05-.48.1 1.19-.64 2.38-1.08 3.48-1.44a22.43 22.43 0 0 1 4.95-.9c.57-.04 1.1-.04 1.59-.04.48 0 .97.04 1.37.04 1.45.09 2.33.31 2.33.31-.22-.31-.48-.53-.75-.76-.53-.4-1.1-.67-1.63-.9-.22-.08-.4-.13-.57-.22a1.35 1.35 0 0 0-.36-.09c.27-.04.49-.09.71-.09.27-.04.49-.04.75-.09 2.08-.18 3.93 0 5.3.23 1.63.31 2.65.71 2.65.71a4.18 4.18 0 0 0-.98-1.2 10.2 10.2 0 0 0-.83-.64 25.96 25.96 0 0 1 4.9 1.75l.79.4c.09.05.13.1.18.1.79.45 1.23.76 1.23.76-.13-.5-.4-.94-.75-1.35-.09-.09-.18-.22-.26-.31h.04c.04 0 .09.04.18.04a15.96 15.96 0 0 1 1.72.76c.04 0 .04.05.09.05l.26.14c.22.13.44.22.66.4l.67.4c.13.1.22.14.35.23.22.18.48.36.7.58.27.23.49.45.71.67l.13.14c.18.18.36.36.49.54.3.36.57.76.84 1.16.3.5.53 1.08.75 1.66 0 .05 0 .1.04.1.13-.14.4-.41.7-.77 2.57-3.05 10.25-12.92 5.61-18.93"/><path id="rtx6c" d="M798.72 3192.34c0-.04 0-.08-.04-.17-.13-.76-.27-1.55-.31-2.35v-.18c-.14.05-.27.22-.45.45-.04.08-.13.17-.17.3-.4.76-.76 1.82-.76 1.82.05-.35.09-.7.09-1.06v-.13l.13-1.11v-.13c.05-.45.14-.85.23-1.24 0-.05 0-.1.04-.18v-.05c0-.04 0-.08.04-.13 0-.09.05-.13.05-.22.04-.3.13-.62.18-.93.04-.27.08-.53.13-.75v-.1c0-.04 0-.08.04-.08v-.09c0-.04.05-.13.05-.18 0-.04 0-.08.04-.13 0-.09.05-.18.05-.22 0-.04.04-.13.04-.18 0-.08.05-.17.05-.22 0-.04 0-.09.04-.13 0-.04 0-.09.04-.09 0-.09.05-.13.05-.18v-.13l-.09.09c-.09.04-.13.13-.22.18l-.1.09c-.08.08-.17.17-.21.26l-.05.05-.26.4-.05.04c0 .04-.04.04-.04.09l-.14.26v.1c-.04.12-.13.26-.17.39-.14.35-.27.7-.36 1.02-.04.09-.04.22-.09.26a3.6 3.6 0 0 0-.09.4v.05-.05c0-.13 0-.22.05-.35 0-.22.04-.49.04-.71 0-.18.05-.4.1-.58 0-.04 0-.13.04-.17 0-.1.04-.18.04-.27 0-.09.05-.18.05-.27v-.13c0-.09.04-.22.04-.3v-.32c0-.04 0-.09.04-.13.05-.13.1-.31.1-.44v-.05c.04-.09.04-.22.08-.3v-.05c.05-.22.13-.44.18-.67v-.08c0-.05 0-.1.04-.14.1-.35.23-.7.31-1.02v-.04c.1-.27.23-.58.31-.84v-.05c.05-.13.1-.22.14-.35.09-.18.13-.35.22-.53 0-.05.04-.13.13-.31.05-.05.05-.13.1-.18l.13-.3.04-.1.75-1.37c.05-.04.05-.13.1-.18v-.04l.04-.09c.09-.13.17-.31.26-.44.14-.22.23-.45.36-.62.22-.4.4-.76.53-.93a.47.47 0 0 1 .13-.22c-.04 0-.26-.18-.62-.4-.44-.27-1.06-.62-1.82-.98l-.75-.35-1.02-.4c-.1-.04-.18-.04-.27-.09-.3-.09-.58-.18-.89-.26l-.62-.14c-.17-.04-.35-.04-.53-.09-.09 0-.18 0-.27-.04-.08 0-.17 0-.26-.04-.22 0-.5-.05-.71-.05h-.36c-.53 0-1.02.05-1.5.13h-.1c-.88.14-1.73.36-2.57.67-.27.09-.53.22-.84.35-.1.05-.14.1-.22.1l-.27.12c-.8.4-1.55.93-2.26 1.51h-.05c-.62.49-1.15 1.06-1.64 1.64l-.4.53c-.18.22-.31.44-.44.66-.27.4-.54.85-.76 1.29-.09.18-.18.3-.22.49 0 .04-.04.04-.04.08a12.2 12.2 0 0 0-.94 3.37c-.04.22-.04.44-.09.7v.1c0 .17-.04.35-.04.57v.8c0 .18 0 .35.04.53v.22c0 .13.05.27.05.4v.04c0 .1 0 .14.04.23 0 .13.05.26.05.35 0 .09.04.18.04.27.05.13.05.22.1.35 0 .09.04.18.08.27v.04l.04.09v.09l.05.09c.04.08.04.17.09.26.04.09.04.22.09.31.04.09.08.18.08.31l.05.09c.04.09.04.13.09.22.04.09.09.18.13.31l.13.27c.05.04.05.09.1.13.04.04.04.09.08.13l.13.27c.05.09.1.22.18.3.05.1.1.19.14.23l.17.31c.05.09.1.13.14.22.04.09.13.22.22.31.04.09.09.13.13.18.09.09.13.22.22.3.05.05.1.14.14.19.08.08.17.22.26.3.05.05.1.1.14.18.08.1.17.22.26.31l.13.14c.1.08.18.22.32.3l.13.14.3.3c.05.05.1.1.14.1.1.09.22.17.36.3.04.05.09.05.13.1.13.08.22.17.36.26.04.05.08.05.08.09l.4.27.1.04.4.27.08.04.44.27.1.04c.13.09.3.18.44.22l.09.05.48.22.05.04c.18.09.35.13.49.22h.04c.18.05.36.14.53.18h.05c.09.04.18.04.26.09.1.04.18.04.32.09h.04l.58.13c.17.04.4.09.57.09.62.09 1.25.13 1.87.18h.44c.22 0 .4 0 .62-.05.27-.04.58-.04.89-.09l.75-.13c.4-.09.8-.18 1.16-.31a7.97 7.97 0 0 0 2.75-1.24s-.4-1.77-.71-3.54c-.09-.1-.13-.27-.18-.45m71.41 8.58s.1-.66-.26-1.28c0-.04-.05-.09-.05-.09l-.04-.04-.14-.13c-.09-.1-.17-.18-.3-.27a.97.97 0 0 0-.23-.13 3.05 3.05 0 0 0-.75-.22c-.23-.05-.45-.05-.71-.05h-.36v.09c0 .04.05.09.05.18 0 .04 0 .09.04.09l.13.53s0 .04-.04.13v.04a7.14 7.14 0 0 1-1.29 1.9c-.13.18-.26.32-.44.5-2.22 2.3-7.01 5.53-17.13 7.34-3.42.49-6.62.53-9.28.18-4-.49-6.97-1.77-8.39-3.5-.13-.13-.22-.3-.35-.44-.1-.13-.13-.22-.22-.35-.05-.05-.05-.1-.1-.14a6.96 6.96 0 0 1-.84-3.32 6.2 6.2 0 0 1 1.16-3.63 4.27 4.27 0 0 1 3.68-1.86c.1 0 .22 0 .4.05l1.38.17c.04 0 .13 0 .17.05 1.91.22 4.93.53 8.57.3 6.66-.39 15.4-2.47 23.34-9.64v-.05a3.44 3.44 0 0 0-.8-2.52c-.13-.13-.26-.26-.44-.4-.09-.09-.22-.13-.3-.22-.14-.04-.23-.13-.32-.18l-.4-.26v-.04c-.04-.1-.09-.18-.18-.27-2.04-3.1-4.88-4.91-6.03-5.76-.53-.4-.89-.57-.89-.57-2.44-1.5-2.8-2-2.57-6.02.08-1.46.22-3.36.4-5.98 0-.35.04-.66.04-.97v-1.28c0-.23-.04-.45-.04-.62 0-.1 0-.18-.05-.27-.04-.22-.04-.44-.09-.66 0-.1-.04-.22-.04-.31 0-.14-.05-.22-.1-.36-.04-.09-.04-.22-.08-.3a1.29 1.29 0 0 1-.09-.4c0-.05-.04-.1-.04-.14 0-.04-.05-.09-.05-.13v-.05l-.04-.13c-.05-.09-.09-.18-.09-.26v-.05l-.04-.09-.05-.09c-.09-.17-.13-.35-.22-.48l-.05-.14-.26-.44-.05-.04-.04-.05c-.09-.08-.13-.17-.22-.26l-.1-.13a1.93 1.93 0 0 0-.26-.31v-.36l-.13-.62c0-.04-.04-.13-.04-.18v-.04c0-.09-.05-.13-.05-.22-.04-.18-.09-.36-.18-.53 0-.05-.04-.13-.04-.18l-.13-.4c-.05-.09-.05-.17-.1-.22-.04-.13-.08-.26-.17-.4l-.13-.26c-.05-.14-.14-.27-.18-.4l-.13-.27c-.1-.13-.14-.26-.23-.4l-.13-.26c-.09-.13-.18-.27-.27-.44-.04-.1-.08-.14-.13-.22l-.13-.18c-.14-.13-.22-.27-.36-.4l-.09-.04c-.17-.18-.3-.36-.48-.5l-.05-.04c-.09-.04-.18-.13-.22-.17h-.04c-.1-.05-.14-.1-.23-.14l-.04-.04-.4-.22c-.04-.05-.13-.05-.22-.09-.4-.13-.89-.31-1.51-.49-.05 0-.09 0-.13-.04-.5-.13-1.07-.27-1.7-.36-.21-.04-.39-.04-.61-.08-.1 0-.18 0-.31-.05h-.14c-.48-.04-.93-.09-1.42-.09h-.04c-.62 0-1.24.05-1.82.18.13-.22.53-.49.89-.7.49-.27.93-.45.93-.45-.27 0-.53.04-.8.09-.09 0-.18.04-.27.04-.04 0-.13 0-.17.05h-.05c-.04 0-.09 0-.13.04-1.38.31-2.7.8-3.46 1.1l-.27.14h-.04c-.1 0-.14 0-.23.04a3.93 3.93 0 0 1 1.96-1.81l.3-.13c.05 0 .05 0 .1-.05.09-.04.17-.04.22-.09.13-.04.22-.04.22-.04h-.7c-1.52.18-2.9.66-4.05 1.33-.8.44-1.5.93-2.13 1.41-.18.05-.3.1-.49.1-1.68.35-3.6.79-5.59 1.41-.75.22-1.5.49-2.26.75-.58.22-1.2.44-1.78.67-.44.17-.84.35-1.28.53a30.28 30.28 0 0 0-8.66 5.62l-.26.26-.67.67-.27.26c-.09.14-.22.27-.3.36a18.08 18.08 0 0 0-2.27 3.14l-.05.05a21.7 21.7 0 0 0-2.09 5.1l-.12.47-.05.1c-.18.66-.3 1.36-.4 2.07 0 .13-.04.27-.04.44-.05.36-.1.71-.1 1.11-.04.36-.04.67-.04 1.02v1.37c0 .4 0 .8.05 1.2v.04c0 .4.04.8.09 1.24 0 .18.04.35.04.53v.13c0 .1 0 .18.05.31.04.45.13.93.17 1.42 0 .13.05.27.05.4.09.4.13.84.22 1.24 0 0-.09-.53-.04-1.33 0-.18.04-.4.04-.57.04-.45.13-.98.31-1.47l.13-.4c0-.04.05-.08.1-.17.08-.22.21-.49.35-.7.04.17.04.34.09.48v2.34c.04 1.5.17 3.32.48 4.87 0 0 .05-2.79.54-3.14 0 0 .84 5.22 1.6 7.17.08.27.22.44.3.58v-.53l-.08-2.88v-.31c.57 1.2 1.24 2.39 2 3.67.22.36.4.71.62 1.06a15.6 15.6 0 0 0-3.73 5.18c-.14.36-.31.71-.45 1.07-.09.22-.13.4-.22.62l-.04.17-.14.45c0 .08-.04.13-.04.22l-.13.44c0 .09-.05.13-.05.22l-.13.67c-.05.22-.09.44-.09.66 0 .09 0 .13-.04.22 0 .18-.05.31-.05.49 0 .09 0 .17-.04.26 0 .18-.05.31-.05.49v1.55c0 .18 0 .35.05.57v.14c0 .22.04.44.09.7 0 .1 0 .14.04.23 0 .17.04.3.09.48 0 .1.04.18.04.27.05.13.05.3.1.44 0 .1.04.18.04.27.04.13.09.26.09.44.04.09.04.18.08.31l.14.44c.04.1.04.18.09.27l.13.44c.04.09.04.18.09.27.04.17.13.35.18.48l.08.23.67 1.46c.04.08.09.13.13.22l.27.53c.04.09.09.18.18.26l.26.45c.05.09.14.17.18.26.09.13.18.31.31.44.09.1.13.18.22.31.1.14.23.31.31.45.1.09.14.17.23.3.13.14.22.32.35.45.09.09.13.18.22.27.14.17.27.3.45.48l.22.22c.22.23.44.5.66.71 0 0-.13-.18-.3-.53a.34.34 0 0 1-.1-.22l-.13-.27a7.41 7.41 0 0 1-.75-3.5l.4.54c.13.3.35.7.57 1.15.1.13.18.3.23.44.35.62.7 1.33 1.15 2 .53.83 1.06 1.63 1.64 2.38 0 0-.66-1.41-.89-2.34-.04-.27-.08-.49-.04-.62.04.04.09.13.18.18.04.04.09.13.17.17l.4.53.1.1c.08.08.13.21.21.3.1.13.18.27.32.4.93 1.2 2.21 2.79 3.1 3.63.31.27.58.49.76.58l-1.3-2.3c2.94 2.38 15.1 5.44 27.04 2.03a31.3 31.3 0 0 0 4.3-1.55c.85-.35 1.69-.8 2.53-1.24l.14-.09c.57-.3 1.15-.66 1.73-1.02.44-.26.88-.57 1.28-.84a33.28 33.28 0 0 0 2.27-1.68 26.8 26.8 0 0 0 4.04-4.34l.04-.04c.18-.22.31-.4.44-.62l.05-.04c.04-.1.09-.14.13-.23l.62-.88c.05-.09.1-.13.14-.22.08-.18.17-.31.3-.49.1-.13.14-.22.23-.35.09-.14.18-.27.22-.4l.4-.71.13-.27.27-.53.13-.26.05-.1c.09-.21.22-.43.3-.66v-.04c.4-.35.67-.7.94-1.02.04-.04.09-.09.09-.13.26-.84.44-1.5.44-2.13"/><path id="rtx6d" d="M828.24 3126.93l-.13-1.8.9-1.97.36-.09a8.49 8.49 0 0 0-2.12-.58c-1.62-.23-3.7 0-6.04.58s-5 1.61-7.79 3c-5.63 2.79-11.85 7.05-17.88 12.52a89.13 89.13 0 0 0-10.64 11.44 52.58 52.58 0 0 0-6.57 10.8 22.8 22.8 0 0 0-1.76 5.97 8.64 8.64 0 0 0 .09 3.28c.09.3.18.53.27.8.22.54.5.99.86 1.4l3.64 3.8.41.4.04-.04c.1-.13.23-.26.37-.35l.04-.05.14-.13c.09-.14.22-.23.31-.36a.79.79 0 0 1 .23-.18c.09-.05.13-.14.22-.18l.1-.1c.08-.04.13-.13.22-.17.09-.1.22-.18.31-.27l.18-.13h.05c.13-.1.22-.18.36-.27a.79.79 0 0 0 .22-.18l.36-.27c.1-.05.14-.1.23-.14.13-.09.27-.18.4-.22.1-.05.14-.1.23-.14.13-.09.27-.13.4-.22.1-.04.14-.09.23-.13l.09-.05a39.8 39.8 0 0 1 3.87-7.71 74.9 74.9 0 0 1 7.89-10.32 95.6 95.6 0 0 1 15.68-13.86 79.7 79.7 0 0 1 6.08-3.86c.18-.09.36-.22.58-.31a44.14 44.14 0 0 1 4.91-2.42l-.54-.63-.09-.09-.67-.76-3.74-4.49.04-3.23-.04-.04 2.66-.8 5.04 2.55"/><path id="rtx6e" d="M798.96 3191.9c-.13.05-.27.23-.44.46-.05.09-.13.18-.18.31-.4.76-.75 1.84-.75 1.84.05-.36.1-.72.1-1.08v-.13l.12-1.12v-.14c.05-.45.14-.85.22-1.26 0-.04 0-.09.05-.18v-.04c0-.05 0-.1.04-.14 0-.09.05-.13.05-.22.04-.32.13-.63.17-.95l.13-.76v-.1c0-.04 0-.08.05-.08v-.1l.04-.17c0-.05 0-.1.05-.14 0-.09.04-.18.04-.22 0-.05.04-.14.04-.18 0-.1.05-.18.05-.23 0-.04 0-.09.04-.13 0-.05 0-.1.05-.1 0-.08.04-.13.04-.17v-.14l-.09.1c-.09.04-.13.13-.22.17l-.09.1c-.08.08-.17.17-.22.26l-.04.05-.26.4-.05.05c0 .04-.04.04-.04.09l-.13.27v.09c-.05.13-.14.27-.18.4-.13.36-.26.72-.35 1.04-.05.09-.05.22-.09.27l-.09.4v.05-.05c0-.13 0-.22.05-.36 0-.22.04-.5.04-.72 0-.18.04-.4.09-.58 0-.05 0-.14.04-.18 0-.1.05-.18.05-.27 0-.1.04-.18.04-.27v-.14c0-.09.04-.22.04-.31v-.32c0-.04 0-.09.05-.13.04-.14.09-.32.09-.45v-.05c.04-.09.04-.22.08-.31v-.05c.05-.22.14-.45.18-.67v-.1c0-.04 0-.08.04-.13l.31-1.03v-.05l.31-.85v-.05l.13-.36c.1-.18.13-.36.22-.54 0-.04.05-.13.13-.31.05-.05.05-.14.1-.18.04-.09.08-.18.12-.32l.05-.09c-.05-.04-.13-.04-.18-.09h-.04l-.09-.04c-.4-.18-.84-.36-1.28-.5h-.08c-.31-.08-.58-.13-.88-.17-.18 0-.36-.05-.53-.05h-.44c-.22 0-.44.05-.66.05-.09 0-.13 0-.22.04-.09 0-.22.05-.31.05-.04 0-.09 0-.13.04-.1 0-.13.05-.22.05l-.44.13c-.05 0-.13.05-.18.05-.17.09-.4.13-.57.22-.09.04-.13.09-.22.09l-.27.13-.08.05c-.1.04-.18.09-.27.18-.09.04-.17.09-.26.18-.09.04-.18.13-.27.18l-.17.13c-.13.14-.31.27-.44.4l-.22.23c-.13.14-.22.27-.35.4l-.05.05c-.04.1-.13.14-.17.23l-.14.13c-.22.32-.44.68-.61 1.04-.05.04-.05.09-.09.13-.09.18-.13.36-.22.54-.04.1-.04.14-.09.23-.04.18-.13.36-.17.58v.18c-.05.14-.05.27-.1.4 0 .1 0 .14-.04.23 0 .1 0 .14-.04.23v.18c0 .22-.04.45 0 .67 0 .18 0 .36.04.54v.1c0 .08.05.17.05.26.04.36.13.68.22 1.04l.26.72a7.06 7.06 0 0 0 5.81 4.4c.13 0 .27.05.35.05h.58c.17 0 .35-.05.52-.05.1 0 .22 0 .31-.04l.75-.14h.04c.1-.04.18-.04.31-.09.31-.09.62-.22.88-.36l.05-.04c.08-.05.17-.1.22-.1-.14-.76-.27-1.56-.31-2.37.22-.1.22-.14.22-.18m71.17 11.47s.09-.68-.26-1.3c0-.05-.05-.1-.05-.1l-.04-.04-.13-.14c-.1-.09-.18-.18-.31-.27-.05-.04-.13-.09-.22-.13-.22-.1-.44-.18-.75-.23-.22-.04-.44-.04-.7-.04h-.36v.09c0 .04.05.09.05.18 0 .04 0 .09.04.09.05.13.09.36.13.54 0 0 0 .04-.04.13v.05a7.27 7.27 0 0 1-1.28 1.93c-.13.18-.26.32-.44.5-2.2 2.33-6.95 5.62-16.99 7.46-3.39.5-6.55.54-9.2.18-3.96-.5-6.9-1.8-8.31-3.55-.14-.14-.22-.32-.36-.45l-.22-.36c-.04-.05-.04-.1-.08-.14a7.22 7.22 0 0 1-.84-3.37c0-1.4.44-2.7 1.14-3.69a4.25 4.25 0 0 1 2.25-1.7c.44-.14.92-.23 1.4-.19.1 0 .23 0 .4.05.31.04.8.09 1.37.18a46 46 0 0 0 8.67.36c6.6-.4 15.27-2.52 23.15-9.8v-.05c.04-.63-.04-1.71-.8-2.57-.12-.13-.26-.27-.43-.4-.1-.1-.22-.14-.31-.23-.13-.04-.22-.13-.3-.18l-.4-.27v-.04a.94.94 0 0 0-.18-.27c-2.03-3.15-4.84-5-5.99-5.85-.53-.4-.88-.58-.88-.58-2.42-1.53-2.77-2.03-2.55-6.12l.4-6.07c0-.36.04-.68.04-1v-1.3c0-.22-.04-.45-.04-.63 0-.09 0-.18-.05-.27-.04-.22-.04-.45-.09-.67 0-.1-.04-.23-.04-.32 0-.13-.04-.22-.09-.36-.04-.09-.04-.22-.09-.31a1.34 1.34 0 0 1-.08-.4c0-.05-.05-.1-.05-.14 0-.05-.04-.1-.04-.14v-.04l-.05-.14a.65.65 0 0 1-.08-.27v-.04l-.05-.1-.04-.08c-.1-.18-.13-.36-.22-.5l-.05-.13c-.08-.14-.17-.32-.26-.45l-.04-.05-.05-.04c-.09-.1-.13-.18-.22-.27l-.09-.14c-.08-.13-.17-.22-.26-.31l-.35-.36c-.14-.09-.27-.18-.4-.23-.04-.04-.09-.04-.13-.04l-.27-.14c-.04 0-.08-.04-.13-.04-.09-.05-.17-.05-.22-.09-.04 0-.09-.05-.17-.05-.1 0-.14-.04-.22-.04h-.97c-.05 0-.09 0-.13.04-.05 0-.1 0-.14.05-.08 0-.17.04-.3.09h-.1l-.74.27-.09.04c-.09.05-.17.1-.3.14l-.14.04-.26.14-.13.09-.27.13-.13.1c-.09.04-.18.13-.26.17l-.1.05c-.08.09-.21.13-.3.22l-.04.05c-.14.09-.23.18-.36.22-.22.14-.44.32-.66.45-.17.14-.35.27-.57.4l-.09.05a4 4 0 0 1-.57.36l-.09.05c-.17.13-.4.22-.57.36l-.09.04c-.17.14-.4.23-.61.32l-.1.04-.6.27-.1.05c-.22.09-.44.13-.66.22h-.04l-.7.14a11.35 11.35 0 0 1-3.26-.05l-.66-.13c-.09 0-.18-.05-.22-.05l-1.76-.4c-.27-.05-.49-.14-.75-.18-.4-.1-.8-.18-1.23-.27-.1 0-.18-.05-.22-.05-.05 0-.14-.04-.18-.04-.09 0-.18-.05-.26-.05-.1 0-.18-.04-.27-.04h-.09c-.08 0-.17-.05-.22-.05-.17-.04-.35-.09-.57-.09-.04 0-.13 0-.17-.04-.14 0-.27-.05-.4-.05-.09 0-.13 0-.22-.04-.13 0-.22-.05-.35-.05h-2.03c-.22 0-.4.05-.61.05h-.18c-.13 0-.26.04-.4.04h-.04c-.09 0-.13.05-.22.05-.13.04-.26.04-.4.09-.08 0-.17.04-.22.04-.13.05-.26.1-.4.1-.08 0-.12.04-.21.08l-.44.14c-.09.04-.13.04-.18.09-.22.09-.44.18-.61.27a14.1 14.1 0 0 0-4.23 3.87c-.4.54-.75 1.08-1.06 1.62-.35.58-.61 1.21-.88 1.84-.08.18-.13.36-.22.54-.08.31-.22.63-.3.94 0 .05 0 .1-.05.1l-.26 1.12c-.1.4-.13.76-.18 1.17-.04.22-.04.4-.04.63-.05.58-.05 1.12 0 1.7v.14c0 .14 0 .27.04.45.05.4.09.81.18 1.22.04.13.09.27.09.45.04.13.04.27.08.4.27 1.04.66 1.98 1.15 2.79 1.8 3.2 4.8 5.13 7 6.16.83.36 1.71.72 2.64 1.04l-.1.09c-.17.04-.34.09-.56.13l-1.1.36c-.44.14-.97.36-1.5.59-1.4.58-3 1.44-4.4 2.6-.18.14-.35.32-.53.46-.3.27-.57.54-.84.85l-.08.09-.14.13c-.08.14-.22.23-.3.36l-.14.14c-.13.18-.26.36-.35.54-.13.18-.22.36-.35.54a9.66 9.66 0 0 0-1.19 5.44v-.09c0-.04 0-.09.05-.13v-.05c0-.04.04-.09.04-.18v-.04c0-.05.04-.14.04-.23s.05-.13.1-.22v-.05c.04-.09.04-.18.08-.27v-.04c.04-.1.04-.18.09-.27v-.05c.04-.09.09-.18.13-.31l.04-.05c.05-.09.1-.22.18-.31.09-.18.18-.32.26-.5.05-.04.1-.13.14-.18l.04-.04.26-.4c.1-.1.18-.23.27-.32l.09-.1c.08-.08.13-.17.22-.22l.08-.09c.1-.09.22-.18.31-.31 0 0-1.9 4.4-1.05 7.87v-.67c0-.1 0-.18.04-.27 0-.1 0-.18.04-.27v-.05c0-.09.05-.22.05-.31v-.1c.04-.13.04-.22.09-.35v-.05c.04-.13.08-.27.08-.36 0-.04.05-.09.05-.13l.04-.1c.05-.08.09-.22.13-.3.05-.14.14-.28.22-.41 0-.05.05-.1.05-.1l.26-.4s-.09 1.08-.09 2.39c0 .22 0 .4.05.63 0 .13 0 .27.04.4a18.1 18.1 0 0 1 .05 2.74c.13 1.58.52 3.29 1.18 5.04 0 0-.61-2.02.27-4.05l.26.54c.1.59.18 1.44.35 2.39.18 1.57.88 6.3 4.05 9.58 0 0-1.18-1.58-1-3.6.12.27.26.5.34.72a22.5 22.5 0 0 0 2.78 4.27s-.93-1.84-.7-2.25c0 0 3.07 3.92 4.04 4.28l-1.27-2.16-.05-.05c4.45 3.33 10.6 4.55 18.18 2.39 1.32-.36 2.64-.86 4.05-1.44.83-.36 1.67-.81 2.5-1.26l.14-.1c.57-.3 1.14-.67 1.72-1.03.44-.27.88-.58 1.27-.85.7-.5 1.41-1.04 2.12-1.62.04-.05.08-.09.13-.09a27.09 27.09 0 0 0 4-4.4l.05-.05c.17-.23.3-.4.44-.63l.04-.05c.04-.09.09-.13.13-.22l.62-.9c.04-.1.09-.14.13-.23.09-.18.18-.31.3-.5.1-.13.14-.22.23-.35.09-.14.18-.27.22-.4.13-.23.26-.5.4-.73l.13-.27.26-.54.13-.27.05-.09c.09-.22.22-.45.3-.67v-.05c.4-.36.67-.72.93-1.03.04-.05.09-.09.09-.14.4-.58.57-1.25.57-1.88"/><path id="rtx6f" d="M828.2 3127.11l.18.12z"/><path id="rtx6g" d="M868.13 3200.82c0-.04 0-.09-.05-.09-.04-.09-.04-.13-.04-.18a6.5 6.5 0 0 0-.77-1.67c-.32-.5-.59-.77-.59-.77l.14-.54c.04-.23.09-.46.09-.68a6.56 6.56 0 0 0-.59-3.62c-.04-.14-.09-.23-.13-.32l-.77.54a39.2 39.2 0 0 1-16.22 6.34c-4.05.63-8.33.68-12.79.13l.09.05s-2.7.36-3.42 2.94l.04.05-.22 1.71c.09 2.36 1.12 3.8 2.34 4.57 1.26.5 2.8.86 4.5 1.09 2.93.36 6.36.27 9.78-.27 4.6-.63 11.08-3.08 15.72-6.25 1.04-.72 2.03-1.49 2.84-2.26l.05-.04.04-.05c0-.31-.04-.5-.04-.68"/><path id="rtx6h" d="M827.4 3188.04c-.43.14-.96.36-1.49.58a17.4 17.4 0 0 0-4.39 2.59c-.17.13-.35.31-.53.45-.3.26-.57.53-.83.84l-.09.1-.13.13c-.09.13-.22.22-.3.35l-.14.14c-.13.17-.26.35-.35.53-.13.18-.22.36-.35.54a9.53 9.53 0 0 0-1.19 5.4v-.1c0-.04 0-.08.05-.13v-.04c0-.05.04-.1.04-.18v-.05c0-.04.04-.13.04-.22s.05-.13.1-.22v-.05c.04-.09.04-.18.08-.27v-.04c.04-.09.04-.18.09-.27v-.04l.13-.31.04-.05c.05-.09.09-.22.18-.31l.26-.5c.05-.04.09-.13.13-.17l.05-.04.26-.4.26-.32.1-.09c.08-.09.12-.18.21-.22l.09-.09c.09-.09.22-.18.3-.31 0 0-1.88 4.37-1.05 7.8v-.67c0-.09 0-.17.05-.26 0-.1 0-.18.04-.27v-.05c0-.08.05-.22.05-.3v-.1c.04-.13.04-.22.08-.35v-.05c.05-.13.1-.27.1-.36 0-.04.03-.08.03-.13l.05-.09.13-.31c.04-.13.13-.27.22-.4 0-.05.04-.1.04-.1l.27-.4s-.09 1.08-.09 2.37c0 .22 0 .4.04.63 0 .13 0 .26.05.4.09-1.39.35-2.68.7-3.88.09-.32.22-.67.3-.98 0-.05.05-.1.05-.14l.35-.89c.05-.04.05-.09.1-.18l.39-.85c.04-.04.04-.09.04-.13.3-.58.62-1.11.92-1.6.05-.05.05-.1.1-.14l.39-.58c.04-.04.04-.09.08-.13.05-.05.05-.1.1-.14.17-.22.3-.44.48-.67.04-.04.04-.08.08-.08.18-.23.35-.45.53-.63.22-.27.44-.49.66-.76.18-.18.3-.35.48-.49l.18-.18a22.57 22.57 0 0 1 3.07-2.67l-.57.13c-.26.14-.61.27-1.05.4m40.06 17.99a27.2 27.2 0 0 1-7.38 4.73c-1.8.8-3.51 1.34-5.05 1.74-3.38.85-5.71.85-5.71.85 1.85 1.02 4.17 1.02 5.76.89a9.9 9.9 0 0 0 1.84-.31c-.04.67-.13 1.3-.22 1.92-.13.67-.3 1.25-.53 1.78v.05a9.76 9.76 0 0 1-.96 1.78c-.05.05-.1.14-.13.18l.13-.09c.57-.31 1.14-.67 1.71-1.03.44-.26.88-.58 1.27-.84a33 33 0 0 0 2.11-1.61c.05-.04.1-.09.13-.09a26.9 26.9 0 0 0 4-4.37l.05-.05c.17-.22.3-.4.44-.62l.04-.05c.04-.09.09-.13.13-.22l.62-.9.13-.22a3 3 0 0 1 .3-.49c.1-.13.14-.22.23-.35.08-.14.17-.27.22-.4l.39-.72.13-.27.27-.53.13-.27.04-.09c.09-.22.22-.45.3-.67-.17.05-.25.13-.39.27m-9.19-27.5c-2.41-1.51-2.76-2-2.55-6.06l.4-6.03c0-.35.04-.67.04-.98v-1.3c0-.22-.04-.44-.04-.62 0-.09 0-.18-.04-.27-.05-.22-.05-.44-.1-.67 0-.09-.04-.22-.04-.3 0-.14-.04-.23-.08-.37-.05-.08-.05-.22-.1-.3a6.13 6.13 0 0 0-1.22-1.4l-.09-.08-.09-.05h-.04c-.09-.04-.13-.08-.22-.13a6.31 6.31 0 0 0-2.6-.98c-.47-.09-.96-.09-1.44-.09-.22 0-.48.04-.7.04-.62.1-1.23.23-1.9.4-.21.14-.43.32-.65.45-.18.14-.35.27-.57.4l-.09.05a4 4 0 0 1-.57.36l-.09.04c-.17.13-.4.22-.57.36l-.09.04c-.17.14-.4.23-.61.31l-.09.05-.62.27-.08.04c-.22.1-.44.14-.66.22h-.05l-.7.14a11.4 11.4 0 0 1-3.25-.05l-.66-.13c-.09 0-.17-.04-.22-.04l-1.75-.4c-.27-.05-.49-.14-.75-.18-.4-.1-.8-.18-1.23-.27-.09 0-.18-.05-.22-.05-.35 0-.7.05-1.01.1h-.09c-1 .13-1.97.35-2.98.7-.05 0-.1.05-.18.05-.18.05-.3.13-.48.18l-.62.27a16.57 16.57 0 0 0-4.13 2.63c-.52.45-1 .94-1.49 1.43-.7.76-1.32 1.56-1.89 2.4-.04.05-.04.1-.09.14-.3.45-.57.94-.79 1.39-.08.17-.17.35-.26.49v.04c-.26.58-.48 1.12-.66 1.7 0 .04 0 .09-.04.09-.05.09-.05.18-.1.26-.08.27-.17.54-.21.8a4.8 4.8 0 0 0-.18.86l-.04.17c-.04.18-.04.36-.09.5-.09.62-.13 1.24-.17 1.87v.45c.26 1.02.65 1.96 1.14 2.76 1.8 3.17 4.79 5.1 6.98 6.12.84.35 1.71.71 2.64 1.02l.04.05.04-.05.36-.26c.04-.05.08-.05.13-.1l.4-.26c.04-.05.08-.05.12-.1l.4-.26c.04-.04.09-.04.13-.09.13-.09.27-.18.44-.27.04-.04.09-.04.13-.08.13-.1.31-.18.44-.27.05-.05.09-.05.13-.1.14-.08.31-.17.44-.26.05-.04.13-.04.18-.09l.44-.27a.33.33 0 0 1 .17-.09l.49-.26c.08-.05.13-.1.22-.1.17-.08.3-.17.48-.22.09-.04.13-.09.22-.09l.48-.22.27-.13c.17-.1.3-.14.48-.23l.3-.13c.18-.04.31-.13.49-.18l.3-.13c.18-.05.31-.14.49-.18l.35-.13c.18-.05.3-.14.48-.18l.4-.14c.13-.04.3-.09.44-.17l.44-.14.44-.13.48-.14c.13-.04.26-.09.44-.13.18-.05.35-.09.57-.18.09-.04.18-.04.26-.09.7-1.83 2.86-6.38 6.5-6.87.4-.05.75-.09 1.1-.09h.27a5.02 5.02 0 0 1-.1-.85c-.12-1.96.5-3.61 1.33-3.66.65-.04 1.18.94 1.27 1.25.26.58.44 1.34.48 2.19.05.76-.04 1.47-.17 2.1.08.09.13.17.22.22.83 1.07.96 2.5.92 3.57.3-.05.66-.05 1-.09.1 0 .18 0 .27-.04h.18c.4-.05.83-.1 1.27-.1.97-.08 1.93-.13 2.94-.17l-.92-.5"/><path id="rtx6i" d="M851.6 3204.46c-.3.14-.6.22-1 .31-.35.14-.75.23-1.14.32-.84.17-1.67.3-2.64.49-.48.04-.96.09-1.5.17l-1.57.14c-2.15.13-4.61.09-7.12-.4a20.36 20.36 0 0 1-4.08-1.16c.04 2.27 1.1 3.74 2.28 4.5a7.36 7.36 0 0 1-3.03-1.96 5 5 0 0 1-1.14-3.61c.05-.67.22-1.25.44-1.79l.13-.26c.27-.58 1.14-1.92 2.73-1.83.04 0 .17.04.3.04.13.05.31.05.53.1l1.01.13h.13l.09.04s-2.64.36-3.34 2.9l.05.04a14.8 14.8 0 0 0 4.12 1.48c2.38.44 4.7.53 6.81.49.53-.05 1.05-.05 1.54-.1l1.45-.13c.96-.09 1.84-.18 2.63-.3.4-.05.8-.14 1.14-.19.35-.04.7-.09 1.01-.18.66-.17 1.19-.26 1.63-.35.88-.23 1.36-.27 1.4-.18 0 .09-.44.36-1.27.71-.44.18-.97.36-1.58.58m-53.24-18.65c-.09.05-.13.14-.22.18l-.08.09c-.05.04-.05.09-.05.13 0 .05-.04.14-.04.23 0 .04-.05.13-.05.18 0 .04-.04.13-.04.22-.04.04-.04.09-.04.13 0 .05-.05.14-.05.18v.09c-.04 0-.04.04-.04.09v.09c-.05.22-.09.49-.13.76-.05.31-.14.62-.18.93 0 .1-.04.14-.04.23-.05.04-.05.09-.05.13v.05c-.04.09-.04.13-.04.17-.09.4-.18.8-.22 1.25v.14l-.13 1.11v.14l-.05-.05c-.04 0-.08-.09-.17-.18 0-.04-.05-.08-.1-.13-.03-.09-.12-.13-.17-.22l-.04-.05c-.04-.09-.09-.18-.18-.26-.04-.1-.13-.23-.22-.36a2.57 2.57 0 0 0-.17-.31c-.13-.18-.22-.4-.35-.67-.13-.18-.22-.4-.31-.63l-.13-.36-.05-.04v-.04c-.04-.1-.08-.23-.13-.32l-.13-.44c0 .22-.04.49-.04.71v.98c0 .18.04.4.04.58l.13.9c0 .08.05.17.05.26v.1l-.05-.05-.09-.1c0-.04-.04-.08-.08-.13-.05-.08-.1-.17-.18-.26l-.04-.05a13.1 13.1 0 0 1-1.45-2.8v-.05a8.92 8.92 0 0 1-.35-1.16c-.05.22-.05.44-.05.71v.58c0 .58.09 1.16.22 1.79l-.09-.1c0-.04-.04-.08-.08-.13a8.65 8.65 0 0 1-.88-1.3c-.31-.48-.62-1.1-.88-1.87v-.09c-.05-.17-.13-.35-.18-.53l-.13-.4c-.04.3-.04.67-.04 1.02v.1c0 .57.04 1.1.17 1.69 0 .04.05.13.05.22l-.1-.09s-.04 0-.04-.04l-.08-.1-.53-.7c-.13-.18-.26-.4-.4-.68l-.04-.04v-.04c-.04-.05-.04-.1-.09-.14-.22-.36-.4-.76-.57-1.2-.04-.14-.13-.32-.17-.45v-.09c-.05-.18-.1-.31-.14-.49 0-.04-.04-.09-.04-.13.04-.1.04-.14.09-.23.09-.18.13-.35.22-.53.04-.05.04-.1.09-.14.17-.35.4-.71.61-1.02l.13-.14c.05-.09.13-.13.18-.22l.04-.04c.13-.14.22-.27.35-.4l.22-.23.44-.4c.05-.05.13-.09.18-.13.09-.05.17-.14.26-.18.09-.1.18-.14.27-.18.08-.1.17-.14.26-.18l.09-.04.26-.14c.09 0 .13-.04.22-.09.18-.09.4-.13.57-.22.04 0 .13-.05.18-.05l.44-.13c.08 0 .13-.04.22-.04.04-.05.08-.05.13-.05.09 0 .22-.04.3-.04.1-.05.14-.05.22-.05.22 0 .44-.04.66-.04h.44c.18 0 .35.04.53.04.3.05.57.1.88.18h.09c.44.13.88.31 1.27.5l.09.04h.04c.05.04.13.04.18.09l-.05.08c-.04.14-.08.23-.13.32-.04.04-.04.13-.09.18-.08.17-.13.26-.13.3-.09.19-.13.36-.22.54l-.13.36v.04c-.09.27-.22.59-.3.85v.05c-.1.31-.23.67-.31 1.02-.05.05-.05.1-.05.14v.09c-.04.22-.13.44-.17.67v.04c-.05.09-.05.22-.1.31v.05c0 .13-.04.31-.08.44-.04.05-.04.1-.04.14v.31c0 .09-.05.22-.05.31v.14c0 .09-.04.18-.04.26 0 .1-.04.18-.04.27-.05.05-.05.14-.05.18-.04.18-.09.4-.09.58 0 .22-.04.5-.04.72-.04.13-.04.22-.04.35l.08-.4c.05-.04.05-.18.1-.27.08-.3.21-.67.34-1.02.05-.14.13-.27.18-.4v-.1l.13-.26c0-.05.04-.05.04-.1l.05-.04.26-.4.05-.04c.04-.1.13-.18.22-.27 0-.04 0-.09.04-.09 0-.09.04-.13.04-.18v-.13l.22.13m41.65 11.65c4.26-.9 9.88-2.36 14.9-4.6a29.92 29.92 0 0 0 7.99-5 14.38 14.38 0 0 0 2.37-2.68v.05l.4.27c.17.13.35.22.57.36.04 0 .04.04.08.04.18.14.31.27.44.4.75.85.84 1.92.8 2.55v.04a36.78 36.78 0 0 1-23.11 9.73c-3.6.22-6.6-.09-8.48-.31-.05-.05-.13-.05-.18-.05 1.1-.17 2.55-.44 4.22-.8m12.7-19.1c-.3-.13-.7.18-.83.71-.04.23-.09.4-.09.58 0 .4.09.72.31.8-.04.1-.09.14-.13.23-1.06 1.38-3.04.98-3.74.76-.18-.05-.27-.1-.27-.1l.14-.12c.13-.27.08-.63-.14-.99-.17-.22-.35-.4-.61-.58-.57-.4-1.19-.4-1.5-.13l-.09-.05s0-.08.05-.22a4.28 4.28 0 0 1 3.65-3.08c2.42-.22 3.04 1.3 3.21 1.92.05.18.05.27.05.27"/><path id="rtx6j" d="M867.34 3201.22l.04-.05s0 .05-.04.13v.05c-.13.26-.49.96-1.28 1.88-.13.18-.27.3-.44.48-2.2 2.24-6.97 5.48-17.02 7.27-3.4.48-6.53.53-9.22.18-3.97-.53-6.96-1.75-8.33-3.46-.13-.13-.27-.3-.35-.44-.1-.13-.14-.22-.22-.35-.05-.04-.05-.09-.1-.13a6.87 6.87 0 0 1-.83-3.29c0-1.31.44-2.62 1.15-3.59a4.42 4.42 0 0 1 2.25-1.66 3.8 3.8 0 0 1 1.4-.18c.1 0 .23.05.4.05l1.37.17c.04.05.09.05.18.05 1.9.26 4.9.52 8.5.3a37.2 37.2 0 0 0 23.2-9.59l-2.6 3.86c-.27.17-.49.35-.75.52a38.62 38.62 0 0 1-15.88 6.13c-3.96.62-8.15.66-12.52.13h-.13c-.4-.04-.7-.08-1.01-.13-.18-.04-.4-.08-.53-.08-.14-.05-.27-.05-.31-.05-1.59-.13-2.43 1.23-2.74 1.8l-.13.26a5.1 5.1 0 0 0 .7 5.3 7.4 7.4 0 0 0 3.05 1.92c1.28.49 2.73.84 4.4 1.06 2.88.35 6.18.26 9.58-.27 4.5-.57 10.84-2.97 15.39-6.04 1.05-.7 1.98-1.45 2.82-2.23m.7-12.13c-.04 0-.04 0 0 0m-21.91-8c-.18-.36-.22-.71-.09-.93.05-.09.09-.13.13-.18.31-.26.93-.22 1.5.14.27.13.5.35.63.57.22.35.26.7.13.96l-.13.14c-.36.3-.98.26-1.55-.1-.27-.17-.49-.39-.62-.6m6-.97c0-.18.04-.35.04-.53.17-.57.57-.92.87-.74.31.13.44.65.31 1.18 0 .05-.04.1-.04.13-.18.58-.57.93-.88.75-.17-.13-.3-.44-.3-.79m-2.2-4.94c-.05-.27-.1-.53-.1-.8-.13-1.92.49-3.54 1.33-3.59.66-.04 1.19.88 1.27 1.23.27.57.45 1.31.49 2.15.04.79-.04 1.49-.18 2.06-.61-.61-1.5-1.01-2.82-1.05"/><path id="rtx6k" d="M853.18 3163.72l-.04-.1a3.04 3.04 0 0 0-.64-.66c-.6-.44-1.4-.67-2.52-.44 0 0-1.32.34-2.1 1.35 0 0 2.31-1.1 4.8.86.2.19.46.38.68.62.2.24.47.48.68.82 0 0-.09-1.2-.73-2.26-.04-.1-.08-.14-.13-.19m-18.44 2.44c-.3-.19-.64-.33-.98-.43-.22-.04-.43-.1-.69-.14-.08 0-.17 0-.25-.05-1.15-.1-2.13.1-2.13.1a6.8 6.8 0 0 0-3.96 2.68 7.94 7.94 0 0 0-1.24 2.68c-.05.1-.05.14-.05.24-.04.24-.12.48-.17.67-.12.76-.21 1.43-.21 2 0 .77.04 1.25.04 1.25.26-.67.56-1.24.86-1.82a17 17 0 0 1 2.3-3.44 11.45 11.45 0 0 1 4.3-3.2 8.1 8.1 0 0 1 2.18-.54"/><path id="rtx6l" d="M834.99 3181.2c.76-.27 1.57-.54 2.48-.8.15-.85.19-1.88.08-2.99-.26-2.58-1.21-4.58-2.16-4.44-.95.13-1.5 2.35-1.24 4.93.14 1.34.43 2.5.84 3.3"/><path id="rtx6m" d="M829.66 3122.4l-2.4.56.49 4.53-6.35-3.38-2.61.84.04.04 7.72 9.17.09-.05.09-.04.7-.47a13.1 13.1 0 0 1 1.33-.83l-3.27-3.93 5.28 2.68.48-.28-.48-3.93 2.4 2.91h.04c.22-.09.4-.23.62-.32l.09-.05.09-.04c.04 0 .08-.05.08-.05l.27-.14s.04 0 .04-.04l.85-.42-5.6-6.76"/><path id="rtx6n" d="M828.97 3123.36l.36-.1a8.37 8.37 0 0 0-2.1-.58 16.4 16.4 0 0 0-6.03.59 38.84 38.84 0 0 0-7.77 3.03c-5.61 2.82-11.81 7.13-17.83 12.66a89.48 89.48 0 0 0-5.84 5.85l7.28 9.07a96.72 96.72 0 0 1 15.76-14.06 73.49 73.49 0 0 1 8.85-5.4l-1.26-5.8.05-3.27-.05-.04 2.65-.82 5.17 2.68-.13-1.82.9-2m0 .14v-.13.13"/><path id="rtx6o" d="M832.67 3131.18l-1.69 1.06-.43-4.09zm-6.82-1.44l4.7 2.84-1.8 1.25zm2.04-1.35l-1.1-.67-.12-1.97.79-2.12z"/><path id="rtx6p" d="M851.35 3126.55h.98c.9 0 1.74.13 2.55.31.04 0 .09 0 .13.04h.05l.09.05h.09c-.1-.05-.18-.13-.27-.18-.9-.36-1.83-.58-2.82-.71-4.82-.63-10.36 1.16-13.5 2.4-.17.1-.35.14-.53.23-.27.13-.53.22-.8.35-.45.18-.9.4-1.39.63-.09.04-.13.04-.22.09l-.85.4s-.04 0-.04.04l-.27.14c-.05 0-.1.04-.1.04h-.17l-.05.05c-.22.09-.4.17-.62.3h-.05c-.04.05-.09.05-.13.1h-.04c-.05 0-.1.04-.1.04-.3.18-.62.31-.93.5-.23.13-.45.22-.67.35h-.05l-.49.27c-.54.26-1.03.58-1.56.89-.05.04-.1.04-.18.09-.05.04-.1.04-.14.09-.04.04-.09.04-.13.09l-.04.04c-.36.22-.72.4-1.08.62a.94.94 0 0 0-.27.18l-.71.45-.09.04-.09.05-2.01 1.34a85.8 85.8 0 0 0-3.26 2.31c-.14.1-.27.23-.4.32-2.82 2.1-5.5 4.36-8.1 6.68-2.72 2.5-5.35 5.04-7.81 7.63-1.34 1.33-2.5 2.54-3.4 3.52-1.88 2-2.9 3.25-2.86 3.3 0 0 .18-.14.5-.45l-.72.85c4.1-4.37 8.62-8.83 13.5-13.02 2.94-2.54 6.03-5 9.2-7.27a142 142 0 0 1 4.24-2.9c.45-.3.94-.57 1.39-.89l.71-.4c.14-.09.27-.18.4-.22.27-.13.5-.31.77-.45.22-.13.49-.26.71-.44.13-.09.27-.13.4-.22l.94-.54c.18-.09.36-.22.54-.31.58-.31 1.16-.63 1.79-.94.04-.04.08-.04.13-.09l.27-.13c.13-.04.22-.13.35-.18.05-.04.1-.04.14-.09l.27-.13s.04 0 .04-.05h.05c.26-.13.53-.26.76-.35.04 0 .09-.05.13-.1l.27-.13.9-.4.22-.13c.04 0 .08-.05.13-.05a.64.64 0 0 1 .27-.08c.36-.14.67-.32 1.03-.45l.89-.4c1.7-.71 3.26-1.3 4.74-1.78a34.18 34.18 0 0 1 7.37-1.34"/></defs><g><g transform="translate(-773 -3120)"><g><g><use fill="#664f44" xlink:href="#rtx6a"/></g></g><g><use fill="#132134" xlink:href="#rtx6b"/></g><g><g><use fill="#90694c" xlink:href="#rtx6c"/></g></g><g><use fill="#2f83c1" xlink:href="#rtx6d"/></g><g><g><use fill="#fce9cd" xlink:href="#rtx6e"/></g></g><g><use fill="#4d9ed7" xlink:href="#rtx6f"/></g><g><use fill="#fff" xlink:href="#rtx6g"/></g><g><g><use fill="#f2d2ac" xlink:href="#rtx6h"/></g><g><use fill="#f2d2ac" xlink:href="#rtx6i"/></g></g><g><g><use fill="#664f44" xlink:href="#rtx6j"/></g></g><g><g><use fill="#e9b784" xlink:href="#rtx6k"/></g></g><g><use fill="#664f44" xlink:href="#rtx6l"/></g><g><use fill="#ffd250" xlink:href="#rtx6m"/></g><g><g><use fill="#4d9ed7" xlink:href="#rtx6n"/></g></g><g><g><use fill="#132134" xlink:href="#rtx6o"/></g></g><g><use fill="#fff" xlink:href="#rtx6p"/></g></g></g></svg>