<svg xmlns="http://www.w3.org/2000/svg" xmlns:xlink="http://www.w3.org/1999/xlink" width="66" height="71" viewBox="0 0 66 71"><defs><path id="7ajia" d="M1489.56 3385.7c-1.68.7-3.5.9-5.32.7-1.75-.21-3.5-.77-5.32-1.82-2.52-1.4-5.04-3.57-7.99-6.8 4.62-5.67 7.43-10.85 8.48-15.47.49-2.17.56-4.13.35-5.95a11.36 11.36 0 0 0-1.9-4.77 11.8 11.8 0 0 0-9.87-4.97c-4.06 0-7.7 1.9-9.87 4.97a11.37 11.37 0 0 0-1.89 4.77c-.28 1.82-.21 3.85.35 5.95 1.05 4.62 3.92 9.87 8.47 15.54-2.87 3.23-5.46 5.4-7.98 6.8a13.74 13.74 0 0 1-5.32 1.82 10.4 10.4 0 0 1-11.7-8.9c-.2-1.75-.06-3.5.64-5.46.2-.7.56-1.4.9-2.24.5-1.12 1.06-2.31 1.62-3.5l.07-.14a763.67 763.67 0 0 1 15.4-31.44l.21-.42c.56-1.05 1.12-2.17 1.68-3.22a15.38 15.38 0 0 1 1.96-3.09 7.32 7.32 0 0 1 11.2 0c.78.92 1.4 1.97 1.97 3.09.56 1.05 1.12 2.17 1.68 3.22l.2.42a927.35 927.35 0 0 1 15.34 31.51v.07c.56 1.12 1.05 2.38 1.61 3.5.35.84.7 1.54.91 2.24.56 1.82.77 3.57.49 5.4a10.4 10.4 0 0 1-6.37 8.19zM1468 3374.2c-3.78-4.76-6.24-9.24-7.07-13.02a11.3 11.3 0 0 1-.21-4.27c.13-1.12.56-2.1 1.12-2.95a7.44 7.44 0 0 1 6.16-3.08c2.6 0 4.9 1.12 6.16 3.08.56.85.98 1.83 1.12 2.95.21 1.26.14 2.73-.2 4.27-.85 3.71-3.3 8.2-7.08 13.02zm30.53-6.16c-.56-1.26-1.12-2.45-1.61-3.57l-.07-.07a730.06 730.06 0 0 0-15.48-31.65l-.2-.42c-.58-1.1-1.14-2.2-1.69-3.3-.7-1.26-1.4-2.59-2.52-3.85a11.31 11.31 0 0 0-8.9-4.34c-3.5 0-6.64 1.54-8.95 4.2a24.01 24.01 0 0 0-2.53 3.85 152 152 0 0 1-1.68 3.3l-.2.42a821.54 821.54 0 0 0-15.48 31.65l-.07.14-1.61 3.57c-.35.77-.7 1.61-1.05 2.52a14.88 14.88 0 0 0 15.76 20.17 18.5 18.5 0 0 0 7-2.38c2.87-1.61 5.6-3.92 8.68-7.28 3.08 3.36 5.88 5.67 8.68 7.28a18.5 18.5 0 0 0 8.83 2.52c1.96 0 3.92-.35 5.67-1.12a14.86 14.86 0 0 0 9.1-11.63c.56-2.45.28-4.9-.63-7.49-.35-.84-.7-1.75-1.05-2.52z"/></defs><g><g transform="translate(-1435 -3320)"><use fill="#ff5d62" xlink:href="#7ajia"/></g></g></svg>