<svg xmlns="http://www.w3.org/2000/svg" xmlns:xlink="http://www.w3.org/1999/xlink" width="24" height="26" viewBox="0 0 24 26"><defs><path id="fti4a" d="M1266.24 5824.64c-.3.3-.39.8-.39 1.4v22.1c0 .6.2 1.1.5 1.4l.1.1 12.2-12.4v-.2z"/><path id="fti4c" d="M1282.6 5841.44l-4.04-4.1v-.3l4.04-4.1.1.1 4.82 2.8c1.38.8 1.38 2.1 0 2.9l-4.92 2.7z"/><path id="fti4e" d="M1282.72 5841.34l-4.14-4.2-12.33 12.5c.5.5 1.19.5 2.07.1l14.4-8.4"/><path id="fti4g" d="M1282.72 5832.94l-14.4-8.3c-.88-.5-1.57-.4-2.07.1l12.33 12.4 4.14-4.2z"/><path id="fti4i" d="M1282.62 5841.24l-14.3 8.2c-.78.5-1.47.4-1.97 0l-.1.1.1.1c.5.4 1.19.5 1.97 0z"/><path id="fti4j" d="M1287.52 5838.44l-4.92 2.8.1.1 4.82-2.8c.7-.4.99-.9.99-1.4 0 .5-.4.9-.99 1.3zm-21.28 11c-.3-.3-.39-.8-.39-1.4v.1c0 .6.2 1.1.5 1.4v-.1z"/><path id="fti4k" d="M1268.31 5824.74l19.21 11.1c.6.4.99.8.99 1.3 0-.5-.3-1-.99-1.4l-19.2-11.1c-1.39-.8-2.47-.2-2.47 1.4v.1c0-1.5 1.08-2.2 2.46-1.4z"/><linearGradient id="fti4b" x1="1277.48" x2="1260.94" y1="5825.85" y2="5842.63" gradientUnits="userSpaceOnUse"><stop offset="0" stop-color="#00a0ff"/><stop offset=".01" stop-color="#00a1ff"/><stop offset=".26" stop-color="#00beff"/><stop offset=".51" stop-color="#00d2ff"/><stop offset=".76" stop-color="#00dfff"/><stop offset="1" stop-color="#00e3ff"/></linearGradient><linearGradient id="fti4d" x1="1289.33" x2="1265.49" y1="5837.14" y2="5837.14" gradientUnits="userSpaceOnUse"><stop offset="0" stop-color="#ffe000"/><stop offset=".41" stop-color="#ffbd00"/><stop offset=".78" stop-color="orange"/><stop offset="1" stop-color="#ff9c00"/></linearGradient><linearGradient id="fti4f" x1="1280.46" x2="1258.04" y1="5839.44" y2="5862.2" gradientUnits="userSpaceOnUse"><stop offset="0" stop-color="#ff3a44"/><stop offset="1" stop-color="#c31162"/></linearGradient><linearGradient id="fti4h" x1="1263.19" x2="1273.2" y1="5817.31" y2="5827.48" gradientUnits="userSpaceOnUse"><stop offset="0" stop-color="#32a071"/><stop offset=".07" stop-color="#2da771"/><stop offset=".48" stop-color="#15cf74"/><stop offset=".8" stop-color="#06e775"/><stop offset="1" stop-color="#00f076"/></linearGradient></defs><g><g transform="translate(-1265 -5824)"><g><use fill="url(#fti4b)" xlink:href="#fti4a"/></g><g><use fill="url(#fti4d)" xlink:href="#fti4c"/></g><g><use fill="url(#fti4f)" xlink:href="#fti4e"/></g><g><use fill="url(#fti4h)" xlink:href="#fti4g"/></g><g opacity=".2"><use xlink:href="#fti4i"/></g><g opacity=".12"><use xlink:href="#fti4j"/></g><g opacity=".25"><use fill="#fff" xlink:href="#fti4k"/></g></g></g></svg>