<svg xmlns="http://www.w3.org/2000/svg" width="25" height="25" viewBox="0 0 48 48"><path d="M47.762 24c0 13.12-10.64 23.76-23.76 23.76S.24 37.12.24 24C.24 10.876 10.88.24 24 .24S47.763 10.876 47.763 24m-9.73-11.625a12.141 12.141 0 0 1-3.87 1.48 6.095 6.095 0 0 0-10.541 4.17c0 .478.055.94.157 1.388a17.306 17.306 0 0 1-12.56-6.367 6.075 6.075 0 0 0-.824 3.064 6.09 6.09 0 0 0 2.71 5.07 6.062 6.062 0 0 1-2.76-.762v.077a6.1 6.1 0 0 0 4.89 5.975 6.086 6.086 0 0 1-2.753.105 6.105 6.105 0 0 0 5.692 4.233 12.226 12.226 0 0 1-7.567 2.607c-.492 0-.977-.027-1.453-.084a17.236 17.236 0 0 0 9.34 2.737c11.21 0 17.337-9.283 17.337-17.337 0-.263-.005-.527-.018-.79a12.354 12.354 0 0 0 3.04-3.15c-1.092.484-2.267.81-3.5.957a6.113 6.113 0 0 0 2.68-3.372" fill="#525252"/></svg>