<svg width="62" height="51" fill="none" xmlns="http://www.w3.org/2000/svg"><path d="M47.025.056c-2.492 0-4.519 2.033-4.519 4.531 0 2.498 2.027 4.53 4.519 4.53s4.519-2.032 4.519-4.53-2.027-4.53-4.519-4.53z" fill="#86A1D9"/><path fill-rule="evenodd" clip-rule="evenodd" d="M27.236 48.636c0 .438.009.877-.001 1.315-.01.385-.17.696-.504.9a1.03 1.03 0 0 1-1.212-.111 1.238 1.238 0 0 1-.193-.218 905.21 905.21 0 0 1-1.776-2.454l-.085-.119a.33.33 0 0 0-.347-.136c-.133.026-.212.116-.241.245a.964.964 0 0 0-.02.21c-.002.84 0 1.683 0 2.525 0 .046.001.091-.03.13-.038.043-.08.072-.14.072-.122 0-.242.002-.364 0-.099-.003-.163-.066-.173-.168-.002-.02 0-.038 0-.058 0-.853-.002-1.706.002-2.56.001-.275.072-.533.255-.75a.986.986 0 0 1 .741-.363c.3-.015.563.089.776.298.085.081.153.181.223.278l1.723 2.381c.032.045.061.09.099.128.14.144.444.153.539-.117a.66.66 0 0 0 .03-.2c.002-.847.002-1.694.002-2.542 0-.03-.002-.06.003-.088a.158.158 0 0 1 .148-.14c.132-.003.264-.003.396 0 .095.002.154.067.154.164.002.15 0 .297 0 .445-.005.314-.005.624-.005.933zm-5.991 2.362c-.077 0-.153.004-.227 0a.307.307 0 0 1-.272-.161c-.383-.665-.764-1.33-1.149-1.995-.118-.206-.23-.417-.39-.597-.154-.173-.327-.321-.552-.396a.813.813 0 0 0-.524.004c-.192.067-.35.186-.49.334-.188.2-.317.437-.45.67-.287.496-.572.994-.857 1.49l-.27.471a.33.33 0 0 1-.313.18l-.405-.001c-.024 0-.049 0-.07-.007-.059-.016-.08-.055-.057-.11.022-.053.051-.103.08-.15.366-.637.73-1.275 1.098-1.912.151-.262.3-.525.465-.78.188-.294.432-.539.735-.717.571-.335 1.232-.293 1.776.113.294.218.516.497.697.811l.944 1.635.546.948a.119.119 0 0 1 .012.02c.044.09.013.142-.087.149-.015.001-.032 0-.047 0l-.193.001zM10.227 47.1c.067 0 .136.002.202-.001a.317.317 0 0 1 .3.171l.292.505.896 1.559c.104.18.207.36.346.518.153.172.324.32.546.392.25.082.49.043.715-.091.23-.138.404-.335.54-.561.221-.367.431-.738.643-1.107.236-.406.468-.815.704-1.221a.309.309 0 0 1 .286-.165h.437c.017 0 .033-.002.05.001.06.009.09.061.066.121-.012.029-.03.056-.046.085-.365.636-.729 1.271-1.095 1.903-.166.288-.33.578-.51.857a2.11 2.11 0 0 1-.768.729c-.471.253-.95.272-1.436.046a2.074 2.074 0 0 1-.837-.745c-.139-.203-.26-.417-.381-.63-.26-.444-.514-.889-.77-1.332-.166-.288-.33-.577-.497-.864-.005-.01-.011-.018-.015-.029-.04-.085-.007-.139.083-.142l.25.001z" fill="#fff"/><path d="M7.22 46.988c-.06-.058-.166-.062-.232-.026a.27.27 0 0 0-.08.07l-.996 1.388-1.002-1.398a.228.228 0 0 0-.07-.062.208.208 0 0 0-.097-.022c-.055 0-.1.016-.138.048a.153.153 0 0 0-.06.124c0 .037.014.076.042.114l1.12 1.54v1.738c0 .051.022.095.061.131a.21.21 0 0 0 .14.05.203.203 0 0 0 .143-.05.169.169 0 0 0 .06-.13v-1.736l1.123-1.54a.191.191 0 0 0 .037-.114.169.169 0 0 0-.05-.125z" fill="#fff"/><path fill-rule="evenodd" clip-rule="evenodd" d="M2.598 48.566c.21.116.373.264.489.463.23.396.162.948-.148 1.284-.232.252-.517.36-.849.367-.273.007-.546.002-.819 0-.184 0-.254-.073-.254-.258a997.595 997.595 0 0 1 0-3.19c0-.176.063-.24.236-.241.232 0 .464.003.696 0 .49-.007.92.442.904.904-.009.224-.058.421-.202.595-.019.02-.03.044-.053.076zm-1.201 1.742c.26 0 .507.004.75-.001a.733.733 0 0 0 .655-1.024c-.13-.3-.371-.45-.698-.458-.2-.005-.4-.002-.6 0-.036 0-.07.006-.107.01v1.473zm.001-1.844c.206 0 .406.009.602-.001a.498.498 0 0 0 .353-.186c.149-.176.188-.373.091-.584-.093-.207-.252-.33-.488-.328-.15.002-.3 0-.45.002-.035 0-.07.005-.108.01v1.087zm39.62.316c.212.116.373.264.488.463.23.396.163.948-.147 1.283a1.13 1.13 0 0 1-.85.367c-.272.005-.545.003-.818.002-.185-.002-.254-.073-.254-.259a997.595 997.595 0 0 1 0-3.19c0-.176.063-.24.235-.24.233 0 .465.002.697 0 .49-.01.92.44.903.903-.008.224-.057.423-.201.595-.017.02-.03.044-.053.077zm-1.202 1.742c.261 0 .507.004.753-.001a.732.732 0 0 0 .653-1.023c-.131-.301-.372-.45-.697-.46-.2-.004-.4 0-.6 0-.036 0-.07.008-.107.011-.002.491-.002.974-.002 1.474zm.002-1.843c.205 0 .405.008.602-.004a.495.495 0 0 0 .352-.185c.15-.177.187-.374.092-.585-.093-.207-.253-.33-.488-.328-.151.002-.3 0-.451.002-.034 0-.068.007-.107.01v1.09zm6.811.368c.028.942-.755 1.843-1.833 1.846a1.837 1.837 0 0 1-1.839-1.842c-.003-1.052.887-1.856 1.851-1.85 1.014.01 1.85.876 1.82 1.846zm-.358 0c.007-.827-.726-1.514-1.543-1.478-.666.027-1.412.62-1.412 1.485.002.814.714 1.496 1.507 1.474.788-.024 1.45-.68 1.448-1.48zm-8.144.013c.018.946-.773 1.831-1.833 1.833a1.847 1.847 0 0 1-1.842-1.844 1.863 1.863 0 0 1 1.866-1.847c.978.013 1.84.85 1.809 1.857zM36.3 47.578c-.725-.058-1.473.61-1.486 1.443-.014.824.686 1.492 1.447 1.506.78.013 1.51-.63 1.507-1.49-.002-.87-.776-1.513-1.468-1.459zm-5.18 1.835v.165c0 .351.001.703-.002 1.055 0 .05-.003.102-.019.148-.027.073-.11.114-.186.102-.09-.016-.14-.063-.148-.153-.003-.03 0-.065 0-.097v-3.178c0-.207.044-.252.244-.252h.902c.595.016 1.087.561 1.048 1.158-.028.404-.222.703-.563.912-.024.014-.046.03-.078.051l.352.571c.143.228.287.454.428.683.086.138.042.267-.1.301-.084.02-.151-.012-.212-.108l-.353-.568c-.144-.233-.29-.464-.432-.697-.039-.063-.083-.095-.163-.093-.232.005-.464 0-.718 0zm.005-.367h.79c.335-.004.718-.334.68-.804-.024-.327-.316-.646-.625-.66-.27-.012-.545 0-.818.002-.007 0-.014.01-.027.019v1.442zm24.317-1.467c-.667-.04-1.227.457-1.403.977a1.48 1.48 0 0 0 1.156 1.95c.408.06.785-.017 1.12-.272a.305.305 0 0 1 .175-.056c.074-.002.127.059.14.127.014.083-.005.153-.076.206-.22.158-.458.283-.724.336-.637.126-1.201-.022-1.67-.474a1.75 1.75 0 0 1-.543-1.076c-.053-.437.02-.846.254-1.217a1.825 1.825 0 0 1 2.666-.5c.044.036.09.082.109.133a.157.157 0 0 1-.054.185.187.187 0 0 1-.207.017c-.02-.01-.038-.025-.056-.039a1.288 1.288 0 0 0-.887-.297zm4.556 2.276c.03.46-.388.904-.845 1.004a1.064 1.064 0 0 1-.995-.27 1.276 1.276 0 0 1-.18-.204c-.064-.092-.044-.194.037-.253.08-.058.187-.045.253.044.127.168.28.294.493.338a.743.743 0 0 0 .878-.695.722.722 0 0 0-.478-.72 2.905 2.905 0 0 0-.285-.09 1.324 1.324 0 0 1-.422-.188.706.706 0 0 1-.293-.414c-.122-.457.039-.88.478-1.107a.909.909 0 0 1 1.158.316c.027.041.045.09.05.138.01.082-.033.141-.108.17-.076.029-.147.015-.2-.042-.046-.05-.085-.108-.132-.155a.542.542 0 0 0-.73-.014.547.547 0 0 0-.08.75.43.43 0 0 0 .149.115c.095.044.195.075.293.109.115.04.237.066.347.12.4.196.61.517.612 1.048zm-11.32-2.276c-.305 0-.587.002-.87-.002a.874.874 0 0 1-.188-.02c-.097-.022-.132-.078-.127-.18.003-.087.05-.146.136-.165.035-.007.07-.005.108-.005h2.254c.036 0 .073-.002.109.007.08.018.132.086.135.168a.172.172 0 0 1-.122.177.755.755 0 0 1-.174.022l-.738.001c-.044 0-.09.005-.149.007v.168l-.001 2.835c0 .055-.004.11-.016.162-.022.088-.098.146-.176.142-.08-.003-.164-.08-.178-.165-.005-.04-.002-.081-.002-.123v-2.849l-.001-.18zm3.061 1.46v-1.56c0-.036-.004-.073.001-.11a.177.177 0 0 1 .187-.164c.093.004.157.066.168.165.003.03 0 .065 0 .097v3.176c0 .027.003.054 0 .082a.176.176 0 0 1-.17.163.184.184 0 0 1-.183-.153c-.005-.036-.003-.073-.003-.109V49.04z" fill="#fff"/><path d="M60.076 45.772H.71v.232h59.366v-.232zm-37.401-1.57a1.062 1.062 0 0 1-1.056-1.067V3.256c0-.96-.354-1.023-.567-1.062-1.282-.23-4.4 1.258-7.87 4.548-3.792 3.594-6.906 8.25-8.545 12.773C.051 32.171 3.171 42.51 3.204 42.611a1.07 1.07 0 0 1-.689 1.338 1.053 1.053 0 0 1-1.323-.694c-.141-.447-3.384-11.099 1.464-24.474 1.75-4.825 5.06-9.78 9.083-13.596 3.792-3.594 7.41-5.5 9.684-5.092.695.125 2.31.682 2.31 3.163v39.88a1.064 1.064 0 0 1-1.058 1.066z" fill="#fff"/><path d="M22.07 17.408H5.77c-.6 0-1.087-.491-1.087-1.098 0-.605.487-1.096 1.087-1.096h16.3c.6 0 1.087.491 1.087 1.096 0 .608-.487 1.098-1.087 1.098zm10.895-1.318c2.914-1.51 4.872-4.278 4.872-7.44 0-4.768-4.455-8.65-9.931-8.65-.705 0-1.415.066-2.11.197a.963.963 0 0 0-.788.959c.052 4 .091 9.196.11 15.023 0 .051.006.099.013.148a.92.92 0 0 0-.013.138c.029 9.107.008 19.076-.055 26.666a.968.968 0 0 0 .87.967c.675.07 1.339.104 1.974.104 9.172 0 16.633-6.46 16.633-14.398 0-6.414-4.868-11.857-11.575-13.715zM27.907 1.926c4.407 0 7.992 3.015 7.992 6.723 0 3.707-3.585 6.724-7.992 6.724-.284 0-.569.015-.854-.01-.018-5.097-.05-9.708-.096-13.387.317-.034.634-.05.95-.05zm0 40.348c-.296 0-.594-.009-.898-.026.056-7.22.075-16.412.051-24.924.288-.016.571.006.848.006 8.103 0 14.695 5.595 14.695 12.471 0 6.878-6.592 12.473-14.696 12.473zM57.481.056c-2.491 0-4.519 2.033-4.519 4.53 0 2.5 2.028 4.532 4.52 4.532 2.49 0 4.518-2.033 4.518-4.531a4.53 4.53 0 0 0-4.519-4.53zm-9.4 42.948c0 .619-.478 1.122-1.066 1.122-.59 0-1.066-.502-1.066-1.122V14.492c0-.62.478-1.12 1.066-1.12.59 0 1.066.5 1.066 1.12v28.512zm10.466 0c0 .619-.478 1.122-1.066 1.122-.59 0-1.066-.502-1.066-1.122V14.492c0-.62.478-1.12 1.066-1.12.59 0 1.066.5 1.066 1.12v28.512z" fill="#fff"/></svg>