<svg width="39" height="36" fill="none" xmlns="http://www.w3.org/2000/svg"><path d="M16.353 29.157a3.43 3.43 0 0 0-3.43 3.421 3.43 3.43 0 0 0 6.86 0 3.43 3.43 0 0 0-3.43-3.421zm0 4.932a1.515 1.515 0 0 1-1.515-1.51 1.515 1.515 0 0 1 3.03 0c0 .833-.68 1.51-1.515 1.51zm12.031-4.932a3.43 3.43 0 0 0-3.43 3.421 3.43 3.43 0 0 0 6.86 0 3.43 3.43 0 0 0-3.43-3.421zm0 4.932a1.515 1.515 0 0 1-1.515-1.51 1.515 1.515 0 0 1 3.03 0c0 .833-.68 1.51-1.515 1.51zM38.569 6.887a1.91 1.91 0 0 0-1.485-.704H7.258l-.603-2.917A1.914 1.914 0 0 0 5.542 1.9L1.339.08A.958.958 0 0 0 .08.575a.954.954 0 0 0 .497 1.257l4.203 1.82 4.634 22.435a1.921 1.921 0 0 0 1.875 1.525h22.94a.956.956 0 1 0 0-1.91h-22.94l-.563-2.73h23.681c.904 0 1.693-.64 1.876-1.524l2.678-12.97a1.9 1.9 0 0 0-.391-1.591zm-4.163 14.175H10.33L7.652 8.093h29.432l-2.678 12.97z" fill="#fff"/></svg>