<svg xmlns="http://www.w3.org/2000/svg" xmlns:xlink="http://www.w3.org/1999/xlink" width="23" height="25" viewBox="0 0 23 25"><defs><path id="134ua" d="M446.32 6240.26v-1.41c0-.82-.65-1.49-1.45-1.49h-1.38c-.8 0-1.46.67-1.46 1.49v1.41c0 .82.65 1.49 1.46 1.49h1.38c.8 0 1.45-.67 1.45-1.49zm0 13.7v-7.43c0-.82-.75-1.5-1.55-1.5h-.82l-.16.02c-.3.06-.5.29-.53.58l.01.15v.1a5.88 5.88 0 0 1-5.76 6.59h-.07.04a5.81 5.81 0 0 1-5.63-5.94c0-.22-.06-.43-.04-.65 0-.03-.07-.07-.07-.1v-.15a.62.62 0 0 0-.52-.58.89.89 0 0 0-.16-.01h-.82c-.8 0-1.6.67-1.6 1.5v7.42c0 .82.8 1.49 1.6 1.49h14.53c.8 0 1.55-.67 1.55-1.49zm-.23-19.34c1.6 0 2.91 1.34 2.91 2.98v17.62c0 1.64-1.3 2.97-2.9 2.97h-17.24c-1.6 0-2.9-1.33-2.9-2.97v-17.62c0-1.64 1.3-2.98 2.9-2.98h17.23s-1.6 0 0 0zM434 6246.5a3.5 3.5 0 1 0 7 0 3.5 3.5 0 0 0-7 0z"/></defs><g><g transform="translate(-426 -6234)"><use fill="#fff" xlink:href="#134ua"/></g></g></svg>