<svg xmlns="http://www.w3.org/2000/svg" xmlns:xlink="http://www.w3.org/1999/xlink" width="43" height="62"><defs><path id="a" d="M460 72.7v53.39c0 .5-.4.9-.9.9h-41.2a.9.9 0 0 1-.9-.9V72.7c0-.5.4-.9.9-.9h19.28a7.65 7.65 0 0 1 7.55-6.8c3.89 0 7.1 2.97 7.55 6.8h6.82c.5 0 .9.4.9.9zm-21.08 41.63a7.56 7.56 0 0 1 11.62 0V72.7c0-3.24-2.6-5.88-5.81-5.88-3.2 0-5.81 2.64-5.81 5.88zM418.8 84.4h18.32v-2.06h-13.47a.9.9 0 0 1-.9-.91v-4.85c0-.5.4-.91.9-.91h13.47V73.6H418.8zm5.75-6.91v3.03h12.57V77.5zm25.99 41.8c0-3.25-2.6-5.89-5.81-5.89-3.2 0-5.81 2.64-5.81 5.88 0 .5-.4.91-.9.91a.9.9 0 0 1-.9-.9v-3.95h-6.76a.9.9 0 0 1-.9-.9c0-.51.4-.92.9-.92h6.76v-3.03h-3.89a.9.9 0 0 1-.9-.91c0-.5.4-.91.9-.91h3.9v-3.04h-13.48a.9.9 0 0 1-.9-.9c0-.5.4-.91.9-.91h13.47v-3.04h-13.47c-.75 0-1.17-.92-.68-1.5l5.74-6.8a.9.9 0 0 1 1.37 0l2.93 3.47 4.11-5.72v-4H418.8v38.94h25.93c3.2 0 5.8-2.64 5.8-5.89zm-16.32-21.92l1.34 1.6h1.56v-5.64zm-4.82-2.9l-3.8 4.5h7.6zm28.8 30.7V73.6h-2.03v11.07c0 .5-.4.9-.9.9a.9.9 0 0 1-.9-.9V73.6h-2.04v45.68a7.73 7.73 0 0 1-2.7 5.89h4.74V88.96c0-.5.4-.9.9-.9s.9.4.9.9v36.22zm-27.84-15.6c0 .51-.4.92-.9.92h-5.81a.9.9 0 0 1-.9-.91c0-.5.4-.91.9-.91h5.8c.5 0 .9.4.9.9zm-2.88 4.86c0 .5-.4.91-.9.91h-2.93a.9.9 0 0 1-.9-.9c0-.51.4-.92.9-.92h2.93c.5 0 .9.4.9.91z"/></defs><use fill="#237cc8" xlink:href="#a" transform="translate(-417 -65)"/></svg>