<svg xmlns="http://www.w3.org/2000/svg" xmlns:xlink="http://www.w3.org/1999/xlink" width="65" height="61"><defs><path id="a" d="M769.91 387.78a2.47 2.47 0 0 1-1.16 1.51l-8.25 4.72h3.16a2.56 2.56 0 0 1 2.56 2.55v12.95c0 .52-.43.94-.95.94a.95.95 0 0 1-.96-.94v-12.95c0-.37-.3-.66-.65-.66h-21.63a.95.95 0 0 1-.95-.94c0-.52.42-.95.95-.95h5.18l6-3.44a.96.96 0 0 1 1.3.35.94.94 0 0 1-.35 1.29l-3.14 1.8h5.67l11.1-6.35a.59.59 0 0 0 .23-.81l-12.64-21.67a.6.6 0 0 0-.83-.21l-32.83 18.8.8 1.35a.94.94 0 0 1-.83 1.42.95.95 0 0 1-.83-.47l-.79-1.36-3.42 1.96a.96.96 0 0 1-1.3-.35.94.94 0 0 1 .34-1.28l37.91-21.71a2.52 2.52 0 0 1 3.42.9l12.64 21.67c.34.57.43 1.24.25 1.88zm-45.16 3.06a.96.96 0 0 1-1.3-.35l-1.24-2.11a.94.94 0 0 1 .35-1.3.96.96 0 0 1 1.3.35l1.23 2.12a.94.94 0 0 1-.34 1.29zm9.67-5.24l-5.32 3.04a.95.95 0 0 1-1.3-.35.94.94 0 0 1 .35-1.28l5.31-3.05a.96.96 0 0 1 1.3.35.94.94 0 0 1-.34 1.29zm17.96-7.3l-21.98 12.58a.95.95 0 0 1-1.3-.35.94.94 0 0 1 .35-1.29l21.98-12.58a.96.96 0 0 1 1.3.34.94.94 0 0 1-.35 1.3zm4.73 13.1a.95.95 0 0 1-1.3-.34l-1.69-2.89a.94.94 0 0 1 .35-1.29.96.96 0 0 1 1.3.35l1.68 2.89a.94.94 0 0 1-.34 1.29zm2-1.14a.95.95 0 0 1-1.3-.35l-1.68-2.89a.94.94 0 0 1 .34-1.29.96.96 0 0 1 1.3.35l1.69 2.89a.94.94 0 0 1-.35 1.29zm2-1.15a.95.95 0 0 1-1.3-.34l-1.68-2.9a.94.94 0 0 1 .35-1.28.96.96 0 0 1 1.3.34l1.68 2.89a.94.94 0 0 1-.34 1.29zm2.01-1.15a.96.96 0 0 1-1.3-.34l-1.68-2.9a.94.94 0 0 1 .34-1.28.96.96 0 0 1 1.3.34l1.69 2.89a.94.94 0 0 1-.35 1.3zm2-1.15a.96.96 0 0 1-1.3-.34l-1.68-2.9a.94.94 0 0 1 .35-1.28.96.96 0 0 1 1.3.34l1.69 2.9a.94.94 0 0 1-.35 1.28zM749 375.03a.95.95 0 0 1-1.3-.34l-.74-1.28-.2.11a.95.95 0 0 1-1.3-.34.94.94 0 0 1 .35-1.3l2.04-1.16a.96.96 0 0 1 1.3.35.94.94 0 0 1-.35 1.29l-.2.1.75 1.28a.94.94 0 0 1-.35 1.29zm2.72-1.66a.95.95 0 0 1-1.3-.35l-1.17-2a.94.94 0 0 1 .35-1.29.96.96 0 0 1 1.3.35l1.16 2a.94.94 0 0 1-.34 1.29zm4.18-2.77a.95.95 0 0 1-1.16.67l-.61-.17-.17.6a.95.95 0 0 1-1.84-.48l.17-.6-.61-.16a.94.94 0 1 1 .49-1.83l.61.16.16-.6a.95.95 0 0 1 1.84.49l-.16.6.61.16c.5.14.81.65.67 1.16zm10.33 43.08v7.78c0 1.4-1.15 2.54-2.56 2.54h-54.58a2.56 2.56 0 0 1-2.56-2.54v-24.9c0-.2.02-.4.07-.58l-1.25-2.15a2.47 2.47 0 0 1 .91-3.4l5.86-3.34a.96.96 0 0 1 1.3.34.94.94 0 0 1-.35 1.3l-5.86 3.35a.59.59 0 0 0-.22.8l.85 1.46c.37-.2.8-.33 1.25-.33h6.6l-.79-1.35a.94.94 0 0 1 .35-1.3.96.96 0 0 1 1.3.35l.87 1.48 3.57.05c.46 0 .84.34.92.77h3.6l-.7-1.2a.94.94 0 0 1 .34-1.3.96.96 0 0 1 1.3.35l1.23 2.11.03.04h3.6c0-.32.17-.63.47-.8l21.98-12.58a.96.96 0 0 1 1.3.34.94.94 0 0 1-.35 1.3L734.18 394h3.87a.95.95 0 0 1 0 1.89h-12.26v1.57c0 .52-.43.94-.95.94a.95.95 0 0 1-.96-.94v-1.57h-14.8c-.36 0-.66.3-.66.66v24.9c0 .36.3.65.66.65h14.8v-1.53c0-.52.43-.94.96-.94.52 0 .95.42.95.94v1.53h37.87c.36 0 .65-.3.65-.65v-7.78c0-.53.43-.95.96-.95.52 0 .95.42.95.95zm-40.43 1.79v2.44c0 .52-.43.94-.95.94a.95.95 0 0 1-.96-.94v-2.44c0-.52.43-.94.96-.94.52 0 .95.42.95.94zm0-5.11v2.44c0 .52-.43.94-.95.94a.95.95 0 0 1-.96-.94v-2.44c0-.52.43-.94.96-.94.52 0 .95.42.95.94zm0-5.11v2.44a.95.95 0 1 1-1.9 0v-2.44c0-.52.42-.94.95-.94.52 0 .95.42.95.94zm0-5.11v2.44c0 .52-.43.94-.95.94a.95.95 0 0 1-.96-.94v-2.44c0-.52.43-.94.96-.94.52 0 .95.42.95.94zm11.02 2.7c0 .52-.43.94-.95.94h-6.14a.95.95 0 0 1-.96-.94c0-.52.43-.95.96-.95h6.14c.52 0 .95.43.95.95zm13.76 15.51c0 .52-.43.95-.96.95h-19.9a.95.95 0 0 1-.95-.95c0-.52.43-.94.96-.94h19.9c.52 0 .95.42.95.94zm5.48-12.93c0 .52-.42.95-.95.95h-25.38a.95.95 0 0 1-.96-.95c0-.52.43-.94.96-.94h25.38c.53 0 .95.42.95.94zm0 4.59c0 .52-.42.94-.95.94h-25.38a.95.95 0 0 1-.96-.94c0-.53.43-.95.96-.95h25.38c.53 0 .95.42.95.95zm-2.53 5.77v3.33c0 .53-.43.95-.95.95a.95.95 0 0 1-.96-.95v-3.33a.956.956 0 0 1 1.91 0zm2.32 0v3.33c0 .53-.43.95-.96.95a.95.95 0 0 1-.95-.95v-3.33a.956.956 0 0 1 1.91 0zm2.31 0v3.33c0 .53-.42.95-.95.95a.95.95 0 0 1-.95-.95v-3.33a.95.95 0 1 1 1.9 0zm2.32 0v3.33c0 .53-.43.95-.95.95a.95.95 0 0 1-.96-.95v-3.33a.956.956 0 0 1 1.91 0zm2.31 0v3.33c0 .53-.42.95-.95.95a.95.95 0 0 1-.95-.95v-3.33a.95.95 0 1 1 1.9 0zm-42.1-10.75a.95.95 0 0 1-1.3.33l-2.1-1.24v.99l1.12 1.08c.37.37.38.97.01 1.34a.95.95 0 0 1-1.34 0l-.73-.7-.73.7a.96.96 0 0 1-1.35 0 .94.94 0 0 1 .01-1.34l1.11-1.08v-.99l-2.09 1.24a.96.96 0 0 1-1.3-.33.94.94 0 0 1 .33-1.3l3.06-1.8v-1.72c0-.52.43-.94.96-.94.52 0 .95.42.95.94v1.72l3.07 1.8c.45.27.6.85.33 1.3zm-1.07 9.56a.96.96 0 0 1-1.35 0l-1.98-1.96-2.06 2.04a.95.95 0 0 1-1.34 0 .94.94 0 0 1 0-1.34l2.73-2.7a.96.96 0 0 1 1.34 0l2.66 2.63c.37.36.37.96 0 1.33zm-.75 1.63c0 .52-.43.94-.95.94h-3.33a.95.95 0 0 1-.95-.94c0-.53.42-.95.95-.95h3.33c.52 0 .95.42.95.95zm0 2.13c0 .52-.43.95-.95.95h-3.33a.95.95 0 0 1-.95-.95c0-.52.42-.94.95-.94h3.33c.52 0 .95.42.95.94zm37.08-19.85c0 .52-.43.95-.95.95h-.22v1.46c0 .53-.43.95-.96.95a.95.95 0 0 1-.95-.95v-1.46h-.22a.95.95 0 0 1-.95-.95c0-.52.42-.94.95-.94H755c.52 0 .95.42.95.94zm2.02.01v2.31c0 .52-.43.94-.96.94a.95.95 0 0 1-.95-.94v-2.31c0-.52.43-.94.95-.94.53 0 .96.42.96.94zm4.07 1.6c.37.37.37.96 0 1.33a.95.95 0 0 1-1.35 0l-.45-.44-.44.44a.95.95 0 0 1-1.35 0 .94.94 0 0 1 0-1.33l.45-.45-.45-.44a.94.94 0 0 1 0-1.33.96.96 0 0 1 1.35 0l.44.44.45-.44a.96.96 0 0 1 1.35 0c.37.37.37.96 0 1.33l-.45.44z"/></defs><use fill="#237cc8" xlink:href="#a" transform="translate(-705 -363)"/></svg>