<svg xmlns="http://www.w3.org/2000/svg" xmlns:xlink="http://www.w3.org/1999/xlink" width="48" height="61"><defs><path id="a" d="M448.78 406.28c0 .5-.4.9-.9.9h-23.35a.9.9 0 1 1 0-1.8h23.35c.5 0 .9.4.9.9zm0 4.3c0 .5-.4.9-.9.9h-23.35a.9.9 0 1 1 0-1.8h23.35c.5 0 .9.4.9.9zm.88-23.23a13.28 13.28 0 0 1-2.51 7.8 13.47 13.47 0 0 1-24.4-7.8 13.28 13.28 0 0 1 2.51-7.8 13.47 13.47 0 0 1 24.4 7.8zm-22.4-7.43c.77.43 1.67.8 2.66 1.09.5-1.77 1.2-3.3 2.04-4.47a11.7 11.7 0 0 0-4.7 3.38zm-2.68 6.54h4.54c.05-1.3.18-2.54.4-3.7a15.46 15.46 0 0 1-3.32-1.38c-.9 1.5-1.48 3.23-1.62 5.08zm4.94 5.49c-.22-1.16-.35-2.4-.4-3.7h-4.54a11.5 11.5 0 0 0 1.62 5.07 15.4 15.4 0 0 1 3.32-1.37zm2.44 6.21a14.2 14.2 0 0 1-2.04-4.47c-.99.3-1.89.67-2.67 1.1a11.7 11.7 0 0 0 4.71 3.37zm3.34.61v-5.92c-1.26.04-2.48.18-3.63.41.26.92.58 1.77.96 2.54.76 1.53 1.7 2.57 2.67 2.97zm0-7.72v-2.8h-4.38c.05 1.13.16 2.23.35 3.27 1.28-.26 2.64-.42 4.03-.47zm0-4.6v-2.8c-1.4-.05-2.75-.2-4.03-.47-.19 1.04-.3 2.14-.35 3.28zm0-10.52c-.97.4-1.91 1.44-2.67 2.97-.38.77-.7 1.62-.96 2.54 1.15.23 2.37.37 3.63.42zm7.59 6.82c.22 1.17.35 2.4.4 3.7h4.54a11.49 11.49 0 0 0-1.63-5.07c-.96.55-2.08 1.01-3.31 1.37zm-2.44-6.21a14.2 14.2 0 0 1 2.03 4.47c1-.3 1.9-.66 2.67-1.1a11.7 11.7 0 0 0-4.7-3.37zm-3.35-.6v5.92c1.26-.05 2.49-.2 3.63-.42-.25-.92-.57-1.77-.95-2.54-.76-1.53-1.7-2.57-2.68-2.97zm0 7.71v2.8h4.38a22.89 22.89 0 0 0-.35-3.27c-1.27.26-2.63.42-4.03.47zm0 4.6v2.8c1.4.05 2.76.21 4.04.47.18-1.04.3-2.14.34-3.27zm2.68 7.55c.38-.77.7-1.62.95-2.54a23.05 23.05 0 0 0-3.63-.41v5.92c.97-.4 1.92-1.44 2.68-2.97zm5.37-1.01c-.77-.43-1.68-.8-2.67-1.1a14.2 14.2 0 0 1-2.03 4.47 11.7 11.7 0 0 0 4.7-3.37zm2.68-6.54h-4.54c-.05 1.3-.18 2.54-.4 3.7 1.23.36 2.35.82 3.31 1.37a11.5 11.5 0 0 0 1.63-5.07zm12.37 20.5v-35.3c0-1.39-.7-2.64-1.8-3.38v45.49a5.88 5.88 0 0 1-5.88 5.86h-33.13v.46c0 .73.6 1.33 1.34 1.33h35.38c2.25 0 4.09-1.83 4.09-4.08v-6.8a.9.9 0 0 1 1.8 0v6.8a5.88 5.88 0 0 1-5.9 5.87h-35.37a3.13 3.13 0 0 1-3.14-3.12v-.46h-.46a3.13 3.13 0 0 1-3.13-3.12v-14.57a.9.9 0 0 1 1.8 0v14.57c0 .73.6 1.33 1.33 1.33h35.39c2.25 0 4.09-1.83 4.09-4.07v-45.7a4.07 4.07 0 0 0-4.1-4.07h-28.16a.9.9 0 1 1 0-1.8h28.17a5.9 5.9 0 0 1 5.55 3.92 5.86 5.86 0 0 1 3.93 5.53v35.31a.9.9 0 0 1-1.8 0zm-38.55-43.85c0 .49-.4.9-.9.9h-3.62c-.73 0-1.33.59-1.33 1.32v33.02c0 .5-.4.9-.9.9a.9.9 0 0 1-.9-.9v-33.02c0-1.72 1.4-3.12 3.13-3.12h3.62c.5 0 .9.4.9.9z"/></defs><use fill="#237cc8" xlink:href="#a" transform="translate(-414 -364)"/></svg>