<svg xmlns="http://www.w3.org/2000/svg" xmlns:xlink="http://www.w3.org/1999/xlink" width="49" height="61"><defs><path id="a" d="M1062.81 100.29l-8.49 23.06c.6-.16 1.35-.28 2.41-.28.53 0 .95.43.95.96 0 .52-.42.95-.95.95-1.36 0-2 .21-2.74.46-.78.26-1.66.56-3.34.56-1.67 0-2.56-.3-3.34-.56a7.29 7.29 0 0 0-2.74-.46c-1.37 0-2 .21-2.74.46-.78.26-1.66.56-3.33.56h-.01c-1.67 0-2.56-.3-3.34-.56a7.28 7.28 0 0 0-2.73-.46c-1.37 0-2 .21-2.74.46-.78.26-1.67.56-3.34.56s-2.56-.3-3.34-.56a7.27 7.27 0 0 0-2.73-.46.95.95 0 0 1-.95-.95c0-.53.42-.96.95-.96 1.06 0 1.8.12 2.41.28l-8.5-23.06a3 3 0 0 1 2.34-4 47.8 47.8 0 0 0 1.84-.32l.74-5.94a3 3 0 0 1 1.82-2.39l.2-1.68a3 3 0 0 1 1.82-2.4l.21-1.68a3 3 0 0 1 1.82-2.39l.2-1.68a2.99 2.99 0 0 1 2.96-2.62h5.46l.83-8.41c.1-1.02.94-1.78 1.96-1.78h4.24c1.01 0 1.85.76 1.96 1.78l.83 8.4h5.46c1.5 0 2.76 1.13 2.95 2.63l.21 1.68a3 3 0 0 1 1.82 2.4l.2 1.68a3 3 0 0 1 1.82 2.39l.21 1.68a3 3 0 0 1 1.82 2.4l.74 5.93c.7.14 1.32.24 1.84.32a3 3 0 0 1 2.33 4zm-7.86-10.97h-13.53c5.2 3.45 11.08 5.3 15.25 6.24l-.66-5.29a1.08 1.08 0 0 0-1.06-.95zM1035.5 75.2h6l-.81-8.22a.06.06 0 0 0-.07-.06h-4.24a.06.06 0 0 0-.07.06zm-12.64 12.22h31.28l-.15-1.21a1.08 1.08 0 0 0-1.07-.95h-21.51a.95.95 0 0 1-.95-.96c0-.53.42-.95.95-.95h20.7l-.15-1.22a1.08 1.08 0 0 0-1.07-.95h-3.27a.95.95 0 0 1-.95-.95c0-.53.42-.96.95-.96h2.47l-.15-1.21a1.08 1.08 0 0 0-1.07-.95h-20.74c-.54 0-1 .4-1.07.95l-.15 1.21h16.65c.53 0 .95.43.95.96 0 .52-.42.95-.95.95h-17.45c-.55 0-1 .41-1.07.95l-.15 1.22h2.47a.95.95 0 1 1 0 1.91h-3.28c-.54 0-1 .4-1.07.95zm-2.53 8.15c4.17-.95 10.06-2.79 15.25-6.24h-13.53c-.54 0-1 .41-1.06.95zm40.62 3.13c-.1-.16-.32-.45-.75-.51-4.95-.75-14.22-2.86-21.7-8.6-7.48 5.74-16.75 7.85-21.7 8.6-.43.06-.65.35-.75.51-.17.28-.2.62-.08.93l8.97 24.37c.38.06.82.1 1.4.1 1.37 0 2-.22 2.74-.46.78-.26 1.66-.56 3.34-.56 1.67 0 2.55.3 3.33.56a7.2 7.2 0 0 0 1.8.42V99.57c0-.52.43-.95.95-.95s.95.43.95.95v24.48a7.3 7.3 0 0 0 1.78-.42c.78-.26 1.66-.56 3.34-.56 1.67 0 2.56.3 3.34.56.74.25 1.37.46 2.74.46a8.5 8.5 0 0 0 1.4-.1l8.98-24.37c.11-.3.09-.65-.08-.93zm-21.5-5.23v2.04c0 .53-.43.95-.95.95a.95.95 0 0 1-.95-.95v-2.04a.95.95 0 0 1 1.9 0z"/></defs><use fill="#237cc8" xlink:href="#a" transform="translate(-1014 -65)"/></svg>