<svg xmlns="http://www.w3.org/2000/svg" xmlns:xlink="http://www.w3.org/1999/xlink" width="57" height="40"><defs><path id="a" d="M1051.7 396.37c0 .53-.43.96-.96.96h-2.04a.96.96 0 0 1-.95-.96c0-.53.42-.96.95-.96h2.04c.53 0 .96.43.96.96zm-.35 8.69l-.5 2.05c-.23.89-1.02 1.5-1.93 1.5h-20.85c-.9 0-1.7-.61-1.91-1.5l-.51-2.05a1.98 1.98 0 0 1 1.91-2.47h21.87a1.98 1.98 0 0 1 1.92 2.47zm-1.86-.52c-.02-.03-.05-.03-.06-.03h-21.87s-.03 0-.05.03a.06.06 0 0 0 0 .05l.5 2.05c.01.03.04.05.06.05h20.85c.03 0 .06-.02.07-.05l.5-2.05v-.05zm13.5-7.2c-.48 0-.92-.12-1.32-.31l2.19 2.74a5.1 5.1 0 0 1 1.1 3.17V422c0 1.1-.89 1.99-1.98 1.99h-3.06c-1.09 0-1.97-.9-1.97-1.99v-4.16h-38.9V422c0 1.1-.88 1.99-1.97 1.99h-3.06c-1.1 0-1.98-.9-1.98-1.99v-19.07c0-1.15.4-2.27 1.1-3.17l2.19-2.74c-.4.2-.84.3-1.31.3H1013a3 3 0 0 1 0-6.02h1.02a3 3 0 0 1 2.95 2.53l2.56-7.05a4.03 4.03 0 0 1 3.77-2.66h7.27l.54-2.7a3 3 0 0 1 2.94-2.43h8.9a3 3 0 0 1 2.94 2.42l.53 2.7h7.28c1.68 0 3.2 1.08 3.77 2.67l2.55 7.05a3 3 0 0 1 2.96-2.53h1.02a3 3 0 0 1 0 6.02zm-47.89-3.02c0-.6-.49-1.09-1.08-1.09H1013a1.09 1.09 0 0 0 0 2.18h1.02c.6 0 1.08-.49 1.08-1.1zm17.43-10.2h11.94l-.46-2.32a1.1 1.1 0 0 0-1.06-.88h-8.9c-.51 0-.96.37-1.06.88zm-15.39 37.9v-4.17h-1.08c-.77 0-1.5-.22-2.1-.6V422c0 .04.02.07.06.07h3.06c.03 0 .06-.03.06-.07zm32.65-6.1v-2.11a.06.06 0 0 0-.07-.07h-22.44a.06.06 0 0 0-.07.07v2.11zm13.26 6.1v-4.77c-.62.38-1.34.6-2.1.6h-1.1V422c0 .04.04.07.07.07h3.06c.04 0 .07-.03.07-.07zm-3.59-24.69h-4.64a.96.96 0 0 1-.95-.96c0-.53.42-.96.95-.96h3.74l-2.88-7.97c-.3-.83-1.1-1.39-1.98-1.39h-30.4c-.88 0-1.67.56-1.98 1.4l-2.88 7.96h26.18a.96.96 0 1 1 0 1.92h-27.08l-2.9 3.65a3.16 3.16 0 0 0-.69 1.96v10.87c0 1.16.95 2.11 2.1 2.11h9.25v-2.11c0-1.1.89-1.99 1.98-1.99h22.44c1.1 0 1.98.9 1.98 1.99v2.11h9.24c1.16 0 2.1-.95 2.1-2.11v-10.87c0-.71-.24-1.4-.68-1.96zm3.52-1.92h1.02a1.09 1.09 0 0 0 0-2.18h-1.02a1.09 1.09 0 0 0 0 2.18zm-40.87 16.35c0 1.1-.88 1.98-1.97 1.98a1.98 1.98 0 0 1 0-3.97c1.09 0 1.97.89 1.97 1.99zm36.73 0c0 1.1-.89 1.98-1.98 1.98a1.98 1.98 0 0 1 0-3.97c1.1 0 1.98.89 1.98 1.99zm-35.7-6.67a3.52 3.52 0 0 1-3.51 3.52 3.52 3.52 0 0 1 0-7.05c1.93 0 3.5 1.58 3.5 3.53zm-1.92 0a1.6 1.6 0 1 0-1.6 1.6c.89 0 1.6-.72 1.6-1.6zm39.66 0a3.52 3.52 0 0 1-3.5 3.52 3.52 3.52 0 0 1 0-7.05c1.93 0 3.5 1.58 3.5 3.53zm-1.91 0a1.6 1.6 0 1 0-1.6 1.6c.88 0 1.6-.72 1.6-1.6z"/></defs><use fill="#237cc8" xlink:href="#a" transform="translate(-1010 -384)"/></svg>