<svg version="1" xmlns="http://www.w3.org/2000/svg" width="221" height="199" viewBox="0 0 2210 1990"><g fill="#237cc8"><path d="M503 1965c-26-16-48-40-60-65l-18-39-63-1c-53 0-67-4-87-25-24-23-25-29-25-168 0-137 1-144 23-165 13-12 28-22 34-22s23-39 38-87c45-145 68-157 295-151l125 3v30c0 30-1 30-57 33l-58 3v159l223 2 222 3 3 28c2 15 2 28 0 29s-178 5-392 8c-299 4-390 8-394 18-2 7 6 12 23 12 37 0 75 41 75 83 0 41-34 77-73 77-22 0-27 5-27 23 0 34 19 47 66 47 39 0 43-2 49-31 4-17 21-47 38-66 98-111 287-70 322 70l7 27h714l20-48c30-71 80-105 159-110 98-6 175 44 191 127 7 35 23 39 64 15 24-14 60-61 60-78 0-3-24-6-52-8-49-3-53-5-53-28 0-22 5-26 43-30l44-5-25-23c-34-32-262-71-311-54-48 18-161 16-176-3-10-12-42-15-164-15-83 0-157-4-164-9-8-4-12-19-10-32 3-21 9-24 56-27l52-3v-159h-210c-190 0-210-2-219-18-6-11-6-24 0-35 9-15 35-17 277-17 159 0 283 4 307 11 30 8 58 30 110 85 59 62 75 74 102 74 30 0 64 28 75 62 2 6 66 21 141 33 114 19 144 28 173 50 48 36 67 85 62 153-7 81-59 139-135 149-33 4-43 11-56 38-26 54-80 88-148 93-32 2-70 2-83-2-35-9-91-60-106-96l-12-30H791l-23 42c-32 59-86 88-163 88-46 0-70-6-102-25zm189-74c15-17 31-43 34-57 15-58-54-134-122-134-43 0-96 38-112 81-42 111 119 200 200 110zm1068 23c66-40 78-114 28-169-77-83-208-35-208 75 0 84 104 138 180 94zM343 1663c8-7-11-33-24-33-5 0-9 9-9 20 0 19 20 27 33 13zm1265-175c3-15-4-18-47-18-45 0-51 3-51 21s5 20 47 17c36-2 49-7 51-20zm-1018-98v-80h-63c-74 0-95 16-116 89-7 23-15 49-18 57-4 11 14 14 96 14h101v-80zm857 63c3-10 12-25 19-33 10-13 7-21-21-52-43-47-65-58-109-58h-36v160h70c58 0 72-3 77-17z"/><path d="M549 1871c-34-35-37-68-8-105 16-21 29-26 64-26s48 5 64 26c34 43 21 102-26 123-39 18-63 13-94-18zm71-56c0-8-7-15-15-15s-15 7-15 15 7 15 15 15 15-7 15-15zm1050 78c-35-13-50-37-50-79 0-52 25-74 82-74 62 0 95 54 72 115-12 30-69 51-104 38zm41-78c-1-15-24-12-29 3-3 9 2 13 12 10 10-1 17-7 17-13zM12 1061c-8-5-12-21-10-37 3-26 7-30 48-34 78-10 133-51 204-156l65-94h-60c-78 0-109-26-109-94 0-37 5-48 31-70 17-14 34-26 39-26s11-13 15-30c21-94 144-140 239-89 21 11 42 17 46 12 4-4 73-106 154-226L822-1l36 3c34 3 40 10 175 209 124 184 138 208 128 228-15 27-38 27-67 0l-22-20-22 35c-30 50-67 49-108-1-29-36-31-37-49-20-28 25-58 21-83-10l-22-28-19 25c-11 14-27 33-34 43-22 26-60 21-84-10l-21-28-19 25-20 25 29 8c15 4 40 21 54 37 13 17 34 30 45 30s33 12 50 26c26 22 31 33 31 70 0 65-33 96-98 92-45-3-47-4-47-33 0-25 5-30 33-36 18-4 35-9 39-12 12-13-10-27-42-27-35 0-65-21-65-45s-37-36-89-29c-47 6-50 5-65-24-18-34-33-42-85-42-49 0-71 24-71 76 0 47-14 64-51 64-28 0-47 16-34 28 4 4 79 9 168 12l162 5v60l-71 3c-71 3-72 3-98 42-14 22-22 40-17 40 6 0 13-4 16-10 13-21 64-8 133 34l72 45 65-30c35-16 70-29 77-29s42 18 77 39l64 40 98-50c54-27 110-49 125-49 14 0 65 18 112 40l85 40 43-16 42-16-99-146c-54-80-99-153-99-162 0-24 25-43 47-36 10 3 31 26 47 52 16 25 32 42 36 37 4-4 51-72 104-151 94-137 99-143 129-140 29 3 42 18 132 150 97 144 100 147 122 133 12-8 37-15 55-15 19 0 41-9 55-21 14-14 40-24 71-27 67-6 108 17 133 74 11 24 24 44 30 44 17 0 42 66 35 94-14 57-36 66-155 66h-110l42 61c50 72 113 110 197 119 52 5 55 7 58 34 2 16-2 32-10 37-7 5-169 9-360 9-302 0-349-2-362-16-19-18-19-20-6-45 10-18 24-19 238-20h227l-81-41-80-41-97 37c-54 20-105 36-113 36-9 0-43-12-76-27l-59-26-73 23-72 22-93-43-93-43-101 52-102 51h232c219 1 233 2 243 20 13 25 13 27-6 45-14 14-89 16-677 16-364 0-668-4-675-9zm780-111l-62-39-66 29c-36 17-71 30-77 30-5 0-45-20-88-45l-77-46-79 47c-43 26-82 51-87 56-6 4 127 8 294 8h303l-61-40zm895-91c90-33 91-33 127-16l36 17-16-25c-12-19-25-25-51-25-64 0-104-72-73-130 15-29-9-37-30-10-21 28-68 30-87 4-9-12-16-15-21-8-4 6-17 27-30 47-20 31-29 37-57 37-29 0-37-7-65-50-32-50-52-59-58-27-2 8 23 55 55 103 45 67 67 91 98 105 47 22 53 21 172-22zm411-136c2-8-5-13-16-13-25 0-46-25-38-46 3-8 1-24-4-35-15-27-75-26-92 1-10 15-24 20-56 20-36 0-44 4-52 25-5 14-17 28-25 30-8 3-22 7-31 10-8 3-12 10-9 15 10 16 317 9 323-7zm-561-145c23-37 64-38 83-3 12 22 15 24 23 9 7-12-4-36-44-95-30-43-56-79-59-79s-29 37-58 81l-53 81 27 41 26 40 19-24c11-13 27-36 36-51zm-515-243c-4-7-43-64-86-128-92-134-68-139-185 36-53 79-69 112-63 123 7 13 16 6 45-35 21-28 44-51 52-51 15 0 65 49 65 64 0 5 11-3 25-18 34-37 51-33 88 20l32 45 17-21c10-12 15-28 10-35z"/></g></svg>