<svg xmlns="http://www.w3.org/2000/svg" xmlns:xlink="http://www.w3.org/1999/xlink" width="57" height="57"><defs><path id="a" d="M161.85 401.3v-27.8h-48.7v44.9h12.33V414h-9.43a.85.85 0 0 1-.84-.85v-36.12c0-.47.38-.85.84-.85h42.9c.46 0 .84.38.84.85v36.12c0 .47-.38.84-.84.84h-9.43v4.4h12.33v-13.13a.85.85 0 1 1 1.7 0v13.14h1.6c.47 0 .85.37.85.84v3.92c0 .47-.38.85-.85.85h-55.3a.85.85 0 0 1-.85-.85v-3.92c0-.47.38-.84.85-.84h1.6v-44.9h-1.6a.85.85 0 0 1-.85-.85v-4.8c0-.46.38-.84.85-.84h6.33a.85.85 0 0 1 0 1.7h-5.49v3.1h53.62v-3.1h-44.18a.85.85 0 1 1 0-1.7h45.02c.47 0 .85.38.85.85v4.79c0 .47-.38.85-.85.85h-1.6v27.81a.85.85 0 0 1-1.7 0zm-7.77 3.65h-4.56v7.34h4.56zm1.7-19.75h2.32v-7.33h-2.33zm0 9.03h2.32v-7.33h-2.33zm0 9.03h2.32v-7.34h-2.33zm0 9.03h2.32v-7.34h-2.33zm-17.43-27.09h15.73v-7.33h-15.73zm0 9.03h15.73v-7.33h-15.73zm0 9.03h15.73v-7.34h-15.73zm0 14.9h9.48v-13.2h-9.48v5.98h1.97a.85.85 0 0 1 0 1.69h-1.97zm-17.43-32.96h15.73v-7.33h-15.73zm0 9.03h15.73v-7.33h-15.73zm0 9.03h15.73v-7.34h-15.73zm12.91 8.52c0-.46.38-.84.85-.84h1.97v-5.99h-9.48v13.21h9.48v-5.53h-1.97a.85.85 0 0 1-.85-.85zm-14.6-6.83h-2.33v7.34h2.33zm0-9.03h-2.33v7.34h2.33zm0-9.02h-2.33v7.33h2.33zm0-9.03h-2.33v7.33h2.33zm6.25 34.42v-7.34h-4.56v7.34zm-14.79 7.79v2.23h53.62v-2.23z"/></defs><use fill="#237cc8" xlink:href="#a" transform="translate(-109 -367)"/></svg>