<svg xmlns="http://www.w3.org/2000/svg" xmlns:xlink="http://www.w3.org/1999/xlink" width="32" height="32" viewBox="0 0 32 32"><defs><path id="h30za" d="M1559.52 101c-.84 0-1.67-.14-2.46-.42a33.71 33.71 0 0 1-20.7-21.25 7.35 7.35 0 0 1 2.53-8.1l1.58-1.2a4.99 4.99 0 0 1 7.48 1.7l2.66 5.17a3.5 3.5 0 0 1-.53 3.96l-.56.6c-.55.6-.67 1.49-.3 2.21a9.45 9.45 0 0 0 4.1 4.09c.7.37 1.62.24 2.2-.3l.61-.55a3.56 3.56 0 0 1 3.97-.54l5.18 2.67a4.98 4.98 0 0 1 1.28 7.95l-1.8 1.83a7.4 7.4 0 0 1-5.24 2.18zm-16.02-29c-.45 0-.86.14-1.21.4l-1.58 1.2a4.35 4.35 0 0 0-1.5 4.8 30.7 30.7 0 0 0 18.86 19.35c1.56.56 3.39.13 4.55-1.04l1.8-1.82a1.99 1.99 0 0 0-.51-3.19l-5.19-2.66c-.2-.1-.46-.01-.56.08l-.6.55a5.05 5.05 0 0 1-5.62.75 12.42 12.42 0 0 1-5.38-5.37 4.96 4.96 0 0 1 .75-5.62l.55-.6a.49.49 0 0 0 .08-.56l-2.66-5.18a2 2 0 0 0-1.78-1.1z"/></defs><g><g transform="translate(-1536 -69)"><use fill="#135ec5" xlink:href="#h30za"/></g></g></svg>