<svg width="20" height="20" viewBox="0 0 20 20" xmlns="http://www.w3.org/2000/svg" xmlns:xlink="http://www.w3.org/1999/xlink"><g id="Page-1" stroke="none" stroke-width="1" fill="none" fill-rule="evenodd"><g id="phone" transform="translate(-1 -1)" fill="#FFF" fill-rule="nonzero"><path d="M5 9.67A17.34 17.34 0 0 0 12.33 17l2.45-2.44a.88.88 0 0 1 1.11-.23 11.46 11.46 0 0 0 4 .67A1 1 0 0 1 21 16.11v3.78A1 1 0 0 1 19.89 21 18.87 18.87 0 0 1 1 2.11 1 1 0 0 1 2.11 1H6a1 1 0 0 1 1.11 1.11 12.44 12.44 0 0 0 .67 4 1.38 1.38 0 0 1-.22 1.11L5 9.67z" id="Shape"/></g></g></svg>