<svg xmlns="http://www.w3.org/2000/svg" xmlns:xlink="http://www.w3.org/1999/xlink" width="660" height="550" viewBox="0 0 660 550"><defs><path id="yskka" d="M298 192a5 5 0 0 1 5-5h292.73a5 5 0 0 1 0 10H303a5 5 0 0 1-5-5z"/><path id="yskkb" d="M513.34 444.5c-11.18 15.64-36.42 8-36.42-11.67A20.1 20.1 0 0 1 497 412.76a20.1 20.1 0 0 1 16.34 31.73zm11.08-21.08a29 29 0 1 0-54.85 18.83 29 29 0 0 0 54.85-18.83z"/><path id="yskkc" d="M566.89 410.5a4.42 4.42 0 0 0-6.1 1.46l-13.58 22.25-5.23-7.04a4.41 4.41 0 0 0-6.2-.9 4.49 4.49 0 0 0-.9 6.24l7.13 9.61a6.68 6.68 0 0 0 11.09-.5l15.24-24.98a4.48 4.48 0 0 0-1.45-6.14z"/><path id="yskkd" d="M387 518.84a5 5 0 1 1 10 0 5 5 0 0 1-10 0z"/><path id="yskke" d="M387 536.84a5 5 0 1 1 10 0 5 5 0 0 1-10 0z"/><path id="yskkf" d="M120 160a38 38 0 0 1 38-38h584a38 38 0 0 1 38 38v474a38 38 0 0 1-38 38H158a38 38 0 0 1-38-38z"/><path id="yskkk" d="M348 223a5 5 0 0 1 5-5h191.73a5 5 0 0 1 0 10H353a5 5 0 0 1-5-5z"/><path id="yskkl" d="M592.5 576.97h-96.16c4.07-6.77 2.2-11.87 2.65-28.5a2.95 2.95 0 0 1 2.94-2.95h97.2a2.95 2.95 0 0 1 2.96 2.95v18.92a9.6 9.6 0 0 1-9.59 9.58zM463.58 390.6c-.04-26.96.08-26-.11-28.12 2.46-1.03 4.95-2.1 7.46-3.22a383.4 383.4 0 0 1 5.45 30.83c-2.83.23-5.45 1.2-7.67 2.73-1.57-1-3.3-1.75-5.13-2.22zm-1.91 93.95c-12.03-5.4-22.14-4.6-31.14-4.64v-10.91a62.6 62.6 0 0 0 30.5-37.38c.21-.02.42-.04.64-.08zM316.9 556.46v-21.84a45.87 45.87 0 0 1 27.3-41.91 4.46 4.46 0 0 0-3.6-8.15 54.6 54.6 0 0 0-9.04 5.08c-18.45-27.18-11.55-72.32-1.96-103.88 3.1 1.84 5.6 1.85 9.12 2v2.83a18.28 18.28 0 0 0-13.71 17.68v5.21c0 9.38 7.13 17.14 16.26 18.13a62.64 62.64 0 0 0 30.5 37.38v10.9c-11.88.05-.77-.06-12.41.12a4.45 4.45 0 1 0 .53 8.89c11.67-.18.36-.06 12.04-.1l20.8 20.78a11.91 11.91 0 0 0 16.83 0l20.8-20.78c9.97.05 19.28-.95 31.28 5.71v62.72c-153.2-.37-144.74.56-144.74-.77zm21.82-156.35c.1 12.18-.29 15.56.5 21.78a9.34 9.34 0 0 1-5.3-8.42c.41-2.5-1.76-9.7 4.8-13.36zm82.89 72.78v12.07l-18.35 18.34a3 3 0 0 1-4.23 0l-18.35-18.35V472.9a62.5 62.5 0 0 0 40.93 0zm-2.74-8.48c-28.45 10.04-59.49-5.6-68.67-34.06-3.27-10.1-2.57-15.76-2.57-42.44 21.9-.07 60.03-3.6 107.01-21.88V400c-.1 11.97.88 19.7-2.57 30.34a53.71 53.71 0 0 1-33.2 34.06zm-86.96-123.9a28.65 28.65 0 0 1 28.63-28.6h56.78c10.33 0 19.8 5.7 24.73 14.87 1.87 3.47 7 2.99 8.18-.76 3.88-12.24 22.82-9.76 22.82 3.38v16.23a4.46 4.46 0 0 1-2.6 4.06c-50.68 23.14-98.89 31.1-134.35 29.02a4.49 4.49 0 0 1-4.2-4.47zm267.22 196.1h-2.27V406.09c0-8.71-7.1-15.91-15.8-16.05h-.08a4.45 4.45 0 0 0-.07 8.9 7.18 7.18 0 0 1 7.04 7.15v130.54h-86.03a11.88 11.88 0 0 0-11.85 11.85v18.92c0 4.73-3.58 8.9-8.18 9.58h-1.45a10.13 10.13 0 0 1-9.88-9.8v-1.06l.01-160.03a7.18 7.18 0 0 1 4.44-6.62c2.48-1.03-4.02-.3 88.16-.53a4.45 4.45 0 1 0 0-8.9H485.4a383.98 383.98 0 0 0-6.48-35.92 13.4 13.4 0 0 0 3.04-8.48V329.4c0-19.39-24.47-27.06-36.32-13.14A36.9 36.9 0 0 0 417.33 303h-56.78A37.57 37.57 0 0 0 323 340.5c.06 35.95-.15 34.05.2 36.01-12.2 35.65-20.3 87.79 1.42 118.83A54.77 54.77 0 0 0 308 534.62v21.84a9.67 9.67 0 0 0 9.67 9.64h144c0 11.85 8.76 19.52 18.52 19.77H592.5c10.2 0 18.5-8.29 18.5-18.48v-18.92c0-6.54-5.32-11.85-11.86-11.85z"/><path id="yskkm" d="M522.58 452.53c-11.17 15.64-36.41 8-36.41-11.66a20.1 20.1 0 1 1 36.42 11.66zm11.09-21.06a29 29 0 1 0-54.85 18.83 29 29 0 0 0 54.85-18.83z"/><path id="yskkn" d="M575.72 418.48a4.48 4.48 0 0 0-6.19 1.49l-13.78 22.57-5.3-7.15a4.48 4.48 0 0 0-6.3-.92 4.55 4.55 0 0 0-.9 6.35l7.22 9.74a6.78 6.78 0 0 0 11.25-.5l15.47-25.35a4.55 4.55 0 0 0-1.47-6.23z"/><path id="yskko" d="M364.86 480.56c1.68-.04-.38-.02 0 0z"/><path id="yskkp" d="M361.26 398.28a7.7 7.7 0 1 1 15.39 0 7.7 7.7 0 0 1-15.39 0z"/><path id="yskkq" d="M427.54 398.28a7.7 7.7 0 1 1 15.39 0 7.7 7.7 0 0 1-15.39 0z"/><path id="yskkr" d="M407.73 426.56h-8.27a3.34 3.34 0 0 1-3.3-3.37v-30.47c0-2.48-1.99-4.5-4.43-4.5a4.47 4.47 0 0 0-4.43 4.5v30.47c0 6.82 5.46 12.37 12.16 12.37h8.27a4.47 4.47 0 0 0 4.43-4.5c0-2.49-1.98-4.5-4.43-4.5z"/><path id="yskks" d="M395.59 526.1a5.32 5.32 0 1 1 10.65 0 5.32 5.32 0 0 1-10.65 0z"/><path id="yskkt" d="M395.59 545.04a5.32 5.32 0 1 1 10.65 0 5.32 5.32 0 0 1-10.65 0z"/><path id="yskku" d="M425.65 443.09a4.02 4.02 0 0 0-5.48-.91c-22.43 15.34-37.3 1.11-37.95.46a4.03 4.03 0 0 0-5.54-.1 3.71 3.71 0 0 0-.13 5.36c4.66 4.72 13.69 8.97 23.28 8.97 6.91 0 15.41-2.02 24.88-8.49a3.72 3.72 0 0 0 .94-5.3z"/><path id="yskkv" d="M583.5 569.93h-96.16c4.07-6.77 2.2-11.87 2.65-28.52a2.95 2.95 0 0 1 2.94-2.95h97.2a2.96 2.96 0 0 1 2.96 2.95v18.94a9.6 9.6 0 0 1-9.59 9.58zM454.58 383.47c-.04-26.97.08-26-.11-28.13 2.46-1.04 4.95-2.11 7.46-3.23a383.71 383.71 0 0 1 5.45 30.85c-2.83.23-5.45 1.2-7.67 2.72-1.57-.99-3.3-1.74-5.13-2.21zm-1.91 93.98c-12.03-5.4-22.14-4.6-31.14-4.65V461.9a62.62 62.62 0 0 0 30.5-37.38l.64-.08zM307.9 549.41v-21.85a45.89 45.89 0 0 1 27.3-41.93 4.46 4.46 0 0 0-3.6-8.15 54.59 54.59 0 0 0-9.04 5.08c-18.45-27.19-11.55-72.35-1.96-103.93 3.1 1.85 5.6 1.85 9.12 2v2.84a18.29 18.29 0 0 0-13.71 17.68v5.22c0 9.39 7.13 17.14 16.26 18.13a62.66 62.66 0 0 0 30.5 37.4v10.91c-11.88.05-.77-.06-12.41.12a4.45 4.45 0 1 0 .53 8.89c11.67-.18.36-.06 12.04-.1l20.8 20.8a11.9 11.9 0 0 0 16.83 0l20.8-20.8c9.97.05 19.28-.95 31.28 5.71v62.75c-153.2-.37-144.74.55-144.74-.77zm21.82-156.42c.1 12.19-.29 15.57.5 21.8a9.35 9.35 0 0 1-5.3-8.43c.41-2.51-1.76-9.7 4.8-13.37zm82.89 72.82v12.06l-18.35 18.34a3 3 0 0 1-4.23 0l-18.35-18.35v-12.05a62.52 62.52 0 0 0 40.93 0zm-2.74-8.48c-28.45 10.04-59.49-5.61-68.67-34.08-3.27-10.11-2.57-15.77-2.57-42.46 21.9-.07 60.03-3.6 107.01-21.9v34c-.1 11.98.88 19.72-2.57 30.36a53.73 53.73 0 0 1-33.2 34.08zm-86.96-123.96a28.65 28.65 0 0 1 28.63-28.62h56.78c10.33 0 19.8 5.7 24.73 14.87 1.87 3.48 7 3 8.18-.76 3.88-12.24 22.82-9.76 22.82 3.39v16.23a4.46 4.46 0 0 1-2.6 4.07c-50.68 23.14-98.89 31.1-134.35 29.02a4.49 4.49 0 0 1-4.2-4.47zm267.22 196.19h-2.27v-130.6c0-8.71-7.1-15.91-15.8-16.06h-.08a4.45 4.45 0 0 0-.07 8.91 7.18 7.18 0 0 1 7.04 7.15v130.6h-86.03a11.88 11.88 0 0 0-11.85 11.85v18.94c0 4.73-3.58 8.9-8.18 9.58h-1.45a10.13 10.13 0 0 1-9.88-9.8v-1.07l.01-160.1a7.18 7.18 0 0 1 4.44-6.62c2.48-1.02-4.02-.3 88.16-.53a4.45 4.45 0 1 0 0-8.91H476.4a384.29 384.29 0 0 0-6.48-35.93 13.4 13.4 0 0 0 3.04-8.49v-16.23c0-19.4-24.47-27.07-36.32-13.15a36.89 36.89 0 0 0-28.32-13.26h-56.78A37.57 37.57 0 0 0 314 333.37c.06 35.95-.15 34.05.2 36.01-12.2 35.66-20.3 87.83 1.42 118.88a54.8 54.8 0 0 0-16.63 39.3v21.85a9.67 9.67 0 0 0 9.67 9.65h144c0 11.85 8.76 19.52 18.52 19.77H583.5c10.2 0 18.5-8.29 18.5-18.48V541.4c0-6.53-5.32-11.85-11.86-11.85z"/><path id="yskkz" d="M477.48 496.87a19.54 19.54 0 1 1 39.08-.01 19.54 19.54 0 0 1-39.08 0z"/><path id="yskkD" d="M357.04 471.85c1.4-.03-.32-.01 0 0z"/><path id="yskkE" d="M352 390.84a8 8 0 1 1 16 0 8 8 0 0 1-16 0z"/><path id="yskkF" d="M419 390.84a8 8 0 1 1 16 0 8 8 0 0 1-16 0z"/><path id="yskkG" d="M398.55 417.9h-8.32a3.34 3.34 0 0 1-3.33-3.35v-30.24a4.46 4.46 0 1 0-8.9 0v30.24c0 6.78 5.49 12.29 12.23 12.29h8.32a4.46 4.46 0 0 0 0-8.95z"/><path id="yskkN" d="M417.28 434.5a3.93 3.93 0 0 0-5.49-.94c-22.48 15.95-37.36 1.16-38.02.48a3.93 3.93 0 0 0-5.55-.11 3.96 3.96 0 0 0-.13 5.58c4.67 4.9 13.7 9.33 23.32 9.33 6.93 0 15.44-2.1 24.93-8.83a3.96 3.96 0 0 0 .94-5.5z"/><linearGradient id="yskkg" x1="154.36" x2="844.02" y1="153.4" y2="731.12" gradientUnits="userSpaceOnUse"><stop offset="0" stop-color="#4d52cd"/><stop offset="1" stop-color="#9960d9"/></linearGradient><mask id="yskki" width="2" height="2" x="-1" y="-1"><path fill="#fff" d="M298 187h303v10H298z"/><use xlink:href="#yskka"/></mask><filter id="yskkh" width="395" height="106" x="248" y="145" filterUnits="userSpaceOnUse"><feOffset dx="-8" dy="12" in="SourceGraphic" result="FeOffset1033Out"/><feGaussianBlur in="FeOffset1033Out" result="FeGaussianBlur1034Out" stdDeviation="12.8 12.8"/></filter><linearGradient id="yskkj" x1="573.03" x2="319.88" y1="197" y2="189.15" gradientUnits="userSpaceOnUse"><stop offset="0" stop-color="#ff8e7e"/><stop offset="1" stop-color="#ff6b79"/></linearGradient><mask id="yskkx" width="2" height="2" x="-1" y="-1"><path fill="#fff" d="M468 403h58v59h-58z"/><use xlink:href="#yskkb"/></mask><filter id="yskkw" width="150" height="155" x="418" y="361" filterUnits="userSpaceOnUse"><feOffset dx="-8" dy="12" in="SourceGraphic" result="FeOffset1116Out"/><feGaussianBlur in="FeOffset1116Out" result="FeGaussianBlur1117Out" stdDeviation="12.8 12.8"/></filter><linearGradient id="yskky" x1="520.69" x2="472.19" y1="461.84" y2="416.33" gradientUnits="userSpaceOnUse"><stop offset="0" stop-color="#ff8e7e"/><stop offset="1" stop-color="#ff6b79"/></linearGradient><mask id="yskkB" width="2" height="2" x="-1" y="-1"><path fill="#fff" d="M534 409h35v36h-35z"/><use xlink:href="#yskkc"/></mask><filter id="yskkA" width="127" height="132" x="484" y="367" filterUnits="userSpaceOnUse"><feOffset dx="-8" dy="12" in="SourceGraphic" result="FeOffset1140Out"/><feGaussianBlur in="FeOffset1140Out" result="FeGaussianBlur1141Out" stdDeviation="12.8 12.8"/></filter><linearGradient id="yskkC" x1="565.8" x2="536.53" y1="444.84" y2="417.38" gradientUnits="userSpaceOnUse"><stop offset="0" stop-color="#ff8e7e"/><stop offset="1" stop-color="#ff6b79"/></linearGradient><mask id="yskkI" width="2" height="2" x="-1" y="-1"><path fill="#fff" d="M387 513h10v11h-10z"/><use xlink:href="#yskkd"/></mask><filter id="yskkH" width="102" height="107" x="337" y="471" filterUnits="userSpaceOnUse"><feOffset dx="-8" dy="12" in="SourceGraphic" result="FeOffset1179Out"/><feGaussianBlur in="FeOffset1179Out" result="FeGaussianBlur1180Out" stdDeviation="12.8 12.8"/></filter><linearGradient id="yskkJ" x1="396.08" x2="387.72" y1="523.84" y2="515.99" gradientUnits="userSpaceOnUse"><stop offset="0" stop-color="#ff8e7e"/><stop offset="1" stop-color="#ff6b79"/></linearGradient><mask id="yskkL" width="2" height="2" x="-1" y="-1"><path fill="#fff" d="M387 531h10v11h-10z"/><use xlink:href="#yskke"/></mask><filter id="yskkK" width="102" height="107" x="337" y="489" filterUnits="userSpaceOnUse"><feOffset dx="-8" dy="12" in="SourceGraphic" result="FeOffset1198Out"/><feGaussianBlur in="FeOffset1198Out" result="FeGaussianBlur1199Out" stdDeviation="12.8 12.8"/></filter><linearGradient id="yskkM" x1="396.08" x2="387.72" y1="541.84" y2="533.99" gradientUnits="userSpaceOnUse"><stop offset="0" stop-color="#ff8e7e"/><stop offset="1" stop-color="#ff6b79"/></linearGradient></defs><g><g transform="translate(-120 -122)"><g><use fill="url(#yskkg)" xlink:href="#yskkf"/></g><g><g filter="url(#yskkh)"><use fill="none" stroke-opacity=".13" stroke-width="0" mask="url(&quot;#yskki&quot;)" xlink:href="#yskka"/><use fill="#151948" fill-opacity=".13" xlink:href="#yskka"/></g><use fill="url(#yskkj)" xlink:href="#yskka"/></g><g opacity=".7"><use fill="#fff" xlink:href="#yskkk"/></g><g opacity=".1"><g opacity=".1"><use xlink:href="#yskkl"/></g><g opacity=".1"><use xlink:href="#yskkm"/></g><g opacity=".1"><use xlink:href="#yskkn"/></g><g opacity=".1"><use xlink:href="#yskko"/></g><g opacity=".1"><use xlink:href="#yskkp"/></g><g opacity=".1"><use xlink:href="#yskkq"/></g><g opacity=".1"><use xlink:href="#yskkr"/></g><g opacity=".1"><use xlink:href="#yskks"/></g><g opacity=".1"><use xlink:href="#yskkt"/></g><g opacity=".1"><use xlink:href="#yskku"/></g></g><g><g><use fill="#fff" xlink:href="#yskkv"/></g><g><g filter="url(#yskkw)"><use fill="none" stroke-opacity=".13" stroke-width="0" mask="url(&quot;#yskkx&quot;)" xlink:href="#yskkb"/><use fill="#151948" fill-opacity=".13" xlink:href="#yskkb"/></g><use fill="url(#yskky)" xlink:href="#yskkb"/></g><g><use fill="#fff" xlink:href="#yskkz"/></g><g><g filter="url(#yskkA)"><use fill="none" stroke-opacity=".13" stroke-width="0" mask="url(&quot;#yskkB&quot;)" xlink:href="#yskkc"/><use fill="#151948" fill-opacity=".13" xlink:href="#yskkc"/></g><use fill="url(#yskkC)" xlink:href="#yskkc"/></g><g><use fill="#fff" xlink:href="#yskkD"/></g><g><use fill="#fff" xlink:href="#yskkE"/></g><g><use fill="#fff" xlink:href="#yskkF"/></g><g><use fill="#fff" xlink:href="#yskkG"/></g><g><g filter="url(#yskkH)"><use fill="none" stroke-opacity=".13" stroke-width="0" mask="url(&quot;#yskkI&quot;)" xlink:href="#yskkd"/><use fill="#151948" fill-opacity=".13" xlink:href="#yskkd"/></g><use fill="url(#yskkJ)" xlink:href="#yskkd"/></g><g><g filter="url(#yskkK)"><use fill="none" stroke-opacity=".13" stroke-width="0" mask="url(&quot;#yskkL&quot;)" xlink:href="#yskke"/><use fill="#151948" fill-opacity=".13" xlink:href="#yskke"/></g><use fill="url(#yskkM)" xlink:href="#yskke"/></g><g><use fill="#fff" xlink:href="#yskkN"/></g></g></g></g></svg>