<svg xmlns="http://www.w3.org/2000/svg" xmlns:xlink="http://www.w3.org/1999/xlink" width="660" height="550" viewBox="0 0 660 550"><defs><path id="sln4a" d="M464.65 1645.59a9.07 9.07 0 0 1 3.7-6.64l45.91-33.22-33.2 45.9a9.1 9.1 0 0 1-16.4-6.04zm10.68 21.35a20.68 20.68 0 0 0 15.14-8.48l54.43-75.24a5.81 5.81 0 0 0-8.12-8.12l-75.25 54.44a20.68 20.68 0 0 0-2.46 31.4 20.66 20.66 0 0 0 16.26 6z"/><path id="sln4b" d="M418.25 1568h-57.5a5.62 5.62 0 0 0-5.75 5.5c0 3.04 2.57 5.5 5.75 5.5h57.5a5.62 5.62 0 0 0 5.75-5.5c0-3.04-2.57-5.5-5.75-5.5z"/><path id="sln4c" d="M419.19 1649H308.81c-3.21 0-5.81 2.46-5.81 5.5s2.6 5.5 5.81 5.5h110.38c3.21 0 5.81-2.46 5.81-5.5s-2.6-5.5-5.81-5.5z"/><path id="sln4d" d="M418.22 1729h-40.44a5.64 5.64 0 0 0-5.78 5.5c0 3.04 2.58 5.5 5.78 5.5h40.44c3.2 0 5.78-2.46 5.78-5.5s-2.58-5.5-5.78-5.5z"/><path id="sln4e" d="M450.65 1637.59a9.07 9.07 0 0 1 3.7-6.64l45.91-33.22-33.2 45.9a9.1 9.1 0 0 1-16.4-6.04zm10.68 21.35a20.68 20.68 0 0 0 15.14-8.48l54.43-75.24a5.81 5.81 0 0 0-8.12-8.12l-75.25 54.44a20.68 20.68 0 0 0-2.46 31.4 20.66 20.66 0 0 0 16.26 6z"/><path id="sln4f" d="M404.25 1560h-57.5a5.62 5.62 0 0 0-5.75 5.5c0 3.04 2.57 5.5 5.75 5.5h57.5a5.62 5.62 0 0 0 5.75-5.5c0-3.04-2.57-5.5-5.75-5.5z"/><path id="sln4g" d="M405.19 1641H294.81c-3.21 0-5.81 2.46-5.81 5.5s2.6 5.5 5.81 5.5h110.38c3.21 0 5.81-2.46 5.81-5.5s-2.6-5.5-5.81-5.5z"/><path id="sln4h" d="M404.22 1721h-40.44a5.64 5.64 0 0 0-5.78 5.5c0 3.04 2.58 5.5 5.78 5.5h40.44c3.2 0 5.78-2.46 5.78-5.5s-2.58-5.5-5.78-5.5z"/><path id="sln4i" d="M120 1365a38 38 0 0 1 38-38h584a38 38 0 0 1 38 38v474a38 38 0 0 1-38 38H158a38 38 0 0 1-38-38z"/><path id="sln4k" d="M190 1409a5 5 0 0 1 5-5h168.73a5 5 0 0 1 0 10H195a5 5 0 0 1-5-5z"/><path id="sln4l" d="M190 1440a5 5 0 0 1 5-5h113.73a5 5 0 0 1 0 10H195a5 5 0 0 1-5-5z"/><path id="sln4o" d="M604.28 1559.2c-.06-.12-.06-.24-.12-.36-.07-.12-.18-.18-.26-.3a157.15 157.15 0 0 0-20.54-27.8l-8.15-8.17a156.52 156.52 0 0 0-27.71-20.62c-.11-.08-.18-.19-.3-.26-.11-.07-.24-.06-.36-.12a154.16 154.16 0 0 0-59.2-19.69c-5.96-.03-11.44-.84-17.4-.88-5.57-.03-11.62.72-17.18.68-6.23.67-12.44 1.69-18.58 3.1a5.78 5.78 0 0 0 2.57 11.26c5.3-1.22 10.66-2.13 16.02-2.75l6.19-.48c1.89-.15 3.63-.25 5.32-.33v11.43a5.77 5.77 0 1 0 11.53 0v-11.4c21.67 1 42.1 6.85 60.25 16.46l-5.68 9.87a5.8 5.8 0 0 0 4.98 8.67c2 0 3.94-1.04 5-2.9l5.67-9.84a145.43 145.43 0 0 1 44.78 44.94l-9.8 5.68a5.79 5.79 0 0 0 5.76 10.02l9.84-5.7a143.87 143.87 0 0 1 16.42 61.4h-11.38a5.77 5.77 0 0 0-5.76 5.77c0 3.2 2.57 5.79 5.76 5.79h11.38c-.87 22.09-6.7 42.91-16.42 61.4l-9.84-5.7a5.74 5.74 0 0 0-7.87 2.1 5.8 5.8 0 0 0 2.11 7.9l9.82 5.7a145.43 145.43 0 0 1-44.8 44.93l-5.66-9.85a5.74 5.74 0 0 0-7.87-2.12 5.78 5.78 0 0 0-2.1 7.9l5.67 9.87a142.58 142.58 0 0 1-60.25 16.45v-11.38a5.77 5.77 0 1 0-11.53 0v11.43c-9.2-.32-18.43-1.48-27.52-3.57a5.78 5.78 0 1 0-2.58 11.27c11.5 2.66 23.26 4 34.91 4l.84-.02.1.02c.05 0 .09-.03.14-.03 27.7-.19 53.69-7.7 76.17-20.66.18-.08.37-.12.55-.22.11-.07.18-.18.28-.26a157 157 0 0 0 56.32-56.43c.11-.16.25-.28.35-.45.07-.13.06-.25.12-.37a155.4 155.4 0 0 0 20.73-77.69c0-28.27-7.57-54.79-20.72-77.68z"/><path id="sln4p" d="M418.29 1528H389.7a5.6 5.6 0 0 0-5.71 5.5 5.6 5.6 0 0 0 5.71 5.5h28.58a5.6 5.6 0 0 0 5.71-5.5 5.6 5.6 0 0 0-5.71-5.5z"/><path id="sln4s" d="M419.24 1609h-86.48a5.63 5.63 0 0 0-5.76 5.5c0 3.04 2.58 5.5 5.76 5.5h86.48a5.63 5.63 0 0 0 5.76-5.5c0-3.04-2.58-5.5-5.76-5.5z"/><path id="sln4v" d="M419.2 1689h-75.4c-3.2 0-5.8 2.46-5.8 5.5s2.6 5.5 5.8 5.5h75.4c3.2 0 5.8-2.46 5.8-5.5s-2.6-5.5-5.8-5.5z"/><path id="sln4B" d="M590.28 1551.2c-.06-.12-.06-.24-.12-.36-.07-.12-.18-.18-.26-.3a157.15 157.15 0 0 0-20.54-27.8l-8.15-8.17a156.52 156.52 0 0 0-27.71-20.62c-.11-.08-.18-.19-.3-.26-.11-.07-.24-.06-.36-.12a154.16 154.16 0 0 0-59.2-19.69c-5.96-.03-11.44-.84-17.4-.88-5.57-.03-11.62.72-17.18.68-6.23.67-12.44 1.69-18.58 3.1a5.78 5.78 0 0 0 2.57 11.26c5.3-1.22 10.66-2.13 16.02-2.75l6.19-.48c1.89-.15 3.63-.25 5.32-.33v11.43a5.77 5.77 0 1 0 11.53 0v-11.4c21.67 1 42.1 6.85 60.25 16.46l-5.68 9.87a5.8 5.8 0 0 0 4.98 8.67c2 0 3.94-1.04 5-2.9l5.67-9.84a145.43 145.43 0 0 1 44.78 44.94l-9.8 5.68a5.79 5.79 0 0 0 5.76 10.02l9.84-5.7a143.87 143.87 0 0 1 16.42 61.4h-11.38a5.77 5.77 0 0 0-5.76 5.77c0 3.2 2.57 5.79 5.76 5.79h11.38c-.87 22.09-6.7 42.91-16.42 61.4l-9.84-5.7a5.74 5.74 0 0 0-7.87 2.1 5.8 5.8 0 0 0 2.11 7.9l9.82 5.7a145.43 145.43 0 0 1-44.8 44.93l-5.66-9.85a5.74 5.74 0 0 0-7.87-2.12 5.78 5.78 0 0 0-2.1 7.9l5.67 9.87a142.58 142.58 0 0 1-60.25 16.45v-11.38a5.77 5.77 0 1 0-11.53 0v11.43c-9.2-.32-18.43-1.48-27.52-3.57a5.78 5.78 0 1 0-2.58 11.27c11.5 2.66 23.26 4 34.91 4l.84-.02.1.02c.05 0 .09-.03.14-.03 27.7-.19 53.69-7.7 76.17-20.66.18-.08.37-.12.55-.22.11-.07.18-.18.28-.26a157 157 0 0 0 56.32-56.43c.11-.16.25-.28.35-.45.07-.13.06-.25.12-.37a155.4 155.4 0 0 0 20.73-77.69c0-28.27-7.57-54.79-20.72-77.68z"/><path id="sln4C" d="M404.29 1520H375.7a5.6 5.6 0 0 0-5.71 5.5 5.6 5.6 0 0 0 5.71 5.5h28.58a5.6 5.6 0 0 0 5.71-5.5 5.6 5.6 0 0 0-5.71-5.5z"/><path id="sln4G" d="M405.24 1601h-86.48a5.63 5.63 0 0 0-5.76 5.5c0 3.04 2.58 5.5 5.76 5.5h86.48a5.63 5.63 0 0 0 5.76-5.5c0-3.04-2.58-5.5-5.76-5.5z"/><path id="sln4K" d="M405.2 1681h-75.4c-3.2 0-5.8 2.46-5.8 5.5s2.6 5.5 5.8 5.5h75.4c3.2 0 5.8-2.46 5.8-5.5s-2.6-5.5-5.8-5.5z"/><linearGradient id="sln4j" x1="154.36" x2="844.02" y1="1358.4" y2="1936.12" gradientUnits="userSpaceOnUse"><stop offset="0" stop-color="#4d52cd"/><stop offset="1" stop-color="#9960d9"/></linearGradient><mask id="sln4n" width="2" height="2" x="-1" y="-1"><path fill="#fff" d="M453 1574h93v93h-93z"/><use xlink:href="#sln4a"/></mask><filter id="sln4m" width="185" height="189" x="403" y="1532" filterUnits="userSpaceOnUse"><feOffset dx="-8" dy="12" in="SourceGraphic" result="FeOffset1440Out"/><feGaussianBlur in="FeOffset1440Out" result="FeGaussianBlur1441Out" stdDeviation="12.8 12.8"/></filter><mask id="sln4r" width="2" height="2" x="-1" y="-1"><path fill="#fff" d="M355 1568h69v11h-69z"/><use xlink:href="#sln4b"/></mask><filter id="sln4q" width="161" height="107" x="305" y="1526" filterUnits="userSpaceOnUse"><feOffset dx="-8" dy="12" in="SourceGraphic" result="FeOffset1466Out"/><feGaussianBlur in="FeOffset1466Out" result="FeGaussianBlur1467Out" stdDeviation="12.8 12.8"/></filter><mask id="sln4u" width="2" height="2" x="-1" y="-1"><path fill="#fff" d="M303 1649h122v11H303z"/><use xlink:href="#sln4c"/></mask><filter id="sln4t" width="214" height="107" x="253" y="1607" filterUnits="userSpaceOnUse"><feOffset dx="-8" dy="12" in="SourceGraphic" result="FeOffset1487Out"/><feGaussianBlur in="FeOffset1487Out" result="FeGaussianBlur1488Out" stdDeviation="12.8 12.8"/></filter><mask id="sln4x" width="2" height="2" x="-1" y="-1"><path fill="#fff" d="M372 1729h52v11h-52z"/><use xlink:href="#sln4d"/></mask><filter id="sln4w" width="144" height="107" x="322" y="1687" filterUnits="userSpaceOnUse"><feOffset dx="-8" dy="12" in="SourceGraphic" result="FeOffset1508Out"/><feGaussianBlur in="FeOffset1508Out" result="FeGaussianBlur1509Out" stdDeviation="12.8 12.8"/></filter><mask id="sln4z" width="2" height="2" x="-1" y="-1"><path fill="#fff" d="M439 1566h93v93h-93z"/><use xlink:href="#sln4e"/></mask><filter id="sln4y" width="185" height="189" x="389" y="1524" filterUnits="userSpaceOnUse"><feOffset dx="-8" dy="12" in="SourceGraphic" result="FeOffset1526Out"/><feGaussianBlur in="FeOffset1526Out" result="FeGaussianBlur1527Out" stdDeviation="12.8 12.8"/></filter><linearGradient id="sln4A" x1="523.49" x2="445.72" y1="1659" y2="1586.03" gradientUnits="userSpaceOnUse"><stop offset="0" stop-color="#ff8e7e"/><stop offset="1" stop-color="#ff6b79"/></linearGradient><mask id="sln4E" width="2" height="2" x="-1" y="-1"><path fill="#fff" d="M341 1560h69v11h-69z"/><use xlink:href="#sln4f"/></mask><filter id="sln4D" width="161" height="107" x="291" y="1518" filterUnits="userSpaceOnUse"><feOffset dx="-8" dy="12" in="SourceGraphic" result="FeOffset1555Out"/><feGaussianBlur in="FeOffset1555Out" result="FeGaussianBlur1556Out" stdDeviation="12.8 12.8"/></filter><linearGradient id="sln4F" x1="403.69" x2="345.99" y1="1571" y2="1562.37" gradientUnits="userSpaceOnUse"><stop offset="0" stop-color="#ff8e7e"/><stop offset="1" stop-color="#ff6b79"/></linearGradient><mask id="sln4I" width="2" height="2" x="-1" y="-1"><path fill="#fff" d="M289 1641h122v11H289z"/><use xlink:href="#sln4g"/></mask><filter id="sln4H" width="214" height="107" x="239" y="1599" filterUnits="userSpaceOnUse"><feOffset dx="-8" dy="12" in="SourceGraphic" result="FeOffset1579Out"/><feGaussianBlur in="FeOffset1579Out" result="FeGaussianBlur1580Out" stdDeviation="12.8 12.8"/></filter><linearGradient id="sln4J" x1="399.84" x2="297.82" y1="1652" y2="1643.37" gradientUnits="userSpaceOnUse"><stop offset="0" stop-color="#ff8e7e"/><stop offset="1" stop-color="#ff6b79"/></linearGradient><mask id="sln4M" width="2" height="2" x="-1" y="-1"><path fill="#fff" d="M358 1721h52v11h-52z"/><use xlink:href="#sln4h"/></mask><filter id="sln4L" width="144" height="107" x="308" y="1679" filterUnits="userSpaceOnUse"><feOffset dx="-8" dy="12" in="SourceGraphic" result="FeOffset1603Out"/><feGaussianBlur in="FeOffset1603Out" result="FeGaussianBlur1604Out" stdDeviation="12.8 12.8"/></filter><linearGradient id="sln4N" x1="405.24" x2="361.76" y1="1732" y2="1723.37" gradientUnits="userSpaceOnUse"><stop offset="0" stop-color="#ff8e7e"/><stop offset="1" stop-color="#ff6b79"/></linearGradient></defs><g><g transform="translate(-120 -1327)"><g><use fill="url(#sln4j)" xlink:href="#sln4i"/></g><g><use fill="#fff" xlink:href="#sln4k"/></g><g opacity=".7"><use fill="#fff" xlink:href="#sln4l"/></g><g opacity=".15"><g opacity=".15"><g filter="url(#sln4m)"><use fill="none" stroke-opacity=".13" stroke-width="0" mask="url(&quot;#sln4n&quot;)" xlink:href="#sln4a"/><use fill="#151948" fill-opacity=".13" xlink:href="#sln4a"/></g><use xlink:href="#sln4a"/></g><g opacity=".15"><use xlink:href="#sln4o"/></g><g opacity=".15"><use xlink:href="#sln4p"/></g><g opacity=".15"><g filter="url(#sln4q)"><use fill="none" stroke-opacity=".13" stroke-width="0" mask="url(&quot;#sln4r&quot;)" xlink:href="#sln4b"/><use fill="#151948" fill-opacity=".13" xlink:href="#sln4b"/></g><use xlink:href="#sln4b"/></g><g opacity=".15"><use xlink:href="#sln4s"/></g><g opacity=".15"><g filter="url(#sln4t)"><use fill="none" stroke-opacity=".13" stroke-width="0" mask="url(&quot;#sln4u&quot;)" xlink:href="#sln4c"/><use fill="#151948" fill-opacity=".13" xlink:href="#sln4c"/></g><use xlink:href="#sln4c"/></g><g opacity=".15"><use xlink:href="#sln4v"/></g><g opacity=".15"><g filter="url(#sln4w)"><use fill="none" stroke-opacity=".13" stroke-width="0" mask="url(&quot;#sln4x&quot;)" xlink:href="#sln4d"/><use fill="#151948" fill-opacity=".13" xlink:href="#sln4d"/></g><use xlink:href="#sln4d"/></g></g><g><g><g filter="url(#sln4y)"><use fill="none" stroke-opacity=".13" stroke-width="0" mask="url(&quot;#sln4z&quot;)" xlink:href="#sln4e"/><use fill="#151948" fill-opacity=".13" xlink:href="#sln4e"/></g><use fill="url(#sln4A)" xlink:href="#sln4e"/></g><g><use fill="#fff" xlink:href="#sln4B"/></g><g><use fill="#fff" xlink:href="#sln4C"/></g><g><g filter="url(#sln4D)"><use fill="none" stroke-opacity=".13" stroke-width="0" mask="url(&quot;#sln4E&quot;)" xlink:href="#sln4f"/><use fill="#151948" fill-opacity=".13" xlink:href="#sln4f"/></g><use fill="url(#sln4F)" xlink:href="#sln4f"/></g><g><use fill="#fff" xlink:href="#sln4G"/></g><g><g filter="url(#sln4H)"><use fill="none" stroke-opacity=".13" stroke-width="0" mask="url(&quot;#sln4I&quot;)" xlink:href="#sln4g"/><use fill="#151948" fill-opacity=".13" xlink:href="#sln4g"/></g><use fill="url(#sln4J)" xlink:href="#sln4g"/></g><g><use fill="#fff" xlink:href="#sln4K"/></g><g><g filter="url(#sln4L)"><use fill="none" stroke-opacity=".13" stroke-width="0" mask="url(&quot;#sln4M&quot;)" xlink:href="#sln4h"/><use fill="#151948" fill-opacity=".13" xlink:href="#sln4h"/></g><use fill="url(#sln4N)" xlink:href="#sln4h"/></g></g></g></g></svg>