<svg xmlns="http://www.w3.org/2000/svg" xmlns:xlink="http://www.w3.org/1999/xlink" width="660" height="550" viewBox="0 0 660 550"><defs><path id="3gv9a" d="M399 1195a5 5 0 0 1 5-5h109.73a5 5 0 0 1 0 10H404a5 5 0 0 1-5-5z"/><path id="3gv9b" d="M503 1000h9v9h-9z"/><path id="3gv9c" d="M530 1000h9v9h-9z"/><path id="3gv9d" d="M556 1000h9v9h-9z"/><path id="3gv9e" d="M420.33 947.44h-17.66a8.81 8.81 0 0 1-8.84-8.77H385c0 9.68 7.92 17.55 17.67 17.55h4.41V965h8.84v-8.78h4.41c9.75 0 17.67-7.87 17.67-17.55 0-9.69-7.92-17.56-17.67-17.56h-17.66a8.81 8.81 0 0 1-8.84-8.78 8.81 8.81 0 0 1 8.84-8.77h17.66a8.81 8.81 0 0 1 8.84 8.77H438c0-9.68-7.92-17.55-17.67-17.55h-4.41V886h-8.84v8.78h-4.41A17.63 17.63 0 0 0 385 912.33c0 9.69 7.92 17.56 17.67 17.56h17.66a8.81 8.81 0 0 1 8.84 8.78 8.81 8.81 0 0 1-8.84 8.77z"/><path id="3gv9f" d="M490 990h9v9h-9z"/><path id="3gv9g" d="M517 990h9v9h-9z"/><path id="3gv9h" d="M543 990h9v9h-9z"/><path id="3gv9i" d="M407.33 937.44h-17.66a8.81 8.81 0 0 1-8.84-8.77H372c0 9.68 7.92 17.55 17.67 17.55h4.41V955h8.84v-8.78h4.41c9.75 0 17.67-7.87 17.67-17.55 0-9.69-7.92-17.56-17.67-17.56h-17.66a8.81 8.81 0 0 1-8.84-8.78 8.81 8.81 0 0 1 8.84-8.77h17.66a8.81 8.81 0 0 1 8.84 8.77H425c0-9.68-7.92-17.55-17.67-17.55h-4.41V876h-8.84v8.78h-4.41A17.63 17.63 0 0 0 372 902.33c0 9.69 7.92 17.56 17.67 17.56h17.66a8.81 8.81 0 0 1 8.84 8.78 8.81 8.81 0 0 1-8.84 8.77z"/><path id="3gv9j" d="M129 760a38 38 0 0 1 38-38h584a38 38 0 0 1 38 38v474a38 38 0 0 1-38 38H167a38 38 0 0 1-38-38z"/><path id="3gv9o" d="M304 1157a5 5 0 0 1 5-5h299.73a5 5 0 0 1 0 10H309a5 5 0 0 1-5-5z"/><path id="3gv9x" d="M476.9 1088.08V964.9h123.18c-2.28 66.91-56.27 120.9-123.18 123.18zm-123.29.1v-8.8h83.66v8.8zm8.8-26.4h83.66v8.8h-83.65zm74.86-35.23v8.8h-83.66v-8.8zm-74.85-26.42v-8.8h83.65v8.8zm-17.61 8.8h83.65v8.8h-83.65zm8.8 35.23h83.66v8.8h-83.66zM468.1 832.92v255.13c-7.43-.25-14.8-1.14-22.02-2.66v-6.01c4.86 0 8.8-3.95 8.8-8.8v-8.81c0-4.86-3.94-8.81-8.8-8.81v-8.8c0-1.62-.47-3.11-1.22-4.41a8.71 8.71 0 0 0 1.22-4.4v-8.8c0-4.87-3.95-8.82-8.8-8.82v-8.8h8.8c4.86 0 8.8-3.95 8.8-8.8v-8.81c0-4.86-3.94-8.81-8.8-8.81h-83.66a8.81 8.81 0 0 0-8.8 8.8v8.81h-2.45a127.44 127.44 0 0 1-6.36-39.62c0-68.93 54.91-125.25 123.29-127.58zm48.42 105.55h-8.8v-35.21h8.8zm-18.98-70.43c17.62 0 34.67-3.67 50.33-10.58a128.31 128.31 0 0 1 21.5 19.9v61.13h-8.8v-57.24h-26.42v57.24h-8.81v-44.03h-26.42v44.03H485.7v8.81h110.08v-20.06c2.52 9.37 3.95 19.01 4.28 28.87H476.9V832.92c22.25.77 43.6 7.24 62.2 18.62a115.78 115.78 0 0 1-41.56 7.69h-11.83v8.8zm54.22 70.43h-8.8v-48.42h8.8zm26.42-70.44h8.8v70.45h-8.8zm17.61 33.88v-42.68h-26.42v5.17c-4-4.03-8.2-7.8-12.62-11.27a124.4 124.4 0 0 0 21.43-14.72v12h8.8V824h-26.42v8.8h10.63a115.35 115.35 0 0 1-22.4 14.5A136.2 136.2 0 0 0 472.5 824C397.24 824 336 885.24 336 960.5c0 13.7 2.13 27.14 6.11 40.1a8.79 8.79 0 0 0-6.11 8.34v8.8c0 4.86 3.95 8.8 8.8 8.8v8.81c0 1.62.47 3.1 1.23 4.4a8.71 8.71 0 0 0-1.22 4.41v8.8c0 4.86 3.95 8.81 8.8 8.81v8.81a8.82 8.82 0 0 0-8.8 8.8v8.81c0 4.86 3.95 8.81 8.8 8.81h83.66c2.66 0 5.01-1.2 6.63-3.06 9.35 2 18.95 3.06 28.6 3.06 75.26 0 136.5-61.24 136.5-136.5 0-20.52-4.46-40.22-13.21-58.6z"/><path id="3gv9K" d="M463.9 1078.08V954.9h123.18c-2.28 66.91-56.27 120.9-123.18 123.18zm-123.29.1v-8.8h83.66v8.8zm8.8-26.4h83.66v8.8h-83.65zm74.86-35.23v8.8h-83.66v-8.8zm-74.85-26.42v-8.8h83.65v8.8zm-17.61 8.8h83.65v8.8h-83.65zm8.8 35.23h83.66v8.8h-83.66zM455.1 822.92v255.13c-7.43-.25-14.8-1.14-22.02-2.66v-6.01c4.86 0 8.8-3.95 8.8-8.8v-8.81c0-4.86-3.94-8.81-8.8-8.81v-8.8c0-1.62-.47-3.11-1.22-4.41a8.71 8.71 0 0 0 1.22-4.4v-8.8c0-4.87-3.95-8.82-8.8-8.82v-8.8h8.8c4.86 0 8.8-3.95 8.8-8.8v-8.81c0-4.86-3.94-8.81-8.8-8.81h-83.66a8.81 8.81 0 0 0-8.8 8.8v8.81h-2.45a127.44 127.44 0 0 1-6.36-39.62c0-68.93 54.91-125.25 123.29-127.58zm48.42 105.55h-8.8v-35.21h8.8zm-18.98-70.43c17.62 0 34.67-3.67 50.33-10.58a128.31 128.31 0 0 1 21.5 19.9v61.13h-8.8v-57.24h-26.42v57.24h-8.81v-44.03h-26.42v44.03H472.7v8.81h110.08v-20.06c2.52 9.37 3.95 19.01 4.28 28.87H463.9V822.92c22.25.77 43.6 7.24 62.2 18.62a115.78 115.78 0 0 1-41.56 7.69h-11.83v8.8zm54.22 70.43h-8.8v-48.42h8.8zm26.42-70.44h8.8v70.45h-8.8zm17.61 33.88v-42.68h-26.42v5.17c-4-4.03-8.2-7.8-12.62-11.27a124.4 124.4 0 0 0 21.43-14.72v12h8.8V814h-26.42v8.8h10.63a115.35 115.35 0 0 1-22.4 14.5A136.2 136.2 0 0 0 459.5 814C384.24 814 323 875.24 323 950.5c0 13.7 2.13 27.14 6.11 40.1a8.79 8.79 0 0 0-6.11 8.34v8.8c0 4.86 3.95 8.8 8.8 8.8v8.81c0 1.62.47 3.1 1.23 4.4a8.71 8.71 0 0 0-1.22 4.41v8.8c0 4.86 3.95 8.81 8.8 8.81v8.81a8.82 8.82 0 0 0-8.8 8.8v8.81c0 4.86 3.95 8.81 8.8 8.81h83.66c2.66 0 5.01-1.2 6.63-3.06 9.35 2 18.95 3.06 28.6 3.06 75.26 0 136.5-61.24 136.5-136.5 0-20.52-4.46-40.22-13.21-58.6z"/><linearGradient id="3gv9k" x1="163.36" x2="853.02" y1="753.4" y2="1331.12" gradientUnits="userSpaceOnUse"><stop offset="0" stop-color="#4d52cd"/><stop offset="1" stop-color="#9960d9"/></linearGradient><mask id="3gv9m" width="2" height="2" x="-1" y="-1"><path fill="#fff" d="M399 1190h120v10H399z"/><use xlink:href="#3gv9a"/></mask><filter id="3gv9l" width="212" height="106" x="349" y="1148" filterUnits="userSpaceOnUse"><feOffset dx="-8" dy="12" in="SourceGraphic" result="FeOffset1236Out"/><feGaussianBlur in="FeOffset1236Out" result="FeGaussianBlur1237Out" stdDeviation="12.8 12.8"/></filter><linearGradient id="3gv9n" x1="507.77" x2="407.65" y1="1200" y2="1192.15" gradientUnits="userSpaceOnUse"><stop offset="0" stop-color="#ff8e7e"/><stop offset="1" stop-color="#ff6b79"/></linearGradient><mask id="3gv9q" width="2" height="2" x="-1" y="-1"><path fill="#fff" d="M503 1000h9v9h-9z"/><use xlink:href="#3gv9b"/></mask><filter id="3gv9p" width="101" height="105" x="453" y="958" filterUnits="userSpaceOnUse"><feOffset dx="-8" dy="12" in="SourceGraphic" result="FeOffset1262Out"/><feGaussianBlur in="FeOffset1262Out" result="FeGaussianBlur1263Out" stdDeviation="12.8 12.8"/></filter><mask id="3gv9s" width="2" height="2" x="-1" y="-1"><path fill="#fff" d="M530 1000h9v9h-9z"/><use xlink:href="#3gv9c"/></mask><filter id="3gv9r" width="101" height="105" x="480" y="958" filterUnits="userSpaceOnUse"><feOffset dx="-8" dy="12" in="SourceGraphic" result="FeOffset1278Out"/><feGaussianBlur in="FeOffset1278Out" result="FeGaussianBlur1279Out" stdDeviation="12.8 12.8"/></filter><mask id="3gv9u" width="2" height="2" x="-1" y="-1"><path fill="#fff" d="M556 1000h9v9h-9z"/><use xlink:href="#3gv9d"/></mask><filter id="3gv9t" width="101" height="105" x="506" y="958" filterUnits="userSpaceOnUse"><feOffset dx="-8" dy="12" in="SourceGraphic" result="FeOffset1294Out"/><feGaussianBlur in="FeOffset1294Out" result="FeGaussianBlur1295Out" stdDeviation="12.8 12.8"/></filter><mask id="3gv9w" width="2" height="2" x="-1" y="-1"><path fill="#fff" d="M385 886h53v79h-53z"/><use xlink:href="#3gv9e"/></mask><filter id="3gv9v" width="145" height="175" x="335" y="844" filterUnits="userSpaceOnUse"><feOffset dx="-8" dy="12" in="SourceGraphic" result="FeOffset1310Out"/><feGaussianBlur in="FeOffset1310Out" result="FeGaussianBlur1311Out" stdDeviation="12.8 12.8"/></filter><mask id="3gv9z" width="2" height="2" x="-1" y="-1"><path fill="#fff" d="M490 990h9v9h-9z"/><use xlink:href="#3gv9f"/></mask><filter id="3gv9y" width="101" height="105" x="440" y="948" filterUnits="userSpaceOnUse"><feOffset dx="-8" dy="12" in="SourceGraphic" result="FeOffset1333Out"/><feGaussianBlur in="FeOffset1333Out" result="FeGaussianBlur1334Out" stdDeviation="12.8 12.8"/></filter><linearGradient id="3gv9A" x1="498.18" x2="490.65" y1="999" y2="991.94" gradientUnits="userSpaceOnUse"><stop offset="0" stop-color="#ff8e7e"/><stop offset="1" stop-color="#ff6b79"/></linearGradient><mask id="3gv9C" width="2" height="2" x="-1" y="-1"><path fill="#fff" d="M517 990h9v9h-9z"/><use xlink:href="#3gv9g"/></mask><filter id="3gv9B" width="101" height="105" x="467" y="948" filterUnits="userSpaceOnUse"><feOffset dx="-8" dy="12" in="SourceGraphic" result="FeOffset1352Out"/><feGaussianBlur in="FeOffset1352Out" result="FeGaussianBlur1353Out" stdDeviation="12.8 12.8"/></filter><linearGradient id="3gv9D" x1="525.18" x2="517.65" y1="999" y2="991.94" gradientUnits="userSpaceOnUse"><stop offset="0" stop-color="#ff8e7e"/><stop offset="1" stop-color="#ff6b79"/></linearGradient><mask id="3gv9F" width="2" height="2" x="-1" y="-1"><path fill="#fff" d="M543 990h9v9h-9z"/><use xlink:href="#3gv9h"/></mask><filter id="3gv9E" width="101" height="105" x="493" y="948" filterUnits="userSpaceOnUse"><feOffset dx="-8" dy="12" in="SourceGraphic" result="FeOffset1371Out"/><feGaussianBlur in="FeOffset1371Out" result="FeGaussianBlur1372Out" stdDeviation="12.8 12.8"/></filter><linearGradient id="3gv9G" x1="551.18" x2="543.65" y1="999" y2="991.94" gradientUnits="userSpaceOnUse"><stop offset="0" stop-color="#ff8e7e"/><stop offset="1" stop-color="#ff6b79"/></linearGradient><mask id="3gv9I" width="2" height="2" x="-1" y="-1"><path fill="#fff" d="M372 876h53v79h-53z"/><use xlink:href="#3gv9i"/></mask><filter id="3gv9H" width="145" height="175" x="322" y="834" filterUnits="userSpaceOnUse"><feOffset dx="-8" dy="12" in="SourceGraphic" result="FeOffset1390Out"/><feGaussianBlur in="FeOffset1390Out" result="FeGaussianBlur1391Out" stdDeviation="12.8 12.8"/></filter><linearGradient id="3gv9J" x1="420.15" x2="375.83" y1="955" y2="893.01" gradientUnits="userSpaceOnUse"><stop offset="0" stop-color="#ff8e7e"/><stop offset="1" stop-color="#ff6b79"/></linearGradient></defs><g><g transform="translate(-129 -722)"><g><use fill="url(#3gv9k)" xlink:href="#3gv9j"/></g><g><g filter="url(#3gv9l)"><use fill="none" stroke-opacity=".13" stroke-width="0" mask="url(&quot;#3gv9m&quot;)" xlink:href="#3gv9a"/><use fill="#151948" fill-opacity=".13" xlink:href="#3gv9a"/></g><use fill="url(#3gv9n)" xlink:href="#3gv9a"/></g><g opacity=".7"><use fill="#fff" xlink:href="#3gv9o"/></g><g opacity=".1"><g opacity=".1"><g filter="url(#3gv9p)"><use fill="none" stroke-opacity=".13" stroke-width="0" mask="url(&quot;#3gv9q&quot;)" xlink:href="#3gv9b"/><use fill="#151948" fill-opacity=".13" xlink:href="#3gv9b"/></g><use xlink:href="#3gv9b"/></g><g opacity=".1"><g filter="url(#3gv9r)"><use fill="none" stroke-opacity=".13" stroke-width="0" mask="url(&quot;#3gv9s&quot;)" xlink:href="#3gv9c"/><use fill="#151948" fill-opacity=".13" xlink:href="#3gv9c"/></g><use xlink:href="#3gv9c"/></g><g opacity=".1"><g filter="url(#3gv9t)"><use fill="none" stroke-opacity=".13" stroke-width="0" mask="url(&quot;#3gv9u&quot;)" xlink:href="#3gv9d"/><use fill="#151948" fill-opacity=".13" xlink:href="#3gv9d"/></g><use xlink:href="#3gv9d"/></g><g opacity=".1"><g filter="url(#3gv9v)"><use fill="none" stroke-opacity=".13" stroke-width="0" mask="url(&quot;#3gv9w&quot;)" xlink:href="#3gv9e"/><use fill="#151948" fill-opacity=".13" xlink:href="#3gv9e"/></g><use xlink:href="#3gv9e"/></g><g opacity=".1"><use xlink:href="#3gv9x"/></g></g><g><g><g filter="url(#3gv9y)"><use fill="none" stroke-opacity=".13" stroke-width="0" mask="url(&quot;#3gv9z&quot;)" xlink:href="#3gv9f"/><use fill="#151948" fill-opacity=".13" xlink:href="#3gv9f"/></g><use fill="url(#3gv9A)" xlink:href="#3gv9f"/></g><g><g filter="url(#3gv9B)"><use fill="none" stroke-opacity=".13" stroke-width="0" mask="url(&quot;#3gv9C&quot;)" xlink:href="#3gv9g"/><use fill="#151948" fill-opacity=".13" xlink:href="#3gv9g"/></g><use fill="url(#3gv9D)" xlink:href="#3gv9g"/></g><g><g filter="url(#3gv9E)"><use fill="none" stroke-opacity=".13" stroke-width="0" mask="url(&quot;#3gv9F&quot;)" xlink:href="#3gv9h"/><use fill="#151948" fill-opacity=".13" xlink:href="#3gv9h"/></g><use fill="url(#3gv9G)" xlink:href="#3gv9h"/></g><g><g filter="url(#3gv9H)"><use fill="none" stroke-opacity=".13" stroke-width="0" mask="url(&quot;#3gv9I&quot;)" xlink:href="#3gv9i"/><use fill="#151948" fill-opacity=".13" xlink:href="#3gv9i"/></g><use fill="url(#3gv9J)" xlink:href="#3gv9i"/></g><g><use fill="#fff" xlink:href="#3gv9K"/></g></g></g></g></svg>