<svg xmlns="http://www.w3.org/2000/svg" xmlns:xlink="http://www.w3.org/1999/xlink" width="17" height="15" viewBox="0 0 17 15"><defs><path id="uhapa" d="M1750.57 919.27c.63.47 1.5.47 2.14 0l7.07-5.31v8.58l-.03-.02-4.88-3.67a.27.27 0 1 0-.33.44l4.76 3.57h-15.32l4.76-3.57a.27.27 0 0 0-.33-.44l-4.88 3.67-.03.02v-8.58zm-2.98-3.05l-3.56-2.67 7.1-5.31a.85.85 0 0 1 1.02 0l7.1 5.31-4.32 3.24c.6-.58.96-1.47.96-2.51 0-2.17-1.62-3.74-3.86-3.74-2.6 0-4.57 2-4.57 4.63 0 .37.04.72.13 1.05z"/><linearGradient id="uhapb" x1="1759.78" x2="1743.5" y1="922.87" y2="908.07" gradientUnits="userSpaceOnUse"><stop offset="0" stop-color="#fbc79a"/><stop offset="1" stop-color="#d73e68"/></linearGradient></defs><g><g transform="translate(-1743 -908)"><use fill="url(#uhapb)" xlink:href="#uhapa"/></g></g></svg>