<svg xmlns="http://www.w3.org/2000/svg" xmlns:xlink="http://www.w3.org/1999/xlink" width="23" height="14" viewBox="0 0 23 14"><defs><path id="wt56a" d="M1479.99 725.62h19.21a1.19 1.19 0 1 1 0 2.38h-19.21a1.19 1.19 0 1 1 0-2.38zm3.4 5.1h12a1.19 1.19 0 1 1 0 2.38h-12a1.19 1.19 0 1 1 0-2.38zm3.4 5.1h5.44a1.19 1.19 0 1 1 0 2.38h-5.44a1.19 1.19 0 1 1 0-2.38z"/><linearGradient id="wt56b" x1="1478.8" x2="1500.39" y1="725.62" y2="738.2" gradientUnits="userSpaceOnUse"><stop offset="0" stop-color="#ffa7e7"/><stop offset="1" stop-color="#ea6362"/></linearGradient></defs><g><g transform="translate(-1478 -725)"><use fill="url(#wt56b)" xlink:href="#wt56a"/></g></g></svg>