<svg xmlns="http://www.w3.org/2000/svg" xmlns:xlink="http://www.w3.org/1999/xlink" width="15" height="15" viewBox="0 0 15 15"><defs><path id="33hba" d="M1495.63 859.31a1.04 1.04 0 0 1-2.08 0v-7.75h2.08v7.75zm-4.66-6.2h-6.19a.52.52 0 1 1 0-1.03h6.2a.52.52 0 1 1 0 1.03zm0 2.08h-6.19a.52.52 0 0 1-.52-.52c0-.3.24-.52.52-.52h6.2c.28 0 .5.23.5.52 0 .28-.22.52-.5.52zm0 2.05h-6.19a.52.52 0 1 1 0-1.03h6.2a.52.52 0 1 1 0 1.03zm0 2.08h-6.19a.52.52 0 0 1-.52-.53c0-.28.24-.52.52-.52h6.2c.28 0 .5.24.5.52 0 .3-.22.53-.5.53zm-4.64-9.82h3.1a.52.52 0 1 1 0 1.03h-3.1a.52.52 0 1 1 0-1.03zm9.8 1.03h-2.58v-3.1a.52.52 0 0 0-.51-.51h-10.32a.52.52 0 0 0-.52.52v11.87c0 1.14.92 2.06 2.06 2.06h10.33c1.14 0 2.06-.92 2.06-2.06v-8.26a.52.52 0 0 0-.52-.52z"/><linearGradient id="33hbb" x1="1482.2" x2="1496.65" y1="846.92" y2="861.37" gradientUnits="userSpaceOnUse"><stop offset="0" stop-color="#23bcba"/><stop offset="1" stop-color="#45e994"/></linearGradient></defs><g><g transform="translate(-1482 -847)"><use fill="url(#33hbb)" xlink:href="#33hba"/></g></g></svg>