<svg xmlns="http://www.w3.org/2000/svg" xmlns:xlink="http://www.w3.org/1999/xlink" width="17" height="16" viewBox="0 0 17 16"><defs><path id="xl2ea" d="M1759.26 850.05a7.98 7.98 0 1 1-2.75-2.74l-1.26 1.26a6.26 6.26 0 1 0 2.75 2.75zm-1.3.7h-1.37l-2 1.99-.92.9a1.35 1.35 0 1 1-.75-.75l.92-.91 1.05-1.05.95-.95v-1.37l2.02-2.02.23 1.9 1.89.23zm-7.7 1.95a2.6 2.6 0 1 0 4.54.44l1.62-1.62a4.8 4.8 0 1 1-1.38-1.37l-1.61 1.61a2.59 2.59 0 0 0-3.16.94z"/><linearGradient id="xl2eb" x1="1744.45" x2="1760.41" y1="846.18" y2="862.13" gradientUnits="userSpaceOnUse"><stop offset="0" stop-color="#efbfd5"/><stop offset="1" stop-color="#9d61fd"/></linearGradient></defs><g><g transform="translate(-1744 -846)"><use fill="url(#xl2eb)" xlink:href="#xl2ea"/></g></g></svg>