<svg xmlns="http://www.w3.org/2000/svg" xmlns:xlink="http://www.w3.org/1999/xlink" width="100" height="28" viewBox="0 0 100 28"><defs><path id="pbcla" d="M1531.33 5001.53l5.95 4.77-8.61 5.64-6.03-5.04 8.68-5.37-8.68-5.36 6.03-5.03 8.61 5.63zm-8.69 5.37zm-8.68-5.37l8.68-5.36-6.03-5.03-8.61 5.63 5.95 4.76zm8.68 5.37l-6.03 5.04-8.61-5.64 5.95-4.77h.01z"/><path id="pbclb" d="M1522.66 5007.98l-6.05 5-2.58-1.68v1.9l8.63 5.16 8.63-5.17v-1.89l-2.59 1.69-6.04-5.01z"/><path id="pbclc" d="M1594.16 5011.22c-3.34 0-4.57-2.34-4.57-5.84 0-3.6 1.32-5.83 4.55-5.83 3.27 0 4.56 2.24 4.56 5.83 0 3.5-1.22 5.84-4.54 5.84zm0-2.18c.96 0 1.32-.77 1.32-3.66 0-3-.4-3.65-1.32-3.65-.93 0-1.34.68-1.34 3.65 0 2.75.32 3.66 1.32 3.66zm-14.39-9.27h1.85c.25.8.36 1.02.59 1.45.27-.56.8-1.67 2.6-1.67.59 0 1.2.1 1.82.43 2.05 1.06 2.19 4.42 2.19 5.47 0 2.7-.87 5.67-3.63 5.67a2.78 2.78 0 0 1-2.34-1.2v5h-3.08zm3.07 7.25c0 .57 0 1.13.37 1.56.23.3.59.48 1 .48.89 0 1.36-.75 1.36-3.7 0-2.88-.43-3.66-1.4-3.66-1.33 0-1.33 1.46-1.33 2.73zm-13-11.04h3.06v4.61c.34-.36.91-.98 2.14-.98 3.57 0 3.8 4.32 3.8 5.9 0 1.9-.36 3.64-1.45 4.76-.55.54-1.4.86-2.14.86-1.53 0-2.14-1.11-2.53-1.84v1.68h-2.89zm3.06 10.5c0 1 0 2.58 1.41 2.58 1.21 0 1.3-1.57 1.3-3.54 0-2.36-.11-3.75-1.39-3.75-1.32 0-1.32.96-1.32 2.57v2.13zm-8.54 4.74c-3.35 0-4.58-2.34-4.58-5.84 0-3.6 1.32-5.83 4.56-5.83 3.28 0 4.58 2.24 4.58 5.83 0 3.5-1.23 5.84-4.56 5.84zm1.33-5.84c0-3-.42-3.65-1.33-3.65-.94 0-1.35.68-1.35 3.65 0 2.75.32 3.66 1.33 3.66h.02c.96 0 1.33-.77 1.33-3.66zm-12.27 5.59v-11.2h3.12v4.84c0 .86 0 3.45 2.3 3.45.1 0 .24 0 .52-.04v3.04c-.16.05-.32.07-.55.07-1.82 0-2.37-1.9-2.64-2.86v2.7zm-7.77-11.2c1.16 0 2.8 0 4.14 1.05 1.64 1.25 2.48 3.8 2.48 6.63 0 7.45-4.7 7.47-7.03 7.47h-3.57v-15.15zm-.09 12.54c1.35 0 3.2-.16 3.2-4.82 0-4.95-1.87-5.1-3.2-5.1h-.57v9.92z"/><path id="pbcld" d="M1598.59 5010.95l2.89-5.47-3.32-5.71h2.7l1.89 3.35 1.64-3.35h3.38l-3.34 6.26 2.89 4.92h-2.7l-1.44-2.58-1.2 2.58h-3.4z"/></defs><g><g transform="translate(-1508 -4991)"><g><use fill="#0062ff" xlink:href="#pbcla"/></g><g><use fill="#0062ff" xlink:href="#pbclb"/></g><g transform="matrix(1 0 0 -1 0 10012)"><g><g><g><use fill="#0062ff" xlink:href="#pbclc"/></g><g><use fill="#0062ff" xlink:href="#pbcld"/></g></g></g></g></g></g></svg>