<svg xmlns="http://www.w3.org/2000/svg" xmlns:xlink="http://www.w3.org/1999/xlink" width="69" height="68" viewBox="0 0 69 68"><defs><path id="wtzqa" d="M1220.51 3352.19a5.64 5.64 0 0 1-5.58-4.14 5.91 5.91 0 0 1 3.83-7.22l48.3-16.19a6.54 6.54 0 0 1 1.76-.26 5.79 5.79 0 0 1 5.64 3.95l.07.24c.9 3.16-1.34 5.98-4.03 6.88l-48.03 16.4c-.63.22-1.3.33-1.96.34z"/><path id="wtzqb" d="M1228.57 3375.93a5.63 5.63 0 0 1-5.6-4.08 5.95 5.95 0 0 1 3.82-7.29l48.3-16.33c.63-.2 1.27-.31 1.92-.32a5.84 5.84 0 0 1 5.63 3.91l.07.25c.47 1.63.2 3.46-.73 4.9-.7 1.09-2.87 2.03-2.87 2.03l-48.49 16.58c-.66.22-1.35.34-2.05.35z"/><path id="wtzqc" d="M1268.78 3376.01a5.93 5.93 0 0 1-5.68-4.04l-16.12-47.87-.08-.27a5.93 5.93 0 0 1 11.34-3.52l16.11 47.87.05.15a5.96 5.96 0 0 1-5.62 7.68z"/><path id="wtzqd" d="M1244.82 3384.09a5.93 5.93 0 0 1-5.68-4.05l-16.12-47.88a5.93 5.93 0 1 1 11.26-3.78l16.11 47.88a5.93 5.93 0 0 1-5.57 7.83z"/><path id="wtzqe" d="M1260.83 3365.24l11.24-3.84-3.67-10.91-11.26 3.8 3.7 10.95z"/><path id="wtzqf" d="M1236.91 3373.43l11.25-3.84-3.7-11-11.27 3.8 3.72 11.04z"/><path id="wtzqg" d="M1252.83 3341.48l11.24-3.83-3.63-10.79-11.26 3.77z"/><path id="wtzqh" d="M1228.9 3349.65l11.23-3.84-3.67-10.92-11.25 3.78 3.7 10.98z"/></defs><g><g transform="translate(-1214 -3316)"><g><use fill="#70cadb" xlink:href="#wtzqa"/></g><g><use fill="#e01765" xlink:href="#wtzqb"/></g><g><use fill="#e8a723" xlink:href="#wtzqc"/></g><g><use fill="#3eb890" xlink:href="#wtzqd"/></g><g><use fill="#cc2027" xlink:href="#wtzqe"/></g><g><use fill="#361238" xlink:href="#wtzqf"/></g><g><use fill="#65863a" xlink:href="#wtzqg"/></g><g><use fill="#1a937d" xlink:href="#wtzqh"/></g></g></g></svg>