<svg xmlns="http://www.w3.org/2000/svg" xmlns:xlink="http://www.w3.org/1999/xlink" width="60" height="68" viewBox="0 0 60 68"><defs><path id="dmoia" d="M1273.64 3054.49a2 2 0 0 1 1.13.38c-2.82 1.32-5.84 4.64-7.12 11.28l-5.38 1.66c1.5-5.07 5.05-13.32 11.37-13.32zm2.62 2.46c.54 1.35.89 3.29.89 5.9v.38l-6.8 2.1c1.3-5.04 3.76-7.46 5.9-8.38zm6.49 4.55l-3.3 1.02v-.71a16 16 0 0 0-.78-5.29c1.95.24 3.24 2.45 4.08 4.98zm15.8 3.86a.66.66 0 0 0-.6-.55c-.24-.03-5.49-.41-5.49-.41l-4.04-4c-.4-.4-1.18-.27-1.48-.19l-2.04.63c-1.22-3.48-3.37-6.68-7.14-6.68h-.32c-1.08-1.4-2.4-2.02-3.56-2.02-8.8 0-13 10.94-14.32 16.5l-6.16 1.9c-1.9.6-1.97.66-2.22 2.45-.19 1.35-5.18 39.78-5.18 39.78l38.91 7.25 21.09-4.54-7.45-50.12z"/><path id="dmoib" d="M1297.9 3064.8l-5.52-.4-4.07-4a1 1 0 0 0-.56-.26l-2.96 60 21.21-4.55-7.5-50.23a.66.66 0 0 0-.6-.55"/><path id="dmoic" d="M1277.53 3076.78l-2.6 7.72s-2.26-1.21-5.03-1.21c-4.08 0-4.28 2.56-4.28 3.2 0 3.53 9.16 4.88 9.16 13.14 0 6.49-4.1 10.67-9.65 10.67-6.64 0-10.04-4.15-10.04-4.15l1.78-5.9s3.5 3.02 6.44 3.02a2.6 2.6 0 0 0 2.71-2.64c0-4.6-7.51-4.8-7.51-12.35 0-6.36 4.55-12.51 13.73-12.51 3.54 0 5.29 1.01 5.29 1.01"/></defs><g><g transform="translate(-1246 -3052)"><g><use fill="#95bf46" xlink:href="#dmoia"/></g><g><use fill="#5e8e3e" xlink:href="#dmoib"/></g><g><use fill="#fff" xlink:href="#dmoic"/></g></g></g></svg>