<svg xmlns="http://www.w3.org/2000/svg" xmlns:xlink="http://www.w3.org/1999/xlink" width="92" height="94" viewBox="0 0 92 94"><defs><path id="3aoia" d="M1105.9 3195.8c0-3.83-.32-6.63-.99-9.53h-43.78v17.3h25.7c-.52 4.3-3.31 10.78-9.53 15.13l-.09.58 13.84 10.72.96.1c8.8-8.14 13.88-20.1 13.88-34.3"/><path id="3aoib" d="M1061.13 3241.38c12.58 0 23.15-4.14 30.87-11.3l-14.71-11.4c-3.94 2.75-9.22 4.67-16.17 4.67-12.32 0-22.79-8.13-26.52-19.37l-.55.04-14.39 11.14-.19.52a46.6 46.6 0 0 0 41.65 25.7"/><path id="3aoic" d="M1034.6 3203.98c-.98-2.9-1.55-6-1.55-9.22 0-3.21.57-6.32 1.5-9.22l-.03-.62-14.57-11.31-.48.23a46.65 46.65 0 0 0-4.97 20.92c0 7.51 1.81 14.6 4.97 20.92l15.13-11.7"/><path id="3aoid" d="M1061.13 3166.17c8.75 0 14.66 3.78 18.02 6.94l13.16-12.85a44.8 44.8 0 0 0-31.18-12.12 46.6 46.6 0 0 0-41.66 25.7l15.08 11.7c3.78-11.24 14.25-19.37 26.57-19.37"/></defs><g><g transform="translate(-1014 -3148)"><g><use fill="#4285f4" xlink:href="#3aoia"/></g><g><use fill="#34a853" xlink:href="#3aoib"/></g><g><use fill="#fbbc05" xlink:href="#3aoic"/></g><g><use fill="#eb4335" xlink:href="#3aoid"/></g></g></g></svg>