<svg xmlns="http://www.w3.org/2000/svg" xmlns:xlink="http://www.w3.org/1999/xlink" width="94" height="24" viewBox="0 0 94 24"><defs><path id="zg7fa" d="M967.76 3462.41a1.96 1.96 0 0 0 0-3.92 1.96 1.96 0 0 0 0 3.92zm53.5 7.9c-.5-2.58.8-4.26 2.15-4.44.47-.07 1.16.23 1.29.8.22 1.08-.03 2.69-3.06 4.71 0-.01-.27-.53-.38-1.08zm.38 1.07zm-7.02-15.92c1.58-.16 1.5 6.74-1.65 11.08-.41-1.57-1.04-10.53 1.65-11.08zm-13.8 9.15c-.21-1.6-.22-8.81 1.5-8.61.95.37-.6 7.17-1.5 8.61zm-12.5-.1c-.21-1.6-.22-8.81 1.49-8.61.95.38-.6 7.17-1.5 8.61zm-12.6 0c-.22-1.6-.23-8.81 1.48-8.61.95.38-.6 7.17-1.49 8.61zm-26.77 2.8c-.08-.12-.06-.04-.15-.16a18.47 18.47 0 0 1-1.1-5.46c-.09-2.72.36-5.9 1.7-5.9.9 0 1.87 6.45-.45 11.53zm-4.63 6.6c-1.9 0-3.12-1.77-3.12-3.66 0-1.9 1.12-3.66 3.02-3.66.86 0 1.33.1 2 .68.12.47.46 1.57.64 2.07.22.67.49 1.24.75 1.86-.4 1.59-1.64 2.7-3.29 2.7zm87.81-4.85c-.3-.2-.52-.24-.71.17-3.28 7.09-8.8 3.55-8.25 3.86 1.23-.56 4.45-3.14 3.96-6.71-.29-2.18-2.16-3.15-4.15-2.8-3.47.6-4.74 4.35-4.1 7.66.11.57.32 1.03.53 1.5-3.92 3.18-5.47-2.85-5.66-3.57 0-.04 3.03-2.57 3.88-8.6.88-6.3-1.13-7.46-3.2-7.42-3.8.07-4.83 8.03-3.45 14.66-.11.03-.66.33-1.52.36-.62-1.96-3.29-3.68-3.98-3.02-1.74 1.66.42 4.9 1.95 5.15-.92 5.64-6.65 4.25-5.58-2.82 1.86-3.46 3.28-8.62 3.02-11.73-.09-1.1-.9-2.58-2.74-2.5-3.54.13-3.93 8.09-3.51 13.74-.02-.14-.22.69-1.67 1.1-.35-1.9-3.41-3.82-4.14-2.9-1.35 1.72 1 4.79 2.1 5-.91 5.64-6.64 4.25-5.58-2.82 1.87-3.47 3.3-8.61 3.04-11.72-.09-1.1-.9-2.58-2.75-2.5-3.54.13-3.92 8.09-3.5 13.74-.03-.14-.23.72-1.74 1.12-.05-2.48-3.12-3.6-3.87-2.82-1.32 1.41.3 4.3 1.8 5-.91 5.64-6.65 4.25-5.58-2.82 1.86-3.47 3.29-8.63 3.03-11.73-.08-1.09-.9-2.57-2.74-2.5-3.54.14-3.82 8.5-3.4 14.15-1.18 5-5.09 11.24-4.58-1.26.05-.88.1-1.21-.33-1.54-.33-.25-1.07-.13-1.48-.12-.49.02-.62.3-.72.74-.25 1.13-.3 2.22-.34 3.72-.02.7-.08 1.03-.35 1.99-.28.95-1.8 2.7-2.65 2.4-1.17-.4-.78-3.7-.56-5.96.18-1.79-.4-2.58-1.9-2.87-.87-.18-1.4-.15-2.3-.44-.87-.28-1.06-1.9-2.9-1.36-1 .3-.36 2.42-.6 4-1.18 7.76-3.65 7.97-4.8 4.2 5.15-12.63 1.48-17.6-.66-17.6-2.23 0-4.79 1.53-3.71 11.39-.52-.15-.68-.23-1.27-.23-3.25-.01-5.47 2.62-5.47 5.87s2.22 5.89 5.48 5.89c1.92 0 3.27-.88 4.3-2.23.66.96 1.48 2.25 2.96 2.19 4.43-.18 5.72-9.26 5.87-9.77.47.07.92.21 1.36.28.72.11.78.4.76 1.13-.2 6.17.95 8.34 3.53 8.34 1.44 0 2.73-1.42 3.61-2.43.67 1.37 1.71 2.39 3.13 2.43 3.42.08 4.74-5.38 4.62-4.66-.1.56 1.1 4.62 4.63 4.64 4.37.02 5.18-4.78 5.27-5.59.02-.14.01-.16 0 0v.05c1.4-.26 2.1-1 2.1-1s1.12 6.62 5.24 6.55c4.27-.09 5.09-4.42 5.19-5.27v.03c1.65-.6 2.08-1.2 2.08-1.2s.88 6.48 5.23 6.54c3.87.05 5.31-3.93 5.32-5.59a6.2 6.2 0 0 0 1.83-.4c.03.1 1.46 5.66 5.38 5.95 1.86.14 3.26-1.05 4.06-1.6 1.87 1.53 8.1 3.46 12.03-3.21.56-.95-.64-2.08-.85-2.23z"/></defs><g><g transform="translate(-939 -3453)"><use fill="#ea4c89" xlink:href="#zg7fa"/></g></g></svg>