<svg xmlns="http://www.w3.org/2000/svg" xmlns:xlink="http://www.w3.org/1999/xlink" width="70" height="65" viewBox="0 0 70 65"><defs><path id="up3ea" d="M1504.21 2993.33a15.2 15.2 0 0 0-15.21-15.19 15.2 15.2 0 0 0-15.22 15.2 15.2 15.2 0 0 0 15.22 15.18c8.4 0 15.21-6.8 15.21-15.19zm-50.21 34.18a15.2 15.2 0 0 0 15.22 15.2 15.2 15.2 0 0 0 0-30.38 15.2 15.2 0 0 0-15.22 15.18zm54.78-15.19a15.2 15.2 0 0 0-15.23 15.19 15.2 15.2 0 0 0 15.23 15.2 15.2 15.2 0 0 0 0-30.38z"/><radialGradient id="up3eb" cx="1489.01" cy="3013.46" r="46.41" gradientUnits="userSpaceOnUse"><stop offset="0" stop-color="#ffb900"/><stop offset=".6" stop-color="#f95d8f"/><stop offset="1" stop-color="#f95353"/></radialGradient></defs><g><g transform="translate(-1454 -2978)"><g><use fill="url(#up3eb)" xlink:href="#up3ea"/></g></g></g></svg>