<svg xmlns="http://www.w3.org/2000/svg" xmlns:xlink="http://www.w3.org/1999/xlink" width="21" height="26" viewBox="0 0 21 26"><defs><path id="m9hra" d="M1120.5 5827.43a5.75 5.75 0 0 0 1.28-4.08 5.7 5.7 0 0 0-3.7 1.94c-.79.94-1.5 2.48-1.31 3.93 1.4.1 2.83-.71 3.73-1.79zm3.15 9.47c-.03-3.22 2.6-4.79 2.71-4.86a5.81 5.81 0 0 0-4.6-2.52c-1.93-.21-3.81 1.17-4.8 1.17-1 0-2.52-1.15-4.16-1.12a6.11 6.11 0 0 0-5.15 3.19c-2.23 3.92-.57 9.67 1.57 12.84 1.07 1.55 2.32 3.28 3.95 3.22 1.6-.07 2.2-1.03 4.12-1.03s2.48 1.03 4.14 1c1.72-.04 2.8-1.57 3.83-3.13a12.89 12.89 0 0 0 1.75-3.62 5.59 5.59 0 0 1-3.36-5.14z"/></defs><g><g transform="translate(-1106 -5823)"><use fill="#fff" xlink:href="#m9hra"/></g></g></svg>