<svg xmlns="http://www.w3.org/2000/svg" xmlns:xlink="http://www.w3.org/1999/xlink" width="21" height="22"><defs><path id="a" d="M458.5 634.16c-5.8 0-10.5-4.72-10.5-10.54 0-5.82 4.7-10.54 10.5-10.54s10.5 4.72 10.5 10.54c0 5.82-4.7 10.54-10.5 10.54zm0-19.1a8.55 8.55 0 0 0-8.53 8.56 8.55 8.55 0 0 0 8.53 8.56 8.55 8.55 0 0 0 8.53-8.56 8.55 8.55 0 0 0-8.53-8.56zm3.68 10.21l-2.95 3.3v-.01a.98.98 0 0 1-1.46 0l-2.95-3.29a.99.99 0 0 1 .73-1.65c.29 0 .55.13.73.33l1.24 1.38v-5.99a.99.99 0 1 1 1.96 0v5.99l1.24-1.38a.98.98 0 0 1 1.72.66c0 .25-.1.48-.26.66z"/></defs><use fill="#28c8c6" xlink:href="#a" transform="translate(-448 -613)"/></svg>