<svg xmlns="http://www.w3.org/2000/svg" xmlns:xlink="http://www.w3.org/1999/xlink" width="16" height="13"><defs><path id="a" d="M1225 4587.54c-.59.26-1.22.44-1.89.52.68-.4 1.2-1.05 1.45-1.82a6.6 6.6 0 0 1-2.09.8 3.28 3.28 0 0 0-5.6 2.99 9.33 9.33 0 0 1-6.76-3.43 3.27 3.27 0 0 0-.44 1.65c0 1.14.75 2.14 1.64 2.73-.54-.02-1.31-.16-1.31-.4v.03c0 1.6.95 2.92 2.45 3.22a4 4 0 0 1-1.62.06 3.26 3.26 0 0 0 3.05 2.28 6.63 6.63 0 0 1-4.88 1.36 9.29 9.29 0 0 0 5.03 1.47c6.04 0 9.34-5 9.34-9.34v-.42a6.67 6.67 0 0 0 1.63-1.7z"/></defs><use fill="#fff" xlink:href="#a" transform="translate(-1209 -4586)"/></svg>