<svg xmlns="http://www.w3.org/2000/svg" xmlns:xlink="http://www.w3.org/1999/xlink" width="177" height="177"><defs><path id="a" d="M301.1 3350.47l45.79 105.95-80.8-46.96 25.5-58.99c1.59-1.56 3.17-2.22 4.73-1.96 1.6-.28 3.19.37 4.78 1.96zm-6.97 77.9l-48.33 28.05 19.42-44.85zm2.35 68.63c-24.3 0-45.34-8.73-62.55-25.93-17.2-17.21-25.93-38.27-25.93-62.59 0-24.3 8.73-45.34 25.93-62.54 17.21-17.21 38.26-25.94 62.55-25.94 24.32 0 45.38 8.73 62.58 25.94 17.21 17.2 25.94 38.25 25.94 62.54 0 24.32-8.73 45.38-25.94 62.58-17.2 17.21-38.26 25.94-62.58 25.94zm0-167.6c-22.02 0-40.3 7.58-55.9 23.18-15.6 15.6-23.18 33.89-23.18 55.9 0 22.04 7.58 40.34 23.18 55.94 15.6 15.6 33.89 23.18 55.9 23.18 22.04 0 40.34-7.58 55.94-23.18 15.6-15.6 23.18-33.9 23.18-55.94 0-22.01-7.58-40.3-23.18-55.9-15.6-15.6-33.9-23.18-55.94-23.18z"/></defs><use fill="#28c8c6" xlink:href="#a" transform="translate(-208 -3320)"/></svg>