<svg xmlns="http://www.w3.org/2000/svg" viewBox="0 0 512 512"><path fill="#454545" d="M349.866 162.133h68.267v25.6h-68.267z"/><path d="M238.933 281.6a45.15 45.15 0 0 0 8.448-.768l.085.768v8.533a33.314 33.314 0 0 1-4.096 16.213 36.215 36.215 0 0 1-5.888 7.936 34.357 34.357 0 0 1-24.149 9.984 33.949 33.949 0 0 1-28.501-15.445 33.415 33.415 0 0 1-5.632-18.688V281.6l.085-.768a45.15 45.15 0 0 0 8.448.768h51.2z" fill="#ffdfc4"/><path d="M358.4 341.333V307.2h51.2v145.067c0 28.279-22.921 51.2-51.2 51.2V341.333z" fill="#095199"/><path d="M256 278.613a42.594 42.594 0 0 0 11.179-5.547h5.888c47.13 0 85.333 38.204 85.333 85.333v145.067h-42.667v-153.6L247.466 307.2l-4.096-.853a33.314 33.314 0 0 0 4.096-16.213V281.6l-.085-.768a41.281 41.281 0 0 0 8.619-2.219zm-76.8 2.987v8.533a33.486 33.486 0 0 0 5.632 18.688l-73.899 41.045v153.6H68.266V358.4c0-47.13 38.204-85.333 85.333-85.333h5.888a42.625 42.625 0 0 0 11.179 5.547 41.138 41.138 0 0 0 8.619 2.219l-.085.767z" fill="#0c62b9"/><path d="M315.733 349.867v153.6h-204.8v-153.6l73.899-41.045a33.946 33.946 0 0 0 28.501 15.445 34.325 34.325 0 0 0 24.149-9.984 36.215 36.215 0 0 0 5.888-7.936l4.096.853 68.267 42.667z" fill="#f7b546"/><path d="M409.6 307.2h-51.2v-34.133h51.2l3.413-34.133h5.888c13.696-.017 24.815 11.068 24.832 24.764v.836c0 14.14-11.46 25.6-25.6 25.6H409.6V307.2z" fill="#ffdfc4"/><path fill="#52240f" d="M413.013 238.933l-3.413 34.134h-51.2l-8.534-85.334h68.267z"/><path d="M213.333 281.6h-25.6a45.21 45.21 0 0 1-8.448-.768 41.138 41.138 0 0 1-8.619-2.219 42.594 42.594 0 0 1-11.179-5.547 51.042 51.042 0 0 1-22.955-42.667v-51.2h153.6v51.2a51.042 51.042 0 0 1-22.955 42.667 42.625 42.625 0 0 1-11.179 5.547 41.138 41.138 0 0 1-8.619 2.219 45.21 45.21 0 0 1-8.448.768h-25.598zm76.8-221.867h-153.6a25.5 25.5 0 0 1-22.869-14.165L95.146 8.533h143.787c28.271 0 51.2 22.921 51.2 51.2z" fill="#6f3114"/><g fill="#ffdfc4"><path d="M298.666 110.933c14.14 0 25.6 11.46 25.6 25.6s-11.46 25.6-25.6 25.6h-8.533v-51.2h8.533zm-162.133 0v51.2H128c-14.14 0-25.6-11.46-25.6-25.6s11.46-25.6 25.6-25.6h8.533z"/><path d="M264.533 123.733c0-7.066-5.734-12.8-12.8-12.8s-12.8 5.734-12.8 12.8 5.734 12.8 12.8 12.8 12.8-5.734 12.8-12.8zm25.6 55.467h-153.6V59.733h153.6V179.2zm-128-55.467c0 7.066 5.734 12.8 12.8 12.8s12.8-5.734 12.8-12.8-5.734-12.8-12.8-12.8-12.8 5.735-12.8 12.8z"/></g><g fill="#6f3114"><circle cx="251.733" cy="123.733" r="12.8"/><circle cx="174.933" cy="123.733" r="12.8"/></g><path fill="#0c62b9" d="M358.4 332.8H384v17.067h-25.6z"/><path d="M247.466 247.467h17.067V281.6h-17.067zm-42.666 0h17.067V281.6H204.8zm-42.667 0H179.2V281.6h-17.067z" fill="#3d1a0b"/><path fill="#454545" d="M332.8 179.2h102.4v17.067H332.8z"/><path d="M392.533 136.533h-17.067a30.421 30.421 0 0 1 11.034-23.1c4.181-4.181 6.033-6.229 6.033-11.034H409.6a30.421 30.421 0 0 1-11.034 23.1c-4.181 4.182-6.033 6.239-6.033 11.034zm34.133 0H409.6a30.421 30.421 0 0 1 11.034-23.1c4.181-4.181 6.033-6.229 6.033-11.034h17.067a30.421 30.421 0 0 1-11.034 23.1c-4.182 4.182-6.034 6.239-6.034 11.034zm-68.266 0h-17.067a30.421 30.421 0 0 1 11.034-23.1c4.181-4.181 6.033-6.229 6.033-11.034h17.067a30.421 30.421 0 0 1-11.034 23.1c-4.182 4.182-6.033 6.239-6.033 11.034z" fill="#d3d3d3"/><path d="M213.333 232.149h-.068a44.269 44.269 0 0 1-31.573-13.141l12.1-12.032a27.292 27.292 0 0 0 19.473 8.107 27.55 27.55 0 0 0 19.627-8.124l12.066 12.066a44.491 44.491 0 0 1-31.625 13.124z" fill="#3d1a0b"/><circle cx="251.733" cy="123.733" r="12.8"/><circle cx="174.933" cy="123.733" r="12.8"/><path d="M422.4 230.758l3.413-34.492h9.387V179.2h-8.533v-17.067a8.536 8.536 0 0 0-8.533-8.533h-68.267a8.536 8.536 0 0 0-8.533 8.533V179.2H332.8v17.067h9.387l.853 8.533h-1.707c-14.14 0-25.6 11.46-25.6 25.6.068 14.106 11.494 25.532 25.6 25.6h6.827l1.707 17.502v31.095a93.842 93.842 0 0 0-62.814-38.903 59.438 59.438 0 0 0 11.614-35.294v-59.733c18.85 0 34.133-15.283 34.133-34.133S317.517 102.4 298.666 102.4V59.733C298.624 26.761 271.906.043 238.933 0H95.146a8.526 8.526 0 0 0-8.525 8.542c0 1.323.307 2.628.896 3.806l18.517 37.035a33.798 33.798 0 0 0 21.965 17.758v35.26c-18.85 0-34.133 15.283-34.133 34.133S109.15 170.667 128 170.667V230.4a59.548 59.548 0 0 0 11.597 35.294c-45.858 6.946-79.778 46.327-79.863 92.706v145.067A8.536 8.536 0 0 0 68.267 512H358.4c32.973-.043 59.691-26.761 59.733-59.733v-153.6c18.961-.111 34.244-15.573 34.133-34.534v-.367c-.051-17.025-12.936-31.258-29.866-33.008zm-64-60.091h51.2v8.533h-51.2v-8.533zm50.346 25.6l-6.827 68.267h-35.755l-6.827-68.267h49.409zm-67.413 42.666a8.297 8.297 0 0 1-6.084-2.62 8.154 8.154 0 0 1-2.449-5.914 8.536 8.536 0 0 1 8.533-8.533h3.413l1.707 17.067h-5.12zm-34.133 256H119.466v-140.04l63.283-35.166a42.315 42.315 0 0 0 30.583 13.073 42.78 42.78 0 0 0 30.191-12.493 41.238 41.238 0 0 0 3.081-3.584l60.595 37.922v140.288zm-68.267-204.8a24.998 24.998 0 0 1-3.021 12.058 27.563 27.563 0 0 1-4.42 5.973 25.736 25.736 0 0 1-18.159 7.569 25.453 25.453 0 0 1-21.402-11.631 25.178 25.178 0 0 1-4.198-13.969h51.2zm76.8-153.6c0 9.429-7.637 17.067-17.067 17.067v-34.133c9.421 0 17.067 7.637 17.067 17.066zM281.6 68.267v102.4H145.066v-102.4H281.6zM121.301 41.754l-12.339-24.687h129.971c20.267.026 37.734 14.276 41.813 34.133H136.533a16.936 16.936 0 0 1-15.232-9.446zm-5.359 106.837c-6.656-6.673-6.647-17.476.017-24.132A17.095 17.095 0 0 1 128 119.467V153.6a16.91 16.91 0 0 1-12.058-5.009zm29.124 39.142H281.6V230.4a42.468 42.468 0 0 1-17.067 33.98v-16.913h-17.067v24.559c-.563.111-1.05.333-1.638.418a37.459 37.459 0 0 1-6.895.623h-17.067v-25.6H204.8v25.6h-17.067c-2.432 0-4.864-.23-7.253-.683-.418-.06-.853-.179-1.28-.256v-24.661h-17.067v16.93a42.44 42.44 0 0 1-17.067-33.997v-42.667zM76.8 358.4c.051-42.394 34.406-76.749 76.8-76.8h3.593a49.26 49.26 0 0 0 10.496 5.018c.998.367 1.988.632 2.978.939v2.56a42.329 42.329 0 0 0 2.91 15.172l-66.782 37.103a8.519 8.519 0 0 0-4.395 7.475v145.067H76.8V358.4zm273.066 136.533h-25.6V349.867a8.54 8.54 0 0 0-4.011-7.236l-65.818-41.139a42.926 42.926 0 0 0 1.562-11.358v-2.56c.853-.273 1.783-.503 2.56-.811a50.186 50.186 0 0 0 10.863-5.12h3.644c42.394.051 76.749 34.406 76.8 76.8v136.49zm17.067-.853V349.867H384V332.8h-17.067v-17.067h34.133v136.533c-.026 20.267-14.285 37.726-34.133 41.805v.009zm51.2-212.48H409.6a8.536 8.536 0 0 0-8.533 8.533v8.533h-34.133V281.6H409.6a8.53 8.53 0 0 0 8.491-7.68l2.628-26.266c8.457 1.041 14.737 8.354 14.481 16.879 0 9.43-7.646 17.067-17.067 17.067z"/><path d="M398.566 125.5a30.421 30.421 0 0 0 11.034-23.1h-17.067c0 4.804-1.852 6.827-6.033 11.034a30.365 30.365 0 0 0-11.034 23.1h17.067c0-4.796 1.852-6.853 6.033-11.034zm34.133 0a30.421 30.421 0 0 0 11.034-23.1h-17.067c0 4.804-1.852 6.827-6.033 11.034a30.365 30.365 0 0 0-11.034 23.1h17.067c0-4.796 1.852-6.853 6.033-11.034zm-68.266 0a30.421 30.421 0 0 0 11.034-23.1H358.4c0 4.804-1.852 6.827-6.033 11.034a30.365 30.365 0 0 0-11.034 23.1H358.4c0-4.796 1.851-6.853 6.033-11.034zm-151.1 106.649A44.465 44.465 0 0 0 245 219.025l-12.066-12.066a27.557 27.557 0 0 1-19.627 8.124 27.287 27.287 0 0 1-19.473-8.107l-12.1 12.032a44.269 44.269 0 0 0 31.573 13.141h.026z"/></svg>