<svg xmlns="http://www.w3.org/2000/svg" xmlns:xlink="http://www.w3.org/1999/xlink" width="288" height="301" viewBox="0 0 288 301"><defs><path id="bwd8a" d="M708 5566v-298h285v298zm3-155.12c0 75.01 58.9 136.24 132.85 139.72l7.12 12.4 7.15-12.45c73.5-3.97 131.88-64.98 131.88-139.67 0-77.25-62.46-139.88-139.5-139.88-77.04 0-139.5 62.63-139.5 139.88z"/><path id="bwd8b" d="M850.5 5271c77.04 0 139.5 62.63 139.5 139.88 0 74.69-58.38 135.7-131.88 139.67l-7.15 12.45-7.12-12.4C769.9 5547.12 711 5485.9 711 5410.88c0-77.25 62.46-139.88 139.5-139.88z"/><clipPath id="bwd8c"><use fill="#fff" xlink:href="#bwd8a"/></clipPath></defs><g><g transform="translate(-706 -5266)"><use fill="#394b50" xlink:href="#bwd8b"/><use fill="#fff" fill-opacity="0" stroke="#fff" stroke-linecap="round" stroke-linejoin="round" stroke-miterlimit="50" stroke-width="6" clip-path="url(&quot;#bwd8c&quot;)" xlink:href="#bwd8b"/></g></g></svg>