<svg version="1" xmlns="http://www.w3.org/2000/svg" width="177.333" height="177.333" viewBox="0 0 133 133"><path d="M62.7 27.4c3.2 6.7 2.1 11.1-1.9 7.3-1.5-1.4-6.8-4.4-8.3-4.7-1.2-.3-2.1-.5-6-1.7s-14.8-.8-15.3.6c-.2.6-1.3 1.1-2.3 1.1-2.8 0-7.9 2.8-7.9 4.3 0 .7-1.1 1.9-2.4 2.7C16.6 38.3 5 52.2 5 53.4c0 .2 1.5.1 3.3-.3 3.2-.8 8.9.8 10.2 2.9.3.5 1.7 1 3 1s2.7.4 3 1c.3.5 1.7 1 3.1 1 1.3 0 2.4.4 2.4 1s.9.6 2.6 0c3.3-1.3 3.4-1.3 3.4.6 0 1.3.6 1.5 2.8.9 1.5-.4 3.6-.9 4.6-1 1.1-.1 3.2-1.4 4.7-2.9l2.7-2.8.4 2.7.3 2.7 4.8-3.7c5.2-4 7.7-8.6 7.3-13.7-.3-3.8.2-5.8 1.5-5.8 2 0 .9 11-1.7 17.5-2.3 5.8-2.9 6.5-5.3 6.4-3.6-.1-5.4.4-8.4 2.4-1.5.9-2.9 1.7-3.2 1.7-1 0-5.4 5.4-6.1 7.5-.3 1.1-1.3 2.7-2 3.6-1.6 1.8-2.5 9.3-2.7 23l-.2 9.6 2.7-2.9c1.7-1.9 3.6-2.8 5.6-2.8 1.7 0 3.4-.5 3.7-1 .3-.6 1.5-1 2.6-1 1 0 2.9-1 4.1-2.2 1.3-1.3 2.7-2.2 3.3-2.1 1.5.3 5.5-6.5 5.5-9.4 0-2.1.3-2.3 1.4-1.4 1.1.9 1.6.5 2.5-2 1.9-5.4 1.3-12.1-1.4-17.5l-2.5-5 1.9-4.9 1.9-5 .7 5.8c.4 3.1 1.1 5.7 1.6 5.7s.9.7.9 1.6c0 .9 1.4 3.2 3 5.1 1.7 1.8 3 3.8 3 4.3 0 .6.5 1 1.1 1 .7 0 1.7.7 2.3 1.5.6.8 2.2 1.7 3.5 2 1.3.2 3.4 1.3 4.5 2.4 2 1.8 6.4 4.1 9.4 4.7.7.1 3.1 1.2 5.4 2.4 4.5 2.4 5.6 2.1 4.1-1.2-1.1-2.4-1.1-5.6-.1-7.3.3-.6.6-3.7.7-6.9.1-6.5 1.4-9 4.3-8 1 .3 2.5.1 3.2-.5 1.6-1.3 7.4-1.8 10.4-.7 2.7.9 2.9-.5.2-2.9-1.1-1-2-2.4-2-3 0-.7-.7-1.5-1.5-1.9-.8-.3-1.2-1.2-.9-2 .3-.9-.3-2-1.5-2.8-1.2-.7-2.1-1.8-2.1-2.5 0-.6-1.3-2-3-3-1.6-.9-3-2.5-3-3.4 0-.9-1.8-2.8-4-4.3-2.2-1.4-4-2.4-4-2 0 .3-1.4-.4-3-1.6-1.7-1.2-3.7-1.9-4.5-1.6-.8.3-1.5.1-1.5-.5 0-.7-2.8-.9-8.2-.6-9.2.5-10.3.8-13.5 2.5-2.9 1.6-5.1.6-5.8-2.7-.7-3.4-4.2-9.1-5.5-9.1-.5 0 .2 2.4 1.7 5.4zm6 12.3c-.3 1-.5.4-.5-1.2 0-1.7.2-2.4.5-1.8.2.7.2 2.1 0 3zm43-14.8c8.2 6 13.3 15.3 13.3 24.7 0 2.4.3 3.4.9 2.6 1.9-3.1-1.7-16.5-6.1-22.2-2.5-3.3-8.8-8-10.6-8-.8 0 .3 1.3 2.5 2.9z"/></svg>